  0
SECTION
  2
HEADER
  9
$ANGBASE
  50
0.0
  9
$ANGDIR
  70
1
  9
$MEASUREMENT
  70
1
  0
ENDSEC
  0
SECTION
  2
TABLES
  0
TABLE
  2
LTYPE
  70
4
  0
LTYPE
  5
40F
  2
CONTINUOUS
  70
0
  3
Solid line
  72
65
  73
0
  40
0.0
  0
LTYPE
  5
410
  2
DASHDOT
 70
0
  3
Dash Dot ____ _ ____ _
 72
65
 73
4
 40
2.0
 49
1.25
 49
-0.25
 49
0.25
 49
-0.25
  0
LTYPE
  5
411
  2
DASHED
 70
0
  3
Dashed __ __ __ __ __
 72
65
 73
2
 40
0.75
 49
0.5
 49
-0.25
  0
LTYPE
  5
43B
  2
DOTTED
 70
0
  3
Dotted .  .  .  .
 72
65
 73
2
 40
0.2
 49
0.0
 49
-0.2
  0
ENDTAB
  0
TABLE
  2
STYLE
  70
4
  0
STYLE
  2
KICAD
  70
0
  40
0
  41
1
  42
1
  50
0
  71
0
  3
isocp.shx
  0
STYLE
  2
KICADB
  70
0
  40
0
  41
1
  42
1
  50
0
  71
0
  3
isocp.shx
  0
STYLE
  2
KICADI
  70
0
  40
0
  41
1
  42
1
  50
15
  71
0
  3
isocp.shx
  0
STYLE
  2
KICADBI
  70
0
  40
0
  41
1
  42
1
  50
15
  71
0
  3
isocp.shx
  0
ENDTAB
  0
TABLE
  2
LAYER
  70
1
  0
LAYER
  2
BLACK
  70
0
  62
7
  6
CONTINUOUS
  0
ENDTAB
  0
ENDSEC
  0
SECTION
  2
ENTITIES
0
LINE
8
BLACK
6
CONTINUOUS
10
22.655
20
-23.775
11
25.905
21
-27.025
0
LINE
8
BLACK
6
CONTINUOUS
10
25.905
20
-23.775
11
22.655
21
-27.025
0
LINE
8
BLACK
6
CONTINUOUS
10
22.655
20
-33.935
11
25.905
21
-37.185
0
LINE
8
BLACK
6
CONTINUOUS
10
25.905
20
-33.935
11
22.655
21
-37.185
0
LINE
8
BLACK
6
CONTINUOUS
10
2.57619
20
-3.10476
11
2.57619
21
-1.10476
0
LINE
8
BLACK
6
CONTINUOUS
10
2.57619
20
-1.10476
11
3.05238
21
-1.10476
0
LINE
8
BLACK
6
CONTINUOUS
10
3.05238
20
-1.10476
11
3.3381
21
-1.2
0
LINE
8
BLACK
6
CONTINUOUS
10
3.3381
20
-1.2
11
3.52857
21
-1.39048
0
LINE
8
BLACK
6
CONTINUOUS
10
3.52857
20
-1.39048
11
3.62381
21
-1.58095
0
LINE
8
BLACK
6
CONTINUOUS
10
3.62381
20
-1.58095
11
3.71905
21
-1.9619
0
LINE
8
BLACK
6
CONTINUOUS
10
3.71905
20
-1.9619
11
3.71905
21
-2.24762
0
LINE
8
BLACK
6
CONTINUOUS
10
3.71905
20
-2.24762
11
3.62381
21
-2.62857
0
LINE
8
BLACK
6
CONTINUOUS
10
3.62381
20
-2.62857
11
3.52857
21
-2.81905
0
LINE
8
BLACK
6
CONTINUOUS
10
3.52857
20
-2.81905
11
3.3381
21
-3.00952
0
LINE
8
BLACK
6
CONTINUOUS
10
3.3381
20
-3.00952
11
3.05238
21
-3.10476
0
LINE
8
BLACK
6
CONTINUOUS
10
3.05238
20
-3.10476
11
2.57619
21
-3.10476
0
LINE
8
BLACK
6
CONTINUOUS
10
4.57619
20
-3.10476
11
4.57619
21
-1.77143
0
LINE
8
BLACK
6
CONTINUOUS
10
4.57619
20
-2.15238
11
4.67143
21
-1.9619
0
LINE
8
BLACK
6
CONTINUOUS
10
4.67143
20
-1.9619
11
4.76667
21
-1.86667
0
LINE
8
BLACK
6
CONTINUOUS
10
4.76667
20
-1.86667
11
4.95714
21
-1.77143
0
LINE
8
BLACK
6
CONTINUOUS
10
4.95714
20
-1.77143
11
5.14762
21
-1.77143
0
LINE
8
BLACK
6
CONTINUOUS
10
5.81428
20
-3.10476
11
5.81428
21
-1.77143
0
LINE
8
BLACK
6
CONTINUOUS
10
5.81428
20
-1.10476
11
5.71905
21
-1.2
0
LINE
8
BLACK
6
CONTINUOUS
10
5.71905
20
-1.2
11
5.81428
21
-1.29524
0
LINE
8
BLACK
6
CONTINUOUS
10
5.81428
20
-1.29524
11
5.90952
21
-1.2
0
LINE
8
BLACK
6
CONTINUOUS
10
5.90952
20
-1.2
11
5.81428
21
-1.10476
0
LINE
8
BLACK
6
CONTINUOUS
10
5.81428
20
-1.10476
11
5.81428
21
-1.29524
0
LINE
8
BLACK
6
CONTINUOUS
10
7.05238
20
-3.10476
11
6.8619
21
-3.00952
0
LINE
8
BLACK
6
CONTINUOUS
10
6.8619
20
-3.00952
11
6.76667
21
-2.81905
0
LINE
8
BLACK
6
CONTINUOUS
10
6.76667
20
-2.81905
11
6.76667
21
-1.10476
0
LINE
8
BLACK
6
CONTINUOUS
10
8.1
20
-3.10476
11
7.90952
21
-3.00952
0
LINE
8
BLACK
6
CONTINUOUS
10
7.90952
20
-3.00952
11
7.81428
21
-2.81905
0
LINE
8
BLACK
6
CONTINUOUS
10
7.81428
20
-2.81905
11
7.81428
21
-1.10476
0
LINE
8
BLACK
6
CONTINUOUS
10
10.3857
20
-3.10476
11
10.3857
21
-1.10476
0
LINE
8
BLACK
6
CONTINUOUS
10
10.3857
20
-1.10476
11
11.0524
21
-2.53333
0
LINE
8
BLACK
6
CONTINUOUS
10
11.0524
20
-2.53333
11
11.719
21
-1.10476
0
LINE
8
BLACK
6
CONTINUOUS
10
11.719
20
-1.10476
11
11.719
21
-3.10476
0
LINE
8
BLACK
6
CONTINUOUS
10
13.5286
20
-3.10476
11
13.5286
21
-2.05714
0
LINE
8
BLACK
6
CONTINUOUS
10
13.5286
20
-2.05714
11
13.4333
21
-1.86667
0
LINE
8
BLACK
6
CONTINUOUS
10
13.4333
20
-1.86667
11
13.2429
21
-1.77143
0
LINE
8
BLACK
6
CONTINUOUS
10
13.2429
20
-1.77143
11
12.8619
21
-1.77143
0
LINE
8
BLACK
6
CONTINUOUS
10
12.8619
20
-1.77143
11
12.6714
21
-1.86667
0
LINE
8
BLACK
6
CONTINUOUS
10
13.5286
20
-3.00952
11
13.3381
21
-3.10476
0
LINE
8
BLACK
6
CONTINUOUS
10
13.3381
20
-3.10476
11
12.8619
21
-3.10476
0
LINE
8
BLACK
6
CONTINUOUS
10
12.8619
20
-3.10476
11
12.6714
21
-3.00952
0
LINE
8
BLACK
6
CONTINUOUS
10
12.6714
20
-3.00952
11
12.5762
21
-2.81905
0
LINE
8
BLACK
6
CONTINUOUS
10
12.5762
20
-2.81905
11
12.5762
21
-2.62857
0
LINE
8
BLACK
6
CONTINUOUS
10
12.5762
20
-2.62857
11
12.6714
21
-2.43809
0
LINE
8
BLACK
6
CONTINUOUS
10
12.6714
20
-2.43809
11
12.8619
21
-2.34286
0
LINE
8
BLACK
6
CONTINUOUS
10
12.8619
20
-2.34286
11
13.3381
21
-2.34286
0
LINE
8
BLACK
6
CONTINUOUS
10
13.3381
20
-2.34286
11
13.5286
21
-2.24762
0
LINE
8
BLACK
6
CONTINUOUS
10
14.481
20
-1.77143
11
14.481
21
-3.77143
0
LINE
8
BLACK
6
CONTINUOUS
10
14.481
20
-1.86667
11
14.6714
21
-1.77143
0
LINE
8
BLACK
6
CONTINUOUS
10
14.6714
20
-1.77143
11
15.0524
21
-1.77143
0
LINE
8
BLACK
6
CONTINUOUS
10
15.0524
20
-1.77143
11
15.2429
21
-1.86667
0
LINE
8
BLACK
6
CONTINUOUS
10
15.2429
20
-1.86667
11
15.3381
21
-1.9619
0
LINE
8
BLACK
6
CONTINUOUS
10
15.3381
20
-1.9619
11
15.4333
21
-2.15238
0
LINE
8
BLACK
6
CONTINUOUS
10
15.4333
20
-2.15238
11
15.4333
21
-2.72381
0
LINE
8
BLACK
6
CONTINUOUS
10
15.4333
20
-2.72381
11
15.3381
21
-2.91429
0
LINE
8
BLACK
6
CONTINUOUS
10
15.3381
20
-2.91429
11
15.2429
21
-3.00952
0
LINE
8
BLACK
6
CONTINUOUS
10
15.2429
20
-3.00952
11
15.0524
21
-3.10476
0
LINE
8
BLACK
6
CONTINUOUS
10
15.0524
20
-3.10476
11
14.6714
21
-3.10476
0
LINE
8
BLACK
6
CONTINUOUS
10
14.6714
20
-3.10476
11
14.481
21
-3.00952
0
LINE
8
BLACK
6
CONTINUOUS
10
16.2905
20
-2.91429
11
16.3857
21
-3.00952
0
LINE
8
BLACK
6
CONTINUOUS
10
16.3857
20
-3.00952
11
16.2905
21
-3.10476
0
LINE
8
BLACK
6
CONTINUOUS
10
16.2905
20
-3.10476
11
16.1952
21
-3.00952
0
LINE
8
BLACK
6
CONTINUOUS
10
16.1952
20
-3.00952
11
16.2905
21
-2.91429
0
LINE
8
BLACK
6
CONTINUOUS
10
16.2905
20
-2.91429
11
16.2905
21
-3.10476
0
LINE
8
BLACK
6
CONTINUOUS
10
16.2905
20
-1.86667
11
16.3857
21
-1.9619
0
LINE
8
BLACK
6
CONTINUOUS
10
16.3857
20
-1.9619
11
16.2905
21
-2.05714
0
LINE
8
BLACK
6
CONTINUOUS
10
16.2905
20
-2.05714
11
16.1952
21
-1.9619
0
LINE
8
BLACK
6
CONTINUOUS
10
16.1952
20
-1.9619
11
16.2905
21
-1.86667
0
LINE
8
BLACK
6
CONTINUOUS
10
16.2905
20
-1.86667
11
16.2905
21
-2.05714
0
LINE
8
BLACK
6
CONTINUOUS
10
-2
20
-5.4
11
0
21
-7.4
0
LINE
8
BLACK
6
CONTINUOUS
10
0
20
-5.4
11
-2
21
-7.4
0
LINE
8
BLACK
6
CONTINUOUS
10
2.38571
20
-5.30476
11
3.62381
21
-5.30476
0
LINE
8
BLACK
6
CONTINUOUS
10
3.62381
20
-5.30476
11
2.95714
21
-6.06667
0
LINE
8
BLACK
6
CONTINUOUS
10
2.95714
20
-6.06667
11
3.24286
21
-6.06667
0
LINE
8
BLACK
6
CONTINUOUS
10
3.24286
20
-6.06667
11
3.43333
21
-6.1619
0
LINE
8
BLACK
6
CONTINUOUS
10
3.43333
20
-6.1619
11
3.52857
21
-6.25714
0
LINE
8
BLACK
6
CONTINUOUS
10
3.52857
20
-6.25714
11
3.62381
21
-6.44762
0
LINE
8
BLACK
6
CONTINUOUS
10
3.62381
20
-6.44762
11
3.62381
21
-6.92381
0
LINE
8
BLACK
6
CONTINUOUS
10
3.62381
20
-6.92381
11
3.52857
21
-7.11428
0
LINE
8
BLACK
6
CONTINUOUS
10
3.52857
20
-7.11428
11
3.43333
21
-7.20952
0
LINE
8
BLACK
6
CONTINUOUS
10
3.43333
20
-7.20952
11
3.24286
21
-7.30476
0
LINE
8
BLACK
6
CONTINUOUS
10
3.24286
20
-7.30476
11
2.67143
21
-7.30476
0
LINE
8
BLACK
6
CONTINUOUS
10
2.67143
20
-7.30476
11
2.48095
21
-7.20952
0
LINE
8
BLACK
6
CONTINUOUS
10
2.48095
20
-7.20952
11
2.38571
21
-7.11428
0
LINE
8
BLACK
6
CONTINUOUS
10
4.48095
20
-7.11428
11
4.57619
21
-7.20952
0
LINE
8
BLACK
6
CONTINUOUS
10
4.57619
20
-7.20952
11
4.48095
21
-7.30476
0
LINE
8
BLACK
6
CONTINUOUS
10
4.48095
20
-7.30476
11
4.38571
21
-7.20952
0
LINE
8
BLACK
6
CONTINUOUS
10
4.38571
20
-7.20952
11
4.48095
21
-7.11428
0
LINE
8
BLACK
6
CONTINUOUS
10
4.48095
20
-7.11428
11
4.48095
21
-7.30476
0
LINE
8
BLACK
6
CONTINUOUS
10
5.3381
20
-5.49524
11
5.43333
21
-5.4
0
LINE
8
BLACK
6
CONTINUOUS
10
5.43333
20
-5.4
11
5.62381
21
-5.30476
0
LINE
8
BLACK
6
CONTINUOUS
10
5.62381
20
-5.30476
11
6.1
21
-5.30476
0
LINE
8
BLACK
6
CONTINUOUS
10
6.1
20
-5.30476
11
6.29048
21
-5.4
0
LINE
8
BLACK
6
CONTINUOUS
10
6.29048
20
-5.4
11
6.38571
21
-5.49524
0
LINE
8
BLACK
6
CONTINUOUS
10
6.38571
20
-5.49524
11
6.48095
21
-5.68571
0
LINE
8
BLACK
6
CONTINUOUS
10
6.48095
20
-5.68571
11
6.48095
21
-5.87619
0
LINE
8
BLACK
6
CONTINUOUS
10
6.48095
20
-5.87619
11
6.38571
21
-6.1619
0
LINE
8
BLACK
6
CONTINUOUS
10
6.38571
20
-6.1619
11
5.24286
21
-7.30476
0
LINE
8
BLACK
6
CONTINUOUS
10
5.24286
20
-7.30476
11
6.48095
21
-7.30476
0
LINE
8
BLACK
6
CONTINUOUS
10
8.29048
20
-5.30476
11
7.3381
21
-5.30476
0
LINE
8
BLACK
6
CONTINUOUS
10
7.3381
20
-5.30476
11
7.24286
21
-6.25714
0
LINE
8
BLACK
6
CONTINUOUS
10
7.24286
20
-6.25714
11
7.3381
21
-6.1619
0
LINE
8
BLACK
6
CONTINUOUS
10
7.3381
20
-6.1619
11
7.52857
21
-6.06667
0
LINE
8
BLACK
6
CONTINUOUS
10
7.52857
20
-6.06667
11
8.00476
21
-6.06667
0
LINE
8
BLACK
6
CONTINUOUS
10
8.00476
20
-6.06667
11
8.19524
21
-6.1619
0
LINE
8
BLACK
6
CONTINUOUS
10
8.19524
20
-6.1619
11
8.29048
21
-6.25714
0
LINE
8
BLACK
6
CONTINUOUS
10
8.29048
20
-6.25714
11
8.38571
21
-6.44762
0
LINE
8
BLACK
6
CONTINUOUS
10
8.38571
20
-6.44762
11
8.38571
21
-6.92381
0
LINE
8
BLACK
6
CONTINUOUS
10
8.38571
20
-6.92381
11
8.29048
21
-7.11428
0
LINE
8
BLACK
6
CONTINUOUS
10
8.29048
20
-7.11428
11
8.19524
21
-7.20952
0
LINE
8
BLACK
6
CONTINUOUS
10
8.19524
20
-7.20952
11
8.00476
21
-7.30476
0
LINE
8
BLACK
6
CONTINUOUS
10
8.00476
20
-7.30476
11
7.52857
21
-7.30476
0
LINE
8
BLACK
6
CONTINUOUS
10
7.52857
20
-7.30476
11
7.3381
21
-7.20952
0
LINE
8
BLACK
6
CONTINUOUS
10
7.3381
20
-7.20952
11
7.24286
21
-7.11428
0
LINE
8
BLACK
6
CONTINUOUS
10
9.62381
20
-5.30476
11
9.81428
21
-5.30476
0
LINE
8
BLACK
6
CONTINUOUS
10
9.81428
20
-5.30476
11
10.0048
21
-5.4
0
LINE
8
BLACK
6
CONTINUOUS
10
10.0048
20
-5.4
11
10.1
21
-5.49524
0
LINE
8
BLACK
6
CONTINUOUS
10
10.1
20
-5.49524
11
10.1952
21
-5.68571
0
LINE
8
BLACK
6
CONTINUOUS
10
10.1952
20
-5.68571
11
10.2905
21
-6.06667
0
LINE
8
BLACK
6
CONTINUOUS
10
10.2905
20
-6.06667
11
10.2905
21
-6.54286
0
LINE
8
BLACK
6
CONTINUOUS
10
10.2905
20
-6.54286
11
10.1952
21
-6.92381
0
LINE
8
BLACK
6
CONTINUOUS
10
10.1952
20
-6.92381
11
10.1
21
-7.11428
0
LINE
8
BLACK
6
CONTINUOUS
10
10.1
20
-7.11428
11
10.0048
21
-7.20952
0
LINE
8
BLACK
6
CONTINUOUS
10
10.0048
20
-7.20952
11
9.81428
21
-7.30476
0
LINE
8
BLACK
6
CONTINUOUS
10
9.81428
20
-7.30476
11
9.62381
21
-7.30476
0
LINE
8
BLACK
6
CONTINUOUS
10
9.62381
20
-7.30476
11
9.43333
21
-7.20952
0
LINE
8
BLACK
6
CONTINUOUS
10
9.43333
20
-7.20952
11
9.33809
21
-7.11428
0
LINE
8
BLACK
6
CONTINUOUS
10
9.33809
20
-7.11428
11
9.24286
21
-6.92381
0
LINE
8
BLACK
6
CONTINUOUS
10
9.24286
20
-6.92381
11
9.14762
21
-6.54286
0
LINE
8
BLACK
6
CONTINUOUS
10
9.14762
20
-6.54286
11
9.14762
21
-6.06667
0
LINE
8
BLACK
6
CONTINUOUS
10
9.14762
20
-6.06667
11
9.24286
21
-5.68571
0
LINE
8
BLACK
6
CONTINUOUS
10
9.24286
20
-5.68571
11
9.33809
21
-5.49524
0
LINE
8
BLACK
6
CONTINUOUS
10
9.33809
20
-5.49524
11
9.43333
21
-5.4
0
LINE
8
BLACK
6
CONTINUOUS
10
9.43333
20
-5.4
11
9.62381
21
-5.30476
0
LINE
8
BLACK
6
CONTINUOUS
10
11.1476
20
-7.30476
11
11.1476
21
-5.97143
0
LINE
8
BLACK
6
CONTINUOUS
10
11.1476
20
-6.1619
11
11.2429
21
-6.06667
0
LINE
8
BLACK
6
CONTINUOUS
10
11.2429
20
-6.06667
11
11.4333
21
-5.97143
0
LINE
8
BLACK
6
CONTINUOUS
10
11.4333
20
-5.97143
11
11.719
21
-5.97143
0
LINE
8
BLACK
6
CONTINUOUS
10
11.719
20
-5.97143
11
11.9095
21
-6.06667
0
LINE
8
BLACK
6
CONTINUOUS
10
11.9095
20
-6.06667
11
12.0048
21
-6.25714
0
LINE
8
BLACK
6
CONTINUOUS
10
12.0048
20
-6.25714
11
12.0048
21
-7.30476
0
LINE
8
BLACK
6
CONTINUOUS
10
12.0048
20
-6.25714
11
12.1
21
-6.06667
0
LINE
8
BLACK
6
CONTINUOUS
10
12.1
20
-6.06667
11
12.2905
21
-5.97143
0
LINE
8
BLACK
6
CONTINUOUS
10
12.2905
20
-5.97143
11
12.5762
21
-5.97143
0
LINE
8
BLACK
6
CONTINUOUS
10
12.5762
20
-5.97143
11
12.7667
21
-6.06667
0
LINE
8
BLACK
6
CONTINUOUS
10
12.7667
20
-6.06667
11
12.8619
21
-6.25714
0
LINE
8
BLACK
6
CONTINUOUS
10
12.8619
20
-6.25714
11
12.8619
21
-7.30476
0
LINE
8
BLACK
6
CONTINUOUS
10
13.8143
20
-7.30476
11
13.8143
21
-5.97143
0
LINE
8
BLACK
6
CONTINUOUS
10
13.8143
20
-6.1619
11
13.9095
21
-6.06667
0
LINE
8
BLACK
6
CONTINUOUS
10
13.9095
20
-6.06667
11
14.1
21
-5.97143
0
LINE
8
BLACK
6
CONTINUOUS
10
14.1
20
-5.97143
11
14.3857
21
-5.97143
0
LINE
8
BLACK
6
CONTINUOUS
10
14.3857
20
-5.97143
11
14.5762
21
-6.06667
0
LINE
8
BLACK
6
CONTINUOUS
10
14.5762
20
-6.06667
11
14.6714
21
-6.25714
0
LINE
8
BLACK
6
CONTINUOUS
10
14.6714
20
-6.25714
11
14.6714
21
-7.30476
0
LINE
8
BLACK
6
CONTINUOUS
10
14.6714
20
-6.25714
11
14.7667
21
-6.06667
0
LINE
8
BLACK
6
CONTINUOUS
10
14.7667
20
-6.06667
11
14.9571
21
-5.97143
0
LINE
8
BLACK
6
CONTINUOUS
10
14.9571
20
-5.97143
11
15.2429
21
-5.97143
0
LINE
8
BLACK
6
CONTINUOUS
10
15.2429
20
-5.97143
11
15.4333
21
-6.06667
0
LINE
8
BLACK
6
CONTINUOUS
10
15.4333
20
-6.06667
11
15.5286
21
-6.25714
0
LINE
8
BLACK
6
CONTINUOUS
10
15.5286
20
-6.25714
11
15.5286
21
-7.30476
0
LINE
8
BLACK
6
CONTINUOUS
10
19.4333
20
-5.20952
11
17.719
21
-7.78095
0
LINE
8
BLACK
6
CONTINUOUS
10
22.0048
20
-5.30476
11
22.1952
21
-5.30476
0
LINE
8
BLACK
6
CONTINUOUS
10
22.1952
20
-5.30476
11
22.3857
21
-5.4
0
LINE
8
BLACK
6
CONTINUOUS
10
22.3857
20
-5.4
11
22.481
21
-5.49524
0
LINE
8
BLACK
6
CONTINUOUS
10
22.481
20
-5.49524
11
22.5762
21
-5.68571
0
LINE
8
BLACK
6
CONTINUOUS
10
22.5762
20
-5.68571
11
22.6714
21
-6.06667
0
LINE
8
BLACK
6
CONTINUOUS
10
22.6714
20
-6.06667
11
22.6714
21
-6.54286
0
LINE
8
BLACK
6
CONTINUOUS
10
22.6714
20
-6.54286
11
22.5762
21
-6.92381
0
LINE
8
BLACK
6
CONTINUOUS
10
22.5762
20
-6.92381
11
22.481
21
-7.11428
0
LINE
8
BLACK
6
CONTINUOUS
10
22.481
20
-7.11428
11
22.3857
21
-7.20952
0
LINE
8
BLACK
6
CONTINUOUS
10
22.3857
20
-7.20952
11
22.1952
21
-7.30476
0
LINE
8
BLACK
6
CONTINUOUS
10
22.1952
20
-7.30476
11
22.0048
21
-7.30476
0
LINE
8
BLACK
6
CONTINUOUS
10
22.0048
20
-7.30476
11
21.8143
21
-7.20952
0
LINE
8
BLACK
6
CONTINUOUS
10
21.8143
20
-7.20952
11
21.719
21
-7.11428
0
LINE
8
BLACK
6
CONTINUOUS
10
21.719
20
-7.11428
11
21.6238
21
-6.92381
0
LINE
8
BLACK
6
CONTINUOUS
10
21.6238
20
-6.92381
11
21.5286
21
-6.54286
0
LINE
8
BLACK
6
CONTINUOUS
10
21.5286
20
-6.54286
11
21.5286
21
-6.06667
0
LINE
8
BLACK
6
CONTINUOUS
10
21.5286
20
-6.06667
11
21.6238
21
-5.68571
0
LINE
8
BLACK
6
CONTINUOUS
10
21.6238
20
-5.68571
11
21.719
21
-5.49524
0
LINE
8
BLACK
6
CONTINUOUS
10
21.719
20
-5.49524
11
21.8143
21
-5.4
0
LINE
8
BLACK
6
CONTINUOUS
10
21.8143
20
-5.4
11
22.0048
21
-5.30476
0
LINE
8
BLACK
6
CONTINUOUS
10
23.5286
20
-7.11428
11
23.6238
21
-7.20952
0
LINE
8
BLACK
6
CONTINUOUS
10
23.6238
20
-7.20952
11
23.5286
21
-7.30476
0
LINE
8
BLACK
6
CONTINUOUS
10
23.5286
20
-7.30476
11
23.4333
21
-7.20952
0
LINE
8
BLACK
6
CONTINUOUS
10
23.4333
20
-7.20952
11
23.5286
21
-7.11428
0
LINE
8
BLACK
6
CONTINUOUS
10
23.5286
20
-7.11428
11
23.5286
21
-7.30476
0
LINE
8
BLACK
6
CONTINUOUS
10
25.5286
20
-7.30476
11
24.3857
21
-7.30476
0
LINE
8
BLACK
6
CONTINUOUS
10
24.9571
20
-7.30476
11
24.9571
21
-5.30476
0
LINE
8
BLACK
6
CONTINUOUS
10
24.9571
20
-5.30476
11
24.7667
21
-5.59048
0
LINE
8
BLACK
6
CONTINUOUS
10
24.7667
20
-5.59048
11
24.5762
21
-5.78095
0
LINE
8
BLACK
6
CONTINUOUS
10
24.5762
20
-5.78095
11
24.3857
21
-5.87619
0
LINE
8
BLACK
6
CONTINUOUS
10
26.2905
20
-5.49524
11
26.3857
21
-5.4
0
LINE
8
BLACK
6
CONTINUOUS
10
26.3857
20
-5.4
11
26.5762
21
-5.30476
0
LINE
8
BLACK
6
CONTINUOUS
10
26.5762
20
-5.30476
11
27.0524
21
-5.30476
0
LINE
8
BLACK
6
CONTINUOUS
10
27.0524
20
-5.30476
11
27.2429
21
-5.4
0
LINE
8
BLACK
6
CONTINUOUS
10
27.2429
20
-5.4
11
27.3381
21
-5.49524
0
LINE
8
BLACK
6
CONTINUOUS
10
27.3381
20
-5.49524
11
27.4333
21
-5.68571
0
LINE
8
BLACK
6
CONTINUOUS
10
27.4333
20
-5.68571
11
27.4333
21
-5.87619
0
LINE
8
BLACK
6
CONTINUOUS
10
27.4333
20
-5.87619
11
27.3381
21
-6.1619
0
LINE
8
BLACK
6
CONTINUOUS
10
27.3381
20
-6.1619
11
26.1952
21
-7.30476
0
LINE
8
BLACK
6
CONTINUOUS
10
26.1952
20
-7.30476
11
27.4333
21
-7.30476
0
LINE
8
BLACK
6
CONTINUOUS
10
28.5762
20
-6.1619
11
28.3857
21
-6.06667
0
LINE
8
BLACK
6
CONTINUOUS
10
28.3857
20
-6.06667
11
28.2905
21
-5.97143
0
LINE
8
BLACK
6
CONTINUOUS
10
28.2905
20
-5.97143
11
28.1952
21
-5.78095
0
LINE
8
BLACK
6
CONTINUOUS
10
28.1952
20
-5.78095
11
28.1952
21
-5.68571
0
LINE
8
BLACK
6
CONTINUOUS
10
28.1952
20
-5.68571
11
28.2905
21
-5.49524
0
LINE
8
BLACK
6
CONTINUOUS
10
28.2905
20
-5.49524
11
28.3857
21
-5.4
0
LINE
8
BLACK
6
CONTINUOUS
10
28.3857
20
-5.4
11
28.5762
21
-5.30476
0
LINE
8
BLACK
6
CONTINUOUS
10
28.5762
20
-5.30476
11
28.9571
21
-5.30476
0
LINE
8
BLACK
6
CONTINUOUS
10
28.9571
20
-5.30476
11
29.1476
21
-5.4
0
LINE
8
BLACK
6
CONTINUOUS
10
29.1476
20
-5.4
11
29.2429
21
-5.49524
0
LINE
8
BLACK
6
CONTINUOUS
10
29.2429
20
-5.49524
11
29.3381
21
-5.68571
0
LINE
8
BLACK
6
CONTINUOUS
10
29.3381
20
-5.68571
11
29.3381
21
-5.78095
0
LINE
8
BLACK
6
CONTINUOUS
10
29.3381
20
-5.78095
11
29.2429
21
-5.97143
0
LINE
8
BLACK
6
CONTINUOUS
10
29.2429
20
-5.97143
11
29.1476
21
-6.06667
0
LINE
8
BLACK
6
CONTINUOUS
10
29.1476
20
-6.06667
11
28.9571
21
-6.1619
0
LINE
8
BLACK
6
CONTINUOUS
10
28.9571
20
-6.1619
11
28.5762
21
-6.1619
0
LINE
8
BLACK
6
CONTINUOUS
10
28.5762
20
-6.1619
11
28.3857
21
-6.25714
0
LINE
8
BLACK
6
CONTINUOUS
10
28.3857
20
-6.25714
11
28.2905
21
-6.35238
0
LINE
8
BLACK
6
CONTINUOUS
10
28.2905
20
-6.35238
11
28.1952
21
-6.54286
0
LINE
8
BLACK
6
CONTINUOUS
10
28.1952
20
-6.54286
11
28.1952
21
-6.92381
0
LINE
8
BLACK
6
CONTINUOUS
10
28.1952
20
-6.92381
11
28.2905
21
-7.11428
0
LINE
8
BLACK
6
CONTINUOUS
10
28.2905
20
-7.11428
11
28.3857
21
-7.20952
0
LINE
8
BLACK
6
CONTINUOUS
10
28.3857
20
-7.20952
11
28.5762
21
-7.30476
0
LINE
8
BLACK
6
CONTINUOUS
10
28.5762
20
-7.30476
11
28.9571
21
-7.30476
0
LINE
8
BLACK
6
CONTINUOUS
10
28.9571
20
-7.30476
11
29.1476
21
-7.20952
0
LINE
8
BLACK
6
CONTINUOUS
10
29.1476
20
-7.20952
11
29.2429
21
-7.11428
0
LINE
8
BLACK
6
CONTINUOUS
10
29.2429
20
-7.11428
11
29.3381
21
-6.92381
0
LINE
8
BLACK
6
CONTINUOUS
10
29.3381
20
-6.92381
11
29.3381
21
-6.54286
0
LINE
8
BLACK
6
CONTINUOUS
10
29.3381
20
-6.54286
11
29.2429
21
-6.35238
0
LINE
8
BLACK
6
CONTINUOUS
10
29.2429
20
-6.35238
11
29.1476
21
-6.25714
0
LINE
8
BLACK
6
CONTINUOUS
10
29.1476
20
-6.25714
11
28.9571
21
-6.1619
0
LINE
8
BLACK
6
CONTINUOUS
10
30.5762
20
-5.30476
11
30.7667
21
-5.30476
0
LINE
8
BLACK
6
CONTINUOUS
10
30.7667
20
-5.30476
11
30.9571
21
-5.4
0
LINE
8
BLACK
6
CONTINUOUS
10
30.9571
20
-5.4
11
31.0524
21
-5.49524
0
LINE
8
BLACK
6
CONTINUOUS
10
31.0524
20
-5.49524
11
31.1476
21
-5.68571
0
LINE
8
BLACK
6
CONTINUOUS
10
31.1476
20
-5.68571
11
31.2429
21
-6.06667
0
LINE
8
BLACK
6
CONTINUOUS
10
31.2429
20
-6.06667
11
31.2429
21
-6.54286
0
LINE
8
BLACK
6
CONTINUOUS
10
31.2429
20
-6.54286
11
31.1476
21
-6.92381
0
LINE
8
BLACK
6
CONTINUOUS
10
31.1476
20
-6.92381
11
31.0524
21
-7.11428
0
LINE
8
BLACK
6
CONTINUOUS
10
31.0524
20
-7.11428
11
30.9571
21
-7.20952
0
LINE
8
BLACK
6
CONTINUOUS
10
30.9571
20
-7.20952
11
30.7667
21
-7.30476
0
LINE
8
BLACK
6
CONTINUOUS
10
30.7667
20
-7.30476
11
30.5762
21
-7.30476
0
LINE
8
BLACK
6
CONTINUOUS
10
30.5762
20
-7.30476
11
30.3857
21
-7.20952
0
LINE
8
BLACK
6
CONTINUOUS
10
30.3857
20
-7.20952
11
30.2905
21
-7.11428
0
LINE
8
BLACK
6
CONTINUOUS
10
30.2905
20
-7.11428
11
30.1952
21
-6.92381
0
LINE
8
BLACK
6
CONTINUOUS
10
30.1952
20
-6.92381
11
30.1
21
-6.54286
0
LINE
8
BLACK
6
CONTINUOUS
10
30.1
20
-6.54286
11
30.1
21
-6.06667
0
LINE
8
BLACK
6
CONTINUOUS
10
30.1
20
-6.06667
11
30.1952
21
-5.68571
0
LINE
8
BLACK
6
CONTINUOUS
10
30.1952
20
-5.68571
11
30.2905
21
-5.49524
0
LINE
8
BLACK
6
CONTINUOUS
10
30.2905
20
-5.49524
11
30.3857
21
-5.4
0
LINE
8
BLACK
6
CONTINUOUS
10
30.3857
20
-5.4
11
30.5762
21
-5.30476
0
LINE
8
BLACK
6
CONTINUOUS
10
32.0048
20
-5.30476
11
32.0048
21
-5.68571
0
LINE
8
BLACK
6
CONTINUOUS
10
32.7667
20
-5.30476
11
32.7667
21
-5.68571
0
LINE
8
BLACK
6
CONTINUOUS
10
35.719
20
-8.06667
11
35.6238
21
-7.97143
0
LINE
8
BLACK
6
CONTINUOUS
10
35.6238
20
-7.97143
11
35.4333
21
-7.68571
0
LINE
8
BLACK
6
CONTINUOUS
10
35.4333
20
-7.68571
11
35.3381
21
-7.49524
0
LINE
8
BLACK
6
CONTINUOUS
10
35.3381
20
-7.49524
11
35.2429
21
-7.20952
0
LINE
8
BLACK
6
CONTINUOUS
10
35.2429
20
-7.20952
11
35.1476
21
-6.73333
0
LINE
8
BLACK
6
CONTINUOUS
10
35.1476
20
-6.73333
11
35.1476
21
-6.35238
0
LINE
8
BLACK
6
CONTINUOUS
10
35.1476
20
-6.35238
11
35.2429
21
-5.87619
0
LINE
8
BLACK
6
CONTINUOUS
10
35.2429
20
-5.87619
11
35.3381
21
-5.59048
0
LINE
8
BLACK
6
CONTINUOUS
10
35.3381
20
-5.59048
11
35.4333
21
-5.4
0
LINE
8
BLACK
6
CONTINUOUS
10
35.4333
20
-5.4
11
35.6238
21
-5.11428
0
LINE
8
BLACK
6
CONTINUOUS
10
35.6238
20
-5.11428
11
35.719
21
-5.01905
0
LINE
8
BLACK
6
CONTINUOUS
10
36.3857
20
-5.49524
11
36.481
21
-5.4
0
LINE
8
BLACK
6
CONTINUOUS
10
36.481
20
-5.4
11
36.6714
21
-5.30476
0
LINE
8
BLACK
6
CONTINUOUS
10
36.6714
20
-5.30476
11
37.1476
21
-5.30476
0
LINE
8
BLACK
6
CONTINUOUS
10
37.1476
20
-5.30476
11
37.3381
21
-5.4
0
LINE
8
BLACK
6
CONTINUOUS
10
37.3381
20
-5.4
11
37.4333
21
-5.49524
0
LINE
8
BLACK
6
CONTINUOUS
10
37.4333
20
-5.49524
11
37.5286
21
-5.68571
0
LINE
8
BLACK
6
CONTINUOUS
10
37.5286
20
-5.68571
11
37.5286
21
-5.87619
0
LINE
8
BLACK
6
CONTINUOUS
10
37.5286
20
-5.87619
11
37.4333
21
-6.1619
0
LINE
8
BLACK
6
CONTINUOUS
10
37.4333
20
-6.1619
11
36.2905
21
-7.30476
0
LINE
8
BLACK
6
CONTINUOUS
10
36.2905
20
-7.30476
11
37.5286
21
-7.30476
0
LINE
8
BLACK
6
CONTINUOUS
10
39.9095
20
-7.30476
11
39.9095
21
-5.30476
0
LINE
8
BLACK
6
CONTINUOUS
10
40.7667
20
-7.30476
11
40.7667
21
-6.25714
0
LINE
8
BLACK
6
CONTINUOUS
10
40.7667
20
-6.25714
11
40.6714
21
-6.06667
0
LINE
8
BLACK
6
CONTINUOUS
10
40.6714
20
-6.06667
11
40.481
21
-5.97143
0
LINE
8
BLACK
6
CONTINUOUS
10
40.481
20
-5.97143
11
40.1952
21
-5.97143
0
LINE
8
BLACK
6
CONTINUOUS
10
40.1952
20
-5.97143
11
40.0048
21
-6.06667
0
LINE
8
BLACK
6
CONTINUOUS
10
40.0048
20
-6.06667
11
39.9095
21
-6.1619
0
LINE
8
BLACK
6
CONTINUOUS
10
42.0048
20
-7.30476
11
41.8143
21
-7.20952
0
LINE
8
BLACK
6
CONTINUOUS
10
41.8143
20
-7.20952
11
41.719
21
-7.11428
0
LINE
8
BLACK
6
CONTINUOUS
10
41.719
20
-7.11428
11
41.6238
21
-6.92381
0
LINE
8
BLACK
6
CONTINUOUS
10
41.6238
20
-6.92381
11
41.6238
21
-6.35238
0
LINE
8
BLACK
6
CONTINUOUS
10
41.6238
20
-6.35238
11
41.719
21
-6.1619
0
LINE
8
BLACK
6
CONTINUOUS
10
41.719
20
-6.1619
11
41.8143
21
-6.06667
0
LINE
8
BLACK
6
CONTINUOUS
10
41.8143
20
-6.06667
11
42.0048
21
-5.97143
0
LINE
8
BLACK
6
CONTINUOUS
10
42.0048
20
-5.97143
11
42.2905
21
-5.97143
0
LINE
8
BLACK
6
CONTINUOUS
10
42.2905
20
-5.97143
11
42.481
21
-6.06667
0
LINE
8
BLACK
6
CONTINUOUS
10
42.481
20
-6.06667
11
42.5762
21
-6.1619
0
LINE
8
BLACK
6
CONTINUOUS
10
42.5762
20
-6.1619
11
42.6714
21
-6.35238
0
LINE
8
BLACK
6
CONTINUOUS
10
42.6714
20
-6.35238
11
42.6714
21
-6.92381
0
LINE
8
BLACK
6
CONTINUOUS
10
42.6714
20
-6.92381
11
42.5762
21
-7.11428
0
LINE
8
BLACK
6
CONTINUOUS
10
42.5762
20
-7.11428
11
42.481
21
-7.20952
0
LINE
8
BLACK
6
CONTINUOUS
10
42.481
20
-7.20952
11
42.2905
21
-7.30476
0
LINE
8
BLACK
6
CONTINUOUS
10
42.2905
20
-7.30476
11
42.0048
21
-7.30476
0
LINE
8
BLACK
6
CONTINUOUS
10
43.8143
20
-7.30476
11
43.6238
21
-7.20952
0
LINE
8
BLACK
6
CONTINUOUS
10
43.6238
20
-7.20952
11
43.5286
21
-7.01905
0
LINE
8
BLACK
6
CONTINUOUS
10
43.5286
20
-7.01905
11
43.5286
21
-5.30476
0
LINE
8
BLACK
6
CONTINUOUS
10
45.3381
20
-7.20952
11
45.1476
21
-7.30476
0
LINE
8
BLACK
6
CONTINUOUS
10
45.1476
20
-7.30476
11
44.7667
21
-7.30476
0
LINE
8
BLACK
6
CONTINUOUS
10
44.7667
20
-7.30476
11
44.5762
21
-7.20952
0
LINE
8
BLACK
6
CONTINUOUS
10
44.5762
20
-7.20952
11
44.481
21
-7.01905
0
LINE
8
BLACK
6
CONTINUOUS
10
44.481
20
-7.01905
11
44.481
21
-6.25714
0
LINE
8
BLACK
6
CONTINUOUS
10
44.481
20
-6.25714
11
44.5762
21
-6.06667
0
LINE
8
BLACK
6
CONTINUOUS
10
44.5762
20
-6.06667
11
44.7667
21
-5.97143
0
LINE
8
BLACK
6
CONTINUOUS
10
44.7667
20
-5.97143
11
45.1476
21
-5.97143
0
LINE
8
BLACK
6
CONTINUOUS
10
45.1476
20
-5.97143
11
45.3381
21
-6.06667
0
LINE
8
BLACK
6
CONTINUOUS
10
45.3381
20
-6.06667
11
45.4333
21
-6.25714
0
LINE
8
BLACK
6
CONTINUOUS
10
45.4333
20
-6.25714
11
45.4333
21
-6.44762
0
LINE
8
BLACK
6
CONTINUOUS
10
45.4333
20
-6.44762
11
44.481
21
-6.63809
0
LINE
8
BLACK
6
CONTINUOUS
10
46.1952
20
-7.20952
11
46.3857
21
-7.30476
0
LINE
8
BLACK
6
CONTINUOUS
10
46.3857
20
-7.30476
11
46.7667
21
-7.30476
0
LINE
8
BLACK
6
CONTINUOUS
10
46.7667
20
-7.30476
11
46.9571
21
-7.20952
0
LINE
8
BLACK
6
CONTINUOUS
10
46.9571
20
-7.20952
11
47.0524
21
-7.01905
0
LINE
8
BLACK
6
CONTINUOUS
10
47.0524
20
-7.01905
11
47.0524
21
-6.92381
0
LINE
8
BLACK
6
CONTINUOUS
10
47.0524
20
-6.92381
11
46.9571
21
-6.73333
0
LINE
8
BLACK
6
CONTINUOUS
10
46.9571
20
-6.73333
11
46.7667
21
-6.63809
0
LINE
8
BLACK
6
CONTINUOUS
10
46.7667
20
-6.63809
11
46.481
21
-6.63809
0
LINE
8
BLACK
6
CONTINUOUS
10
46.481
20
-6.63809
11
46.2905
21
-6.54286
0
LINE
8
BLACK
6
CONTINUOUS
10
46.2905
20
-6.54286
11
46.1952
21
-6.35238
0
LINE
8
BLACK
6
CONTINUOUS
10
46.1952
20
-6.35238
11
46.1952
21
-6.25714
0
LINE
8
BLACK
6
CONTINUOUS
10
46.1952
20
-6.25714
11
46.2905
21
-6.06667
0
LINE
8
BLACK
6
CONTINUOUS
10
46.2905
20
-6.06667
11
46.481
21
-5.97143
0
LINE
8
BLACK
6
CONTINUOUS
10
46.481
20
-5.97143
11
46.7667
21
-5.97143
0
LINE
8
BLACK
6
CONTINUOUS
10
46.7667
20
-5.97143
11
46.9571
21
-6.06667
0
LINE
8
BLACK
6
CONTINUOUS
10
47.719
20
-8.06667
11
47.8143
21
-7.97143
0
LINE
8
BLACK
6
CONTINUOUS
10
47.8143
20
-7.97143
11
48.0048
21
-7.68571
0
LINE
8
BLACK
6
CONTINUOUS
10
48.0048
20
-7.68571
11
48.1
21
-7.49524
0
LINE
8
BLACK
6
CONTINUOUS
10
48.1
20
-7.49524
11
48.1952
21
-7.20952
0
LINE
8
BLACK
6
CONTINUOUS
10
48.1952
20
-7.20952
11
48.2905
21
-6.73333
0
LINE
8
BLACK
6
CONTINUOUS
10
48.2905
20
-6.73333
11
48.2905
21
-6.35238
0
LINE
8
BLACK
6
CONTINUOUS
10
48.2905
20
-6.35238
11
48.1952
21
-5.87619
0
LINE
8
BLACK
6
CONTINUOUS
10
48.1952
20
-5.87619
11
48.1
21
-5.59048
0
LINE
8
BLACK
6
CONTINUOUS
10
48.1
20
-5.59048
11
48.0048
21
-5.4
0
LINE
8
BLACK
6
CONTINUOUS
10
48.0048
20
-5.4
11
47.8143
21
-5.11428
0
LINE
8
BLACK
6
CONTINUOUS
10
47.8143
20
-5.11428
11
47.719
21
-5.01905
0
LINE
8
BLACK
6
CONTINUOUS
10
51.3381
20
-8.06667
11
51.2429
21
-7.97143
0
LINE
8
BLACK
6
CONTINUOUS
10
51.2429
20
-7.97143
11
51.0524
21
-7.68571
0
LINE
8
BLACK
6
CONTINUOUS
10
51.0524
20
-7.68571
11
50.9571
21
-7.49524
0
LINE
8
BLACK
6
CONTINUOUS
10
50.9571
20
-7.49524
11
50.8619
21
-7.20952
0
LINE
8
BLACK
6
CONTINUOUS
10
50.8619
20
-7.20952
11
50.7667
21
-6.73333
0
LINE
8
BLACK
6
CONTINUOUS
10
50.7667
20
-6.73333
11
50.7667
21
-6.35238
0
LINE
8
BLACK
6
CONTINUOUS
10
50.7667
20
-6.35238
11
50.8619
21
-5.87619
0
LINE
8
BLACK
6
CONTINUOUS
10
50.8619
20
-5.87619
11
50.9571
21
-5.59048
0
LINE
8
BLACK
6
CONTINUOUS
10
50.9571
20
-5.59048
11
51.0524
21
-5.4
0
LINE
8
BLACK
6
CONTINUOUS
10
51.0524
20
-5.4
11
51.2429
21
-5.11428
0
LINE
8
BLACK
6
CONTINUOUS
10
51.2429
20
-5.11428
11
51.3381
21
-5.01905
0
LINE
8
BLACK
6
CONTINUOUS
10
52.1
20
-5.97143
11
52.1
21
-7.30476
0
LINE
8
BLACK
6
CONTINUOUS
10
52.1
20
-6.1619
11
52.1952
21
-6.06667
0
LINE
8
BLACK
6
CONTINUOUS
10
52.1952
20
-6.06667
11
52.3857
21
-5.97143
0
LINE
8
BLACK
6
CONTINUOUS
10
52.3857
20
-5.97143
11
52.6714
21
-5.97143
0
LINE
8
BLACK
6
CONTINUOUS
10
52.6714
20
-5.97143
11
52.8619
21
-6.06667
0
LINE
8
BLACK
6
CONTINUOUS
10
52.8619
20
-6.06667
11
52.9571
21
-6.25714
0
LINE
8
BLACK
6
CONTINUOUS
10
52.9571
20
-6.25714
11
52.9571
21
-7.30476
0
LINE
8
BLACK
6
CONTINUOUS
10
54.1952
20
-7.30476
11
54.0048
21
-7.20952
0
LINE
8
BLACK
6
CONTINUOUS
10
54.0048
20
-7.20952
11
53.9095
21
-7.11428
0
LINE
8
BLACK
6
CONTINUOUS
10
53.9095
20
-7.11428
11
53.8143
21
-6.92381
0
LINE
8
BLACK
6
CONTINUOUS
10
53.8143
20
-6.92381
11
53.8143
21
-6.35238
0
LINE
8
BLACK
6
CONTINUOUS
10
53.8143
20
-6.35238
11
53.9095
21
-6.1619
0
LINE
8
BLACK
6
CONTINUOUS
10
53.9095
20
-6.1619
11
54.0048
21
-6.06667
0
LINE
8
BLACK
6
CONTINUOUS
10
54.0048
20
-6.06667
11
54.1952
21
-5.97143
0
LINE
8
BLACK
6
CONTINUOUS
10
54.1952
20
-5.97143
11
54.481
21
-5.97143
0
LINE
8
BLACK
6
CONTINUOUS
10
54.481
20
-5.97143
11
54.6714
21
-6.06667
0
LINE
8
BLACK
6
CONTINUOUS
10
54.6714
20
-6.06667
11
54.7667
21
-6.1619
0
LINE
8
BLACK
6
CONTINUOUS
10
54.7667
20
-6.1619
11
54.8619
21
-6.35238
0
LINE
8
BLACK
6
CONTINUOUS
10
54.8619
20
-6.35238
11
54.8619
21
-6.92381
0
LINE
8
BLACK
6
CONTINUOUS
10
54.8619
20
-6.92381
11
54.7667
21
-7.11428
0
LINE
8
BLACK
6
CONTINUOUS
10
54.7667
20
-7.11428
11
54.6714
21
-7.20952
0
LINE
8
BLACK
6
CONTINUOUS
10
54.6714
20
-7.20952
11
54.481
21
-7.30476
0
LINE
8
BLACK
6
CONTINUOUS
10
54.481
20
-7.30476
11
54.1952
21
-7.30476
0
LINE
8
BLACK
6
CONTINUOUS
10
55.4333
20
-5.97143
11
56.1952
21
-5.97143
0
LINE
8
BLACK
6
CONTINUOUS
10
55.719
20
-5.30476
11
55.719
21
-7.01905
0
LINE
8
BLACK
6
CONTINUOUS
10
55.719
20
-7.01905
11
55.8143
21
-7.20952
0
LINE
8
BLACK
6
CONTINUOUS
10
55.8143
20
-7.20952
11
56.0048
21
-7.30476
0
LINE
8
BLACK
6
CONTINUOUS
10
56.0048
20
-7.30476
11
56.1952
21
-7.30476
0
LINE
8
BLACK
6
CONTINUOUS
10
58.3857
20
-5.97143
11
58.3857
21
-7.97143
0
LINE
8
BLACK
6
CONTINUOUS
10
58.3857
20
-6.06667
11
58.5762
21
-5.97143
0
LINE
8
BLACK
6
CONTINUOUS
10
58.5762
20
-5.97143
11
58.9571
21
-5.97143
0
LINE
8
BLACK
6
CONTINUOUS
10
58.9571
20
-5.97143
11
59.1476
21
-6.06667
0
LINE
8
BLACK
6
CONTINUOUS
10
59.1476
20
-6.06667
11
59.2429
21
-6.1619
0
LINE
8
BLACK
6
CONTINUOUS
10
59.2429
20
-6.1619
11
59.3381
21
-6.35238
0
LINE
8
BLACK
6
CONTINUOUS
10
59.3381
20
-6.35238
11
59.3381
21
-6.92381
0
LINE
8
BLACK
6
CONTINUOUS
10
59.3381
20
-6.92381
11
59.2429
21
-7.11428
0
LINE
8
BLACK
6
CONTINUOUS
10
59.2429
20
-7.11428
11
59.1476
21
-7.20952
0
LINE
8
BLACK
6
CONTINUOUS
10
59.1476
20
-7.20952
11
58.9571
21
-7.30476
0
LINE
8
BLACK
6
CONTINUOUS
10
58.9571
20
-7.30476
11
58.5762
21
-7.30476
0
LINE
8
BLACK
6
CONTINUOUS
10
58.5762
20
-7.30476
11
58.3857
21
-7.20952
0
LINE
8
BLACK
6
CONTINUOUS
10
60.481
20
-7.30476
11
60.2905
21
-7.20952
0
LINE
8
BLACK
6
CONTINUOUS
10
60.2905
20
-7.20952
11
60.1952
21
-7.01905
0
LINE
8
BLACK
6
CONTINUOUS
10
60.1952
20
-7.01905
11
60.1952
21
-5.30476
0
LINE
8
BLACK
6
CONTINUOUS
10
62.1
20
-7.30476
11
62.1
21
-6.25714
0
LINE
8
BLACK
6
CONTINUOUS
10
62.1
20
-6.25714
11
62.0048
21
-6.06667
0
LINE
8
BLACK
6
CONTINUOUS
10
62.0048
20
-6.06667
11
61.8143
21
-5.97143
0
LINE
8
BLACK
6
CONTINUOUS
10
61.8143
20
-5.97143
11
61.4333
21
-5.97143
0
LINE
8
BLACK
6
CONTINUOUS
10
61.4333
20
-5.97143
11
61.2429
21
-6.06667
0
LINE
8
BLACK
6
CONTINUOUS
10
62.1
20
-7.20952
11
61.9095
21
-7.30476
0
LINE
8
BLACK
6
CONTINUOUS
10
61.9095
20
-7.30476
11
61.4333
21
-7.30476
0
LINE
8
BLACK
6
CONTINUOUS
10
61.4333
20
-7.30476
11
61.2429
21
-7.20952
0
LINE
8
BLACK
6
CONTINUOUS
10
61.2429
20
-7.20952
11
61.1476
21
-7.01905
0
LINE
8
BLACK
6
CONTINUOUS
10
61.1476
20
-7.01905
11
61.1476
21
-6.82857
0
LINE
8
BLACK
6
CONTINUOUS
10
61.1476
20
-6.82857
11
61.2429
21
-6.63809
0
LINE
8
BLACK
6
CONTINUOUS
10
61.2429
20
-6.63809
11
61.4333
21
-6.54286
0
LINE
8
BLACK
6
CONTINUOUS
10
61.4333
20
-6.54286
11
61.9095
21
-6.54286
0
LINE
8
BLACK
6
CONTINUOUS
10
61.9095
20
-6.54286
11
62.1
21
-6.44762
0
LINE
8
BLACK
6
CONTINUOUS
10
62.7667
20
-5.97143
11
63.5286
21
-5.97143
0
LINE
8
BLACK
6
CONTINUOUS
10
63.0524
20
-5.30476
11
63.0524
21
-7.01905
0
LINE
8
BLACK
6
CONTINUOUS
10
63.0524
20
-7.01905
11
63.1476
21
-7.20952
0
LINE
8
BLACK
6
CONTINUOUS
10
63.1476
20
-7.20952
11
63.3381
21
-7.30476
0
LINE
8
BLACK
6
CONTINUOUS
10
63.3381
20
-7.30476
11
63.5286
21
-7.30476
0
LINE
8
BLACK
6
CONTINUOUS
10
64.9571
20
-7.20952
11
64.7667
21
-7.30476
0
LINE
8
BLACK
6
CONTINUOUS
10
64.7667
20
-7.30476
11
64.3857
21
-7.30476
0
LINE
8
BLACK
6
CONTINUOUS
10
64.3857
20
-7.30476
11
64.1952
21
-7.20952
0
LINE
8
BLACK
6
CONTINUOUS
10
64.1952
20
-7.20952
11
64.1
21
-7.01905
0
LINE
8
BLACK
6
CONTINUOUS
10
64.1
20
-7.01905
11
64.1
21
-6.25714
0
LINE
8
BLACK
6
CONTINUOUS
10
64.1
20
-6.25714
11
64.1952
21
-6.06667
0
LINE
8
BLACK
6
CONTINUOUS
10
64.1952
20
-6.06667
11
64.3857
21
-5.97143
0
LINE
8
BLACK
6
CONTINUOUS
10
64.3857
20
-5.97143
11
64.7667
21
-5.97143
0
LINE
8
BLACK
6
CONTINUOUS
10
64.7667
20
-5.97143
11
64.9571
21
-6.06667
0
LINE
8
BLACK
6
CONTINUOUS
10
64.9571
20
-6.06667
11
65.0524
21
-6.25714
0
LINE
8
BLACK
6
CONTINUOUS
10
65.0524
20
-6.25714
11
65.0524
21
-6.44762
0
LINE
8
BLACK
6
CONTINUOUS
10
65.0524
20
-6.44762
11
64.1
21
-6.63809
0
LINE
8
BLACK
6
CONTINUOUS
10
66.7667
20
-7.30476
11
66.7667
21
-5.30476
0
LINE
8
BLACK
6
CONTINUOUS
10
66.7667
20
-7.20952
11
66.5762
21
-7.30476
0
LINE
8
BLACK
6
CONTINUOUS
10
66.5762
20
-7.30476
11
66.1952
21
-7.30476
0
LINE
8
BLACK
6
CONTINUOUS
10
66.1952
20
-7.30476
11
66.0048
21
-7.20952
0
LINE
8
BLACK
6
CONTINUOUS
10
66.0048
20
-7.20952
11
65.9095
21
-7.11428
0
LINE
8
BLACK
6
CONTINUOUS
10
65.9095
20
-7.11428
11
65.8143
21
-6.92381
0
LINE
8
BLACK
6
CONTINUOUS
10
65.8143
20
-6.92381
11
65.8143
21
-6.35238
0
LINE
8
BLACK
6
CONTINUOUS
10
65.8143
20
-6.35238
11
65.9095
21
-6.1619
0
LINE
8
BLACK
6
CONTINUOUS
10
65.9095
20
-6.1619
11
66.0048
21
-6.06667
0
LINE
8
BLACK
6
CONTINUOUS
10
66.0048
20
-6.06667
11
66.1952
21
-5.97143
0
LINE
8
BLACK
6
CONTINUOUS
10
66.1952
20
-5.97143
11
66.5762
21
-5.97143
0
LINE
8
BLACK
6
CONTINUOUS
10
66.5762
20
-5.97143
11
66.7667
21
-6.06667
0
LINE
8
BLACK
6
CONTINUOUS
10
67.5286
20
-8.06667
11
67.6238
21
-7.97143
0
LINE
8
BLACK
6
CONTINUOUS
10
67.6238
20
-7.97143
11
67.8143
21
-7.68571
0
LINE
8
BLACK
6
CONTINUOUS
10
67.8143
20
-7.68571
11
67.9095
21
-7.49524
0
LINE
8
BLACK
6
CONTINUOUS
10
67.9095
20
-7.49524
11
68.0048
21
-7.20952
0
LINE
8
BLACK
6
CONTINUOUS
10
68.0048
20
-7.20952
11
68.1
21
-6.73333
0
LINE
8
BLACK
6
CONTINUOUS
10
68.1
20
-6.73333
11
68.1
21
-6.35238
0
LINE
8
BLACK
6
CONTINUOUS
10
68.1
20
-6.35238
11
68.0048
21
-5.87619
0
LINE
8
BLACK
6
CONTINUOUS
10
68.0048
20
-5.87619
11
67.9095
21
-5.59048
0
LINE
8
BLACK
6
CONTINUOUS
10
67.9095
20
-5.59048
11
67.8143
21
-5.4
0
LINE
8
BLACK
6
CONTINUOUS
10
67.8143
20
-5.4
11
67.6238
21
-5.11428
0
LINE
8
BLACK
6
CONTINUOUS
10
67.6238
20
-5.11428
11
67.5286
21
-5.01905
  0
ENDSEC
  0
EOF
