  0
SECTION
  2
HEADER
  9
$ANGBASE
  50
0.0
  9
$ANGDIR
  70
1
  9
$MEASUREMENT
  70
1
  0
ENDSEC
  0
SECTION
  2
TABLES
  0
TABLE
  2
LTYPE
  70
4
  0
LTYPE
  5
40F
  2
CONTINUOUS
  70
0
  3
Solid line
  72
65
  73
0
  40
0.0
  0
LTYPE
  5
410
  2
DASHDOT
 70
0
  3
Dash Dot ____ _ ____ _
 72
65
 73
4
 40
2.0
 49
1.25
 49
-0.25
 49
0.25
 49
-0.25
  0
LTYPE
  5
411
  2
DASHED
 70
0
  3
Dashed __ __ __ __ __
 72
65
 73
2
 40
0.75
 49
0.5
 49
-0.25
  0
LTYPE
  5
43B
  2
DOTTED
 70
0
  3
Dotted .  .  .  .
 72
65
 73
2
 40
0.2
 49
0.0
 49
-0.2
  0
ENDTAB
  0
TABLE
  2
STYLE
  70
4
  0
STYLE
  2
KICAD
  70
0
  40
0
  41
1
  42
1
  50
0
  71
0
  3
isocp.shx
  0
STYLE
  2
KICADB
  70
0
  40
0
  41
1
  42
1
  50
0
  71
0
  3
isocp.shx
  0
STYLE
  2
KICADI
  70
0
  40
0
  41
1
  42
1
  50
15
  71
0
  3
isocp.shx
  0
STYLE
  2
KICADBI
  70
0
  40
0
  41
1
  42
1
  50
15
  71
0
  3
isocp.shx
  0
ENDTAB
  0
TABLE
  2
LAYER
  70
1
  0
LAYER
  2
BLACK
  70
0
  62
7
  6
CONTINUOUS
  0
ENDTAB
  0
ENDSEC
  0
SECTION
  2
ENTITIES
0
LINE
8
BLACK
6
CONTINUOUS
10
47.885
20
-27.565
11
48.635
21
-28.315
0
LINE
8
BLACK
6
CONTINUOUS
10
48.635
20
-27.565
11
47.885
21
-28.315
0
LINE
8
BLACK
6
CONTINUOUS
10
47.885
20
-28.835
11
48.635
21
-29.585
0
LINE
8
BLACK
6
CONTINUOUS
10
48.635
20
-28.835
11
47.885
21
-29.585
0
LINE
8
BLACK
6
CONTINUOUS
10
47.885
20
-30.105
11
48.635
21
-30.855
0
LINE
8
BLACK
6
CONTINUOUS
10
48.635
20
-30.105
11
47.885
21
-30.855
0
CIRCLE
8
BLACK
10
30.63
20
-27.3
40
0.38
0
CIRCLE
8
BLACK
10
30.63
20
-29.84
40
0.38
0
CIRCLE
8
BLACK
10
30.63
20
-32.38
40
0.38
0
CIRCLE
8
BLACK
10
33.17
20
-28.57
40
0.38
0
CIRCLE
8
BLACK
10
33.17
20
-31.11
40
0.38
0
CIRCLE
8
BLACK
10
33.17
20
-33.65
40
0.38
0
LINE
8
BLACK
6
CONTINUOUS
10
68.235
20
-21.209
11
68.235
21
-21.971
0
LINE
8
BLACK
6
CONTINUOUS
10
67.854
20
-21.59
11
68.616
21
-21.59
0
LINE
8
BLACK
6
CONTINUOUS
10
68.235
20
-23.876
11
68.235
21
-24.638
0
LINE
8
BLACK
6
CONTINUOUS
10
67.854
20
-24.257
11
68.616
21
-24.257
0
LINE
8
BLACK
6
CONTINUOUS
10
68.235
20
-26.416
11
68.235
21
-27.178
0
LINE
8
BLACK
6
CONTINUOUS
10
67.854
20
-26.797
11
68.616
21
-26.797
0
LINE
8
BLACK
6
CONTINUOUS
10
68.235
20
-39.116
11
68.235
21
-39.878
0
LINE
8
BLACK
6
CONTINUOUS
10
67.854
20
-39.497
11
68.616
21
-39.497
0
LINE
8
BLACK
6
CONTINUOUS
10
68.235
20
-41.656
11
68.235
21
-42.418
0
LINE
8
BLACK
6
CONTINUOUS
10
67.854
20
-42.037
11
68.616
21
-42.037
0
LINE
8
BLACK
6
CONTINUOUS
10
68.235
20
-44.069
11
68.235
21
-44.831
0
LINE
8
BLACK
6
CONTINUOUS
10
67.854
20
-44.45
11
68.616
21
-44.45
0
LINE
8
BLACK
6
CONTINUOUS
10
70.775
20
-21.209
11
70.775
21
-21.971
0
LINE
8
BLACK
6
CONTINUOUS
10
70.394
20
-21.59
11
71.156
21
-21.59
0
LINE
8
BLACK
6
CONTINUOUS
10
70.775
20
-23.876
11
70.775
21
-24.638
0
LINE
8
BLACK
6
CONTINUOUS
10
70.394
20
-24.257
11
71.156
21
-24.257
0
LINE
8
BLACK
6
CONTINUOUS
10
70.775
20
-26.416
11
70.775
21
-27.178
0
LINE
8
BLACK
6
CONTINUOUS
10
70.394
20
-26.797
11
71.156
21
-26.797
0
LINE
8
BLACK
6
CONTINUOUS
10
70.775
20
-39.116
11
70.775
21
-39.878
0
LINE
8
BLACK
6
CONTINUOUS
10
70.394
20
-39.497
11
71.156
21
-39.497
0
LINE
8
BLACK
6
CONTINUOUS
10
70.775
20
-41.656
11
70.775
21
-42.418
0
LINE
8
BLACK
6
CONTINUOUS
10
70.394
20
-42.037
11
71.156
21
-42.037
0
LINE
8
BLACK
6
CONTINUOUS
10
70.775
20
-44.069
11
70.775
21
-44.831
0
LINE
8
BLACK
6
CONTINUOUS
10
70.394
20
-44.45
11
71.156
21
-44.45
0
LINE
8
BLACK
6
CONTINUOUS
10
73.315
20
-21.209
11
73.315
21
-21.971
0
LINE
8
BLACK
6
CONTINUOUS
10
72.934
20
-21.59
11
73.696
21
-21.59
0
LINE
8
BLACK
6
CONTINUOUS
10
73.315
20
-23.876
11
73.315
21
-24.638
0
LINE
8
BLACK
6
CONTINUOUS
10
72.934
20
-24.257
11
73.696
21
-24.257
0
LINE
8
BLACK
6
CONTINUOUS
10
73.315
20
-26.416
11
73.315
21
-27.178
0
LINE
8
BLACK
6
CONTINUOUS
10
72.934
20
-26.797
11
73.696
21
-26.797
0
LINE
8
BLACK
6
CONTINUOUS
10
73.315
20
-39.116
11
73.315
21
-39.878
0
LINE
8
BLACK
6
CONTINUOUS
10
72.934
20
-39.497
11
73.696
21
-39.497
0
LINE
8
BLACK
6
CONTINUOUS
10
73.315
20
-41.656
11
73.315
21
-42.418
0
LINE
8
BLACK
6
CONTINUOUS
10
72.934
20
-42.037
11
73.696
21
-42.037
0
LINE
8
BLACK
6
CONTINUOUS
10
73.315
20
-44.069
11
73.315
21
-44.831
0
LINE
8
BLACK
6
CONTINUOUS
10
72.934
20
-44.45
11
73.696
21
-44.45
0
LINE
8
BLACK
6
CONTINUOUS
10
75.855
20
-21.209
11
75.855
21
-21.971
0
LINE
8
BLACK
6
CONTINUOUS
10
75.474
20
-21.59
11
76.236
21
-21.59
0
LINE
8
BLACK
6
CONTINUOUS
10
75.855
20
-23.876
11
75.855
21
-24.638
0
LINE
8
BLACK
6
CONTINUOUS
10
75.474
20
-24.257
11
76.236
21
-24.257
0
LINE
8
BLACK
6
CONTINUOUS
10
75.855
20
-26.416
11
75.855
21
-27.178
0
LINE
8
BLACK
6
CONTINUOUS
10
75.474
20
-26.797
11
76.236
21
-26.797
0
LINE
8
BLACK
6
CONTINUOUS
10
75.855
20
-39.116
11
75.855
21
-39.878
0
LINE
8
BLACK
6
CONTINUOUS
10
75.474
20
-39.497
11
76.236
21
-39.497
0
LINE
8
BLACK
6
CONTINUOUS
10
75.855
20
-41.656
11
75.855
21
-42.418
0
LINE
8
BLACK
6
CONTINUOUS
10
75.474
20
-42.037
11
76.236
21
-42.037
0
LINE
8
BLACK
6
CONTINUOUS
10
75.855
20
-44.069
11
75.855
21
-44.831
0
LINE
8
BLACK
6
CONTINUOUS
10
75.474
20
-44.45
11
76.236
21
-44.45
0
LINE
8
BLACK
6
CONTINUOUS
10
78.395
20
-21.209
11
78.395
21
-21.971
0
LINE
8
BLACK
6
CONTINUOUS
10
78.014
20
-21.59
11
78.776
21
-21.59
0
LINE
8
BLACK
6
CONTINUOUS
10
78.395
20
-23.876
11
78.395
21
-24.638
0
LINE
8
BLACK
6
CONTINUOUS
10
78.014
20
-24.257
11
78.776
21
-24.257
0
LINE
8
BLACK
6
CONTINUOUS
10
78.395
20
-26.416
11
78.395
21
-27.178
0
LINE
8
BLACK
6
CONTINUOUS
10
78.014
20
-26.797
11
78.776
21
-26.797
0
LINE
8
BLACK
6
CONTINUOUS
10
78.395
20
-39.116
11
78.395
21
-39.878
0
LINE
8
BLACK
6
CONTINUOUS
10
78.014
20
-39.497
11
78.776
21
-39.497
0
LINE
8
BLACK
6
CONTINUOUS
10
78.395
20
-41.656
11
78.395
21
-42.418
0
LINE
8
BLACK
6
CONTINUOUS
10
78.014
20
-42.037
11
78.776
21
-42.037
0
LINE
8
BLACK
6
CONTINUOUS
10
78.395
20
-44.069
11
78.395
21
-44.831
0
LINE
8
BLACK
6
CONTINUOUS
10
78.014
20
-44.45
11
78.776
21
-44.45
0
LINE
8
BLACK
6
CONTINUOUS
10
80.935
20
-21.209
11
80.935
21
-21.971
0
LINE
8
BLACK
6
CONTINUOUS
10
80.554
20
-21.59
11
81.316
21
-21.59
0
LINE
8
BLACK
6
CONTINUOUS
10
80.935
20
-23.876
11
80.935
21
-24.638
0
LINE
8
BLACK
6
CONTINUOUS
10
80.554
20
-24.257
11
81.316
21
-24.257
0
LINE
8
BLACK
6
CONTINUOUS
10
80.935
20
-26.416
11
80.935
21
-27.178
0
LINE
8
BLACK
6
CONTINUOUS
10
80.554
20
-26.797
11
81.316
21
-26.797
0
LINE
8
BLACK
6
CONTINUOUS
10
80.935
20
-39.116
11
80.935
21
-39.878
0
LINE
8
BLACK
6
CONTINUOUS
10
80.554
20
-39.497
11
81.316
21
-39.497
0
LINE
8
BLACK
6
CONTINUOUS
10
80.935
20
-41.656
11
80.935
21
-42.418
0
LINE
8
BLACK
6
CONTINUOUS
10
80.554
20
-42.037
11
81.316
21
-42.037
0
LINE
8
BLACK
6
CONTINUOUS
10
80.935
20
-44.069
11
80.935
21
-44.831
0
LINE
8
BLACK
6
CONTINUOUS
10
80.554
20
-44.45
11
81.316
21
-44.45
0
LINE
8
BLACK
6
CONTINUOUS
10
83.475
20
-21.209
11
83.475
21
-21.971
0
LINE
8
BLACK
6
CONTINUOUS
10
83.094
20
-21.59
11
83.856
21
-21.59
0
LINE
8
BLACK
6
CONTINUOUS
10
83.475
20
-23.876
11
83.475
21
-24.638
0
LINE
8
BLACK
6
CONTINUOUS
10
83.094
20
-24.257
11
83.856
21
-24.257
0
LINE
8
BLACK
6
CONTINUOUS
10
83.475
20
-26.416
11
83.475
21
-27.178
0
LINE
8
BLACK
6
CONTINUOUS
10
83.094
20
-26.797
11
83.856
21
-26.797
0
LINE
8
BLACK
6
CONTINUOUS
10
83.475
20
-39.116
11
83.475
21
-39.878
0
LINE
8
BLACK
6
CONTINUOUS
10
83.094
20
-39.497
11
83.856
21
-39.497
0
LINE
8
BLACK
6
CONTINUOUS
10
83.475
20
-41.656
11
83.475
21
-42.418
0
LINE
8
BLACK
6
CONTINUOUS
10
83.094
20
-42.037
11
83.856
21
-42.037
0
LINE
8
BLACK
6
CONTINUOUS
10
83.475
20
-44.069
11
83.475
21
-44.831
0
LINE
8
BLACK
6
CONTINUOUS
10
83.094
20
-44.45
11
83.856
21
-44.45
0
LINE
8
BLACK
6
CONTINUOUS
10
86.015
20
-21.209
11
86.015
21
-21.971
0
LINE
8
BLACK
6
CONTINUOUS
10
85.634
20
-21.59
11
86.396
21
-21.59
0
LINE
8
BLACK
6
CONTINUOUS
10
86.015
20
-23.876
11
86.015
21
-24.638
0
LINE
8
BLACK
6
CONTINUOUS
10
85.634
20
-24.257
11
86.396
21
-24.257
0
LINE
8
BLACK
6
CONTINUOUS
10
86.015
20
-26.416
11
86.015
21
-27.178
0
LINE
8
BLACK
6
CONTINUOUS
10
85.634
20
-26.797
11
86.396
21
-26.797
0
LINE
8
BLACK
6
CONTINUOUS
10
86.015
20
-39.116
11
86.015
21
-39.878
0
LINE
8
BLACK
6
CONTINUOUS
10
85.634
20
-39.497
11
86.396
21
-39.497
0
LINE
8
BLACK
6
CONTINUOUS
10
86.015
20
-41.656
11
86.015
21
-42.418
0
LINE
8
BLACK
6
CONTINUOUS
10
85.634
20
-42.037
11
86.396
21
-42.037
0
LINE
8
BLACK
6
CONTINUOUS
10
86.015
20
-44.069
11
86.015
21
-44.831
0
LINE
8
BLACK
6
CONTINUOUS
10
85.634
20
-44.45
11
86.396
21
-44.45
0
LINE
8
BLACK
6
CONTINUOUS
10
88.555
20
-21.209
11
88.555
21
-21.971
0
LINE
8
BLACK
6
CONTINUOUS
10
88.174
20
-21.59
11
88.936
21
-21.59
0
LINE
8
BLACK
6
CONTINUOUS
10
88.555
20
-23.876
11
88.555
21
-24.638
0
LINE
8
BLACK
6
CONTINUOUS
10
88.174
20
-24.257
11
88.936
21
-24.257
0
LINE
8
BLACK
6
CONTINUOUS
10
88.555
20
-26.416
11
88.555
21
-27.178
0
LINE
8
BLACK
6
CONTINUOUS
10
88.174
20
-26.797
11
88.936
21
-26.797
0
LINE
8
BLACK
6
CONTINUOUS
10
88.555
20
-39.116
11
88.555
21
-39.878
0
LINE
8
BLACK
6
CONTINUOUS
10
88.174
20
-39.497
11
88.936
21
-39.497
0
LINE
8
BLACK
6
CONTINUOUS
10
88.555
20
-41.656
11
88.555
21
-42.418
0
LINE
8
BLACK
6
CONTINUOUS
10
88.174
20
-42.037
11
88.936
21
-42.037
0
LINE
8
BLACK
6
CONTINUOUS
10
88.555
20
-44.069
11
88.555
21
-44.831
0
LINE
8
BLACK
6
CONTINUOUS
10
88.174
20
-44.45
11
88.936
21
-44.45
0
LINE
8
BLACK
6
CONTINUOUS
10
91.095
20
-21.209
11
91.095
21
-21.971
0
LINE
8
BLACK
6
CONTINUOUS
10
90.714
20
-21.59
11
91.476
21
-21.59
0
LINE
8
BLACK
6
CONTINUOUS
10
91.095
20
-23.876
11
91.095
21
-24.638
0
LINE
8
BLACK
6
CONTINUOUS
10
90.714
20
-24.257
11
91.476
21
-24.257
0
LINE
8
BLACK
6
CONTINUOUS
10
91.095
20
-26.416
11
91.095
21
-27.178
0
LINE
8
BLACK
6
CONTINUOUS
10
90.714
20
-26.797
11
91.476
21
-26.797
0
LINE
8
BLACK
6
CONTINUOUS
10
91.095
20
-39.116
11
91.095
21
-39.878
0
LINE
8
BLACK
6
CONTINUOUS
10
90.714
20
-39.497
11
91.476
21
-39.497
0
LINE
8
BLACK
6
CONTINUOUS
10
91.095
20
-41.656
11
91.095
21
-42.418
0
LINE
8
BLACK
6
CONTINUOUS
10
90.714
20
-42.037
11
91.476
21
-42.037
0
LINE
8
BLACK
6
CONTINUOUS
10
91.095
20
-44.069
11
91.095
21
-44.831
0
LINE
8
BLACK
6
CONTINUOUS
10
90.714
20
-44.45
11
91.476
21
-44.45
0
LINE
8
BLACK
6
CONTINUOUS
10
93.635
20
-21.209
11
93.635
21
-21.971
0
LINE
8
BLACK
6
CONTINUOUS
10
93.254
20
-21.59
11
94.016
21
-21.59
0
LINE
8
BLACK
6
CONTINUOUS
10
93.635
20
-23.876
11
93.635
21
-24.638
0
LINE
8
BLACK
6
CONTINUOUS
10
93.254
20
-24.257
11
94.016
21
-24.257
0
LINE
8
BLACK
6
CONTINUOUS
10
93.635
20
-26.416
11
93.635
21
-27.178
0
LINE
8
BLACK
6
CONTINUOUS
10
93.254
20
-26.797
11
94.016
21
-26.797
0
LINE
8
BLACK
6
CONTINUOUS
10
93.635
20
-39.116
11
93.635
21
-39.878
0
LINE
8
BLACK
6
CONTINUOUS
10
93.254
20
-39.497
11
94.016
21
-39.497
0
LINE
8
BLACK
6
CONTINUOUS
10
93.635
20
-41.656
11
93.635
21
-42.418
0
LINE
8
BLACK
6
CONTINUOUS
10
93.254
20
-42.037
11
94.016
21
-42.037
0
LINE
8
BLACK
6
CONTINUOUS
10
93.635
20
-44.069
11
93.635
21
-44.831
0
LINE
8
BLACK
6
CONTINUOUS
10
93.254
20
-44.45
11
94.016
21
-44.45
0
LINE
8
BLACK
6
CONTINUOUS
10
96.175
20
-21.209
11
96.175
21
-21.971
0
LINE
8
BLACK
6
CONTINUOUS
10
95.794
20
-21.59
11
96.556
21
-21.59
0
LINE
8
BLACK
6
CONTINUOUS
10
96.175
20
-23.876
11
96.175
21
-24.638
0
LINE
8
BLACK
6
CONTINUOUS
10
95.794
20
-24.257
11
96.556
21
-24.257
0
LINE
8
BLACK
6
CONTINUOUS
10
96.175
20
-26.416
11
96.175
21
-27.178
0
LINE
8
BLACK
6
CONTINUOUS
10
95.794
20
-26.797
11
96.556
21
-26.797
0
LINE
8
BLACK
6
CONTINUOUS
10
96.175
20
-39.116
11
96.175
21
-39.878
0
LINE
8
BLACK
6
CONTINUOUS
10
95.794
20
-39.497
11
96.556
21
-39.497
0
LINE
8
BLACK
6
CONTINUOUS
10
96.175
20
-41.656
11
96.175
21
-42.418
0
LINE
8
BLACK
6
CONTINUOUS
10
95.794
20
-42.037
11
96.556
21
-42.037
0
LINE
8
BLACK
6
CONTINUOUS
10
96.175
20
-44.069
11
96.175
21
-44.831
0
LINE
8
BLACK
6
CONTINUOUS
10
95.794
20
-44.45
11
96.556
21
-44.45
0
LINE
8
BLACK
6
CONTINUOUS
10
39.6528
20
-23.1428
11
39.6528
21
-22.5772
0
LINE
8
BLACK
6
CONTINUOUS
10
39.6528
20
-22.5772
11
39.0872
21
-22.5772
0
LINE
8
BLACK
6
CONTINUOUS
10
39.0872
20
-22.5772
11
39.0872
21
-23.1428
0
LINE
8
BLACK
6
CONTINUOUS
10
39.0872
20
-23.1428
11
39.6528
21
-23.1428
0
LINE
8
BLACK
6
CONTINUOUS
10
40.9228
20
-29.4928
11
40.9228
21
-28.9272
0
LINE
8
BLACK
6
CONTINUOUS
10
40.9228
20
-28.9272
11
40.3572
21
-28.9272
0
LINE
8
BLACK
6
CONTINUOUS
10
40.3572
20
-28.9272
11
40.3572
21
-29.4928
0
LINE
8
BLACK
6
CONTINUOUS
10
40.3572
20
-29.4928
11
40.9228
21
-29.4928
0
LINE
8
BLACK
6
CONTINUOUS
10
40.9228
20
-42.1928
11
40.9228
21
-41.6272
0
LINE
8
BLACK
6
CONTINUOUS
10
40.9228
20
-41.6272
11
40.3572
21
-41.6272
0
LINE
8
BLACK
6
CONTINUOUS
10
40.3572
20
-41.6272
11
40.3572
21
-42.1928
0
LINE
8
BLACK
6
CONTINUOUS
10
40.3572
20
-42.1928
11
40.9228
21
-42.1928
0
LINE
8
BLACK
6
CONTINUOUS
10
48.5428
20
-38.3828
11
48.5428
21
-37.8172
0
LINE
8
BLACK
6
CONTINUOUS
10
48.5428
20
-37.8172
11
47.9772
21
-37.8172
0
LINE
8
BLACK
6
CONTINUOUS
10
47.9772
20
-37.8172
11
47.9772
21
-38.3828
0
LINE
8
BLACK
6
CONTINUOUS
10
47.9772
20
-38.3828
11
48.5428
21
-38.3828
0
LINE
8
BLACK
6
CONTINUOUS
10
48.5428
20
-40.8828
11
48.5428
21
-40.3172
0
LINE
8
BLACK
6
CONTINUOUS
10
48.5428
20
-40.3172
11
47.9772
21
-40.3172
0
LINE
8
BLACK
6
CONTINUOUS
10
47.9772
20
-40.3172
11
47.9772
21
-40.8828
0
LINE
8
BLACK
6
CONTINUOUS
10
47.9772
20
-40.8828
11
48.5428
21
-40.8828
0
LINE
8
BLACK
6
CONTINUOUS
10
52.3528
20
-23.1428
11
52.3528
21
-22.5772
0
LINE
8
BLACK
6
CONTINUOUS
10
52.3528
20
-22.5772
11
51.7872
21
-22.5772
0
LINE
8
BLACK
6
CONTINUOUS
10
51.7872
20
-22.5772
11
51.7872
21
-23.1428
0
LINE
8
BLACK
6
CONTINUOUS
10
51.7872
20
-23.1428
11
52.3528
21
-23.1428
0
LINE
8
BLACK
6
CONTINUOUS
10
56.1628
20
-21.8728
11
56.1628
21
-21.3072
0
LINE
8
BLACK
6
CONTINUOUS
10
56.1628
20
-21.3072
11
55.5972
21
-21.3072
0
LINE
8
BLACK
6
CONTINUOUS
10
55.5972
20
-21.3072
11
55.5972
21
-21.8728
0
LINE
8
BLACK
6
CONTINUOUS
10
55.5972
20
-21.8728
11
56.1628
21
-21.8728
0
LINE
8
BLACK
6
CONTINUOUS
10
56.1628
20
-34.5728
11
56.1628
21
-34.0072
0
LINE
8
BLACK
6
CONTINUOUS
10
56.1628
20
-34.0072
11
55.5972
21
-34.0072
0
LINE
8
BLACK
6
CONTINUOUS
10
55.5972
20
-34.0072
11
55.5972
21
-34.5728
0
LINE
8
BLACK
6
CONTINUOUS
10
55.5972
20
-34.5728
11
56.1628
21
-34.5728
0
LINE
8
BLACK
6
CONTINUOUS
10
94.3028
20
-30.7628
11
94.3028
21
-30.1972
0
LINE
8
BLACK
6
CONTINUOUS
10
94.3028
20
-30.1972
11
93.7372
21
-30.1972
0
LINE
8
BLACK
6
CONTINUOUS
10
93.7372
20
-30.1972
11
93.7372
21
-30.7628
0
LINE
8
BLACK
6
CONTINUOUS
10
93.7372
20
-30.7628
11
94.3028
21
-30.7628
0
LINE
8
BLACK
6
CONTINUOUS
10
96.8028
20
-30.7628
11
96.8028
21
-30.1972
0
LINE
8
BLACK
6
CONTINUOUS
10
96.8028
20
-30.1972
11
96.2372
21
-30.1972
0
LINE
8
BLACK
6
CONTINUOUS
10
96.2372
20
-30.1972
11
96.2372
21
-30.7628
0
LINE
8
BLACK
6
CONTINUOUS
10
96.2372
20
-30.7628
11
96.8028
21
-30.7628
0
LINE
8
BLACK
6
CONTINUOUS
10
2.57619
20
-3.10476
11
2.57619
21
-1.10476
0
LINE
8
BLACK
6
CONTINUOUS
10
2.57619
20
-1.10476
11
3.05238
21
-1.10476
0
LINE
8
BLACK
6
CONTINUOUS
10
3.05238
20
-1.10476
11
3.3381
21
-1.2
0
LINE
8
BLACK
6
CONTINUOUS
10
3.3381
20
-1.2
11
3.52857
21
-1.39048
0
LINE
8
BLACK
6
CONTINUOUS
10
3.52857
20
-1.39048
11
3.62381
21
-1.58095
0
LINE
8
BLACK
6
CONTINUOUS
10
3.62381
20
-1.58095
11
3.71905
21
-1.9619
0
LINE
8
BLACK
6
CONTINUOUS
10
3.71905
20
-1.9619
11
3.71905
21
-2.24762
0
LINE
8
BLACK
6
CONTINUOUS
10
3.71905
20
-2.24762
11
3.62381
21
-2.62857
0
LINE
8
BLACK
6
CONTINUOUS
10
3.62381
20
-2.62857
11
3.52857
21
-2.81905
0
LINE
8
BLACK
6
CONTINUOUS
10
3.52857
20
-2.81905
11
3.3381
21
-3.00952
0
LINE
8
BLACK
6
CONTINUOUS
10
3.3381
20
-3.00952
11
3.05238
21
-3.10476
0
LINE
8
BLACK
6
CONTINUOUS
10
3.05238
20
-3.10476
11
2.57619
21
-3.10476
0
LINE
8
BLACK
6
CONTINUOUS
10
4.57619
20
-3.10476
11
4.57619
21
-1.77143
0
LINE
8
BLACK
6
CONTINUOUS
10
4.57619
20
-2.15238
11
4.67143
21
-1.9619
0
LINE
8
BLACK
6
CONTINUOUS
10
4.67143
20
-1.9619
11
4.76667
21
-1.86667
0
LINE
8
BLACK
6
CONTINUOUS
10
4.76667
20
-1.86667
11
4.95714
21
-1.77143
0
LINE
8
BLACK
6
CONTINUOUS
10
4.95714
20
-1.77143
11
5.14762
21
-1.77143
0
LINE
8
BLACK
6
CONTINUOUS
10
5.81428
20
-3.10476
11
5.81428
21
-1.77143
0
LINE
8
BLACK
6
CONTINUOUS
10
5.81428
20
-1.10476
11
5.71905
21
-1.2
0
LINE
8
BLACK
6
CONTINUOUS
10
5.71905
20
-1.2
11
5.81428
21
-1.29524
0
LINE
8
BLACK
6
CONTINUOUS
10
5.81428
20
-1.29524
11
5.90952
21
-1.2
0
LINE
8
BLACK
6
CONTINUOUS
10
5.90952
20
-1.2
11
5.81428
21
-1.10476
0
LINE
8
BLACK
6
CONTINUOUS
10
5.81428
20
-1.10476
11
5.81428
21
-1.29524
0
LINE
8
BLACK
6
CONTINUOUS
10
7.05238
20
-3.10476
11
6.8619
21
-3.00952
0
LINE
8
BLACK
6
CONTINUOUS
10
6.8619
20
-3.00952
11
6.76667
21
-2.81905
0
LINE
8
BLACK
6
CONTINUOUS
10
6.76667
20
-2.81905
11
6.76667
21
-1.10476
0
LINE
8
BLACK
6
CONTINUOUS
10
8.1
20
-3.10476
11
7.90952
21
-3.00952
0
LINE
8
BLACK
6
CONTINUOUS
10
7.90952
20
-3.00952
11
7.81428
21
-2.81905
0
LINE
8
BLACK
6
CONTINUOUS
10
7.81428
20
-2.81905
11
7.81428
21
-1.10476
0
LINE
8
BLACK
6
CONTINUOUS
10
10.3857
20
-3.10476
11
10.3857
21
-1.10476
0
LINE
8
BLACK
6
CONTINUOUS
10
10.3857
20
-1.10476
11
11.0524
21
-2.53333
0
LINE
8
BLACK
6
CONTINUOUS
10
11.0524
20
-2.53333
11
11.719
21
-1.10476
0
LINE
8
BLACK
6
CONTINUOUS
10
11.719
20
-1.10476
11
11.719
21
-3.10476
0
LINE
8
BLACK
6
CONTINUOUS
10
13.5286
20
-3.10476
11
13.5286
21
-2.05714
0
LINE
8
BLACK
6
CONTINUOUS
10
13.5286
20
-2.05714
11
13.4333
21
-1.86667
0
LINE
8
BLACK
6
CONTINUOUS
10
13.4333
20
-1.86667
11
13.2429
21
-1.77143
0
LINE
8
BLACK
6
CONTINUOUS
10
13.2429
20
-1.77143
11
12.8619
21
-1.77143
0
LINE
8
BLACK
6
CONTINUOUS
10
12.8619
20
-1.77143
11
12.6714
21
-1.86667
0
LINE
8
BLACK
6
CONTINUOUS
10
13.5286
20
-3.00952
11
13.3381
21
-3.10476
0
LINE
8
BLACK
6
CONTINUOUS
10
13.3381
20
-3.10476
11
12.8619
21
-3.10476
0
LINE
8
BLACK
6
CONTINUOUS
10
12.8619
20
-3.10476
11
12.6714
21
-3.00952
0
LINE
8
BLACK
6
CONTINUOUS
10
12.6714
20
-3.00952
11
12.5762
21
-2.81905
0
LINE
8
BLACK
6
CONTINUOUS
10
12.5762
20
-2.81905
11
12.5762
21
-2.62857
0
LINE
8
BLACK
6
CONTINUOUS
10
12.5762
20
-2.62857
11
12.6714
21
-2.43809
0
LINE
8
BLACK
6
CONTINUOUS
10
12.6714
20
-2.43809
11
12.8619
21
-2.34286
0
LINE
8
BLACK
6
CONTINUOUS
10
12.8619
20
-2.34286
11
13.3381
21
-2.34286
0
LINE
8
BLACK
6
CONTINUOUS
10
13.3381
20
-2.34286
11
13.5286
21
-2.24762
0
LINE
8
BLACK
6
CONTINUOUS
10
14.481
20
-1.77143
11
14.481
21
-3.77143
0
LINE
8
BLACK
6
CONTINUOUS
10
14.481
20
-1.86667
11
14.6714
21
-1.77143
0
LINE
8
BLACK
6
CONTINUOUS
10
14.6714
20
-1.77143
11
15.0524
21
-1.77143
0
LINE
8
BLACK
6
CONTINUOUS
10
15.0524
20
-1.77143
11
15.2429
21
-1.86667
0
LINE
8
BLACK
6
CONTINUOUS
10
15.2429
20
-1.86667
11
15.3381
21
-1.9619
0
LINE
8
BLACK
6
CONTINUOUS
10
15.3381
20
-1.9619
11
15.4333
21
-2.15238
0
LINE
8
BLACK
6
CONTINUOUS
10
15.4333
20
-2.15238
11
15.4333
21
-2.72381
0
LINE
8
BLACK
6
CONTINUOUS
10
15.4333
20
-2.72381
11
15.3381
21
-2.91429
0
LINE
8
BLACK
6
CONTINUOUS
10
15.3381
20
-2.91429
11
15.2429
21
-3.00952
0
LINE
8
BLACK
6
CONTINUOUS
10
15.2429
20
-3.00952
11
15.0524
21
-3.10476
0
LINE
8
BLACK
6
CONTINUOUS
10
15.0524
20
-3.10476
11
14.6714
21
-3.10476
0
LINE
8
BLACK
6
CONTINUOUS
10
14.6714
20
-3.10476
11
14.481
21
-3.00952
0
LINE
8
BLACK
6
CONTINUOUS
10
16.2905
20
-2.91429
11
16.3857
21
-3.00952
0
LINE
8
BLACK
6
CONTINUOUS
10
16.3857
20
-3.00952
11
16.2905
21
-3.10476
0
LINE
8
BLACK
6
CONTINUOUS
10
16.2905
20
-3.10476
11
16.1952
21
-3.00952
0
LINE
8
BLACK
6
CONTINUOUS
10
16.1952
20
-3.00952
11
16.2905
21
-2.91429
0
LINE
8
BLACK
6
CONTINUOUS
10
16.2905
20
-2.91429
11
16.2905
21
-3.10476
0
LINE
8
BLACK
6
CONTINUOUS
10
16.2905
20
-1.86667
11
16.3857
21
-1.9619
0
LINE
8
BLACK
6
CONTINUOUS
10
16.3857
20
-1.9619
11
16.2905
21
-2.05714
0
LINE
8
BLACK
6
CONTINUOUS
10
16.2905
20
-2.05714
11
16.1952
21
-1.9619
0
LINE
8
BLACK
6
CONTINUOUS
10
16.1952
20
-1.9619
11
16.2905
21
-1.86667
0
LINE
8
BLACK
6
CONTINUOUS
10
16.2905
20
-1.86667
11
16.2905
21
-2.05714
0
LINE
8
BLACK
6
CONTINUOUS
10
-0.75
20
-6.025
11
0
21
-6.775
0
LINE
8
BLACK
6
CONTINUOUS
10
0
20
-6.025
11
-0.75
21
-6.775
0
LINE
8
BLACK
6
CONTINUOUS
10
2.95714
20
-5.30476
11
3.14762
21
-5.30476
0
LINE
8
BLACK
6
CONTINUOUS
10
3.14762
20
-5.30476
11
3.3381
21
-5.4
0
LINE
8
BLACK
6
CONTINUOUS
10
3.3381
20
-5.4
11
3.43333
21
-5.49524
0
LINE
8
BLACK
6
CONTINUOUS
10
3.43333
20
-5.49524
11
3.52857
21
-5.68571
0
LINE
8
BLACK
6
CONTINUOUS
10
3.52857
20
-5.68571
11
3.62381
21
-6.06667
0
LINE
8
BLACK
6
CONTINUOUS
10
3.62381
20
-6.06667
11
3.62381
21
-6.54286
0
LINE
8
BLACK
6
CONTINUOUS
10
3.62381
20
-6.54286
11
3.52857
21
-6.92381
0
LINE
8
BLACK
6
CONTINUOUS
10
3.52857
20
-6.92381
11
3.43333
21
-7.11428
0
LINE
8
BLACK
6
CONTINUOUS
10
3.43333
20
-7.11428
11
3.3381
21
-7.20952
0
LINE
8
BLACK
6
CONTINUOUS
10
3.3381
20
-7.20952
11
3.14762
21
-7.30476
0
LINE
8
BLACK
6
CONTINUOUS
10
3.14762
20
-7.30476
11
2.95714
21
-7.30476
0
LINE
8
BLACK
6
CONTINUOUS
10
2.95714
20
-7.30476
11
2.76667
21
-7.20952
0
LINE
8
BLACK
6
CONTINUOUS
10
2.76667
20
-7.20952
11
2.67143
21
-7.11428
0
LINE
8
BLACK
6
CONTINUOUS
10
2.67143
20
-7.11428
11
2.57619
21
-6.92381
0
LINE
8
BLACK
6
CONTINUOUS
10
2.57619
20
-6.92381
11
2.48095
21
-6.54286
0
LINE
8
BLACK
6
CONTINUOUS
10
2.48095
20
-6.54286
11
2.48095
21
-6.06667
0
LINE
8
BLACK
6
CONTINUOUS
10
2.48095
20
-6.06667
11
2.57619
21
-5.68571
0
LINE
8
BLACK
6
CONTINUOUS
10
2.57619
20
-5.68571
11
2.67143
21
-5.49524
0
LINE
8
BLACK
6
CONTINUOUS
10
2.67143
20
-5.49524
11
2.76667
21
-5.4
0
LINE
8
BLACK
6
CONTINUOUS
10
2.76667
20
-5.4
11
2.95714
21
-5.30476
0
LINE
8
BLACK
6
CONTINUOUS
10
4.48095
20
-7.11428
11
4.57619
21
-7.20952
0
LINE
8
BLACK
6
CONTINUOUS
10
4.57619
20
-7.20952
11
4.48095
21
-7.30476
0
LINE
8
BLACK
6
CONTINUOUS
10
4.48095
20
-7.30476
11
4.38571
21
-7.20952
0
LINE
8
BLACK
6
CONTINUOUS
10
4.38571
20
-7.20952
11
4.48095
21
-7.11428
0
LINE
8
BLACK
6
CONTINUOUS
10
4.48095
20
-7.11428
11
4.48095
21
-7.30476
0
LINE
8
BLACK
6
CONTINUOUS
10
5.24286
20
-5.30476
11
6.57619
21
-5.30476
0
LINE
8
BLACK
6
CONTINUOUS
10
6.57619
20
-5.30476
11
5.71905
21
-7.30476
0
LINE
8
BLACK
6
CONTINUOUS
10
8.29048
20
-5.30476
11
7.3381
21
-5.30476
0
LINE
8
BLACK
6
CONTINUOUS
10
7.3381
20
-5.30476
11
7.24286
21
-6.25714
0
LINE
8
BLACK
6
CONTINUOUS
10
7.24286
20
-6.25714
11
7.3381
21
-6.1619
0
LINE
8
BLACK
6
CONTINUOUS
10
7.3381
20
-6.1619
11
7.52857
21
-6.06667
0
LINE
8
BLACK
6
CONTINUOUS
10
7.52857
20
-6.06667
11
8.00476
21
-6.06667
0
LINE
8
BLACK
6
CONTINUOUS
10
8.00476
20
-6.06667
11
8.19524
21
-6.1619
0
LINE
8
BLACK
6
CONTINUOUS
10
8.19524
20
-6.1619
11
8.29048
21
-6.25714
0
LINE
8
BLACK
6
CONTINUOUS
10
8.29048
20
-6.25714
11
8.38571
21
-6.44762
0
LINE
8
BLACK
6
CONTINUOUS
10
8.38571
20
-6.44762
11
8.38571
21
-6.92381
0
LINE
8
BLACK
6
CONTINUOUS
10
8.38571
20
-6.92381
11
8.29048
21
-7.11428
0
LINE
8
BLACK
6
CONTINUOUS
10
8.29048
20
-7.11428
11
8.19524
21
-7.20952
0
LINE
8
BLACK
6
CONTINUOUS
10
8.19524
20
-7.20952
11
8.00476
21
-7.30476
0
LINE
8
BLACK
6
CONTINUOUS
10
8.00476
20
-7.30476
11
7.52857
21
-7.30476
0
LINE
8
BLACK
6
CONTINUOUS
10
7.52857
20
-7.30476
11
7.3381
21
-7.20952
0
LINE
8
BLACK
6
CONTINUOUS
10
7.3381
20
-7.20952
11
7.24286
21
-7.11428
0
LINE
8
BLACK
6
CONTINUOUS
10
9.62381
20
-5.30476
11
9.81428
21
-5.30476
0
LINE
8
BLACK
6
CONTINUOUS
10
9.81428
20
-5.30476
11
10.0048
21
-5.4
0
LINE
8
BLACK
6
CONTINUOUS
10
10.0048
20
-5.4
11
10.1
21
-5.49524
0
LINE
8
BLACK
6
CONTINUOUS
10
10.1
20
-5.49524
11
10.1952
21
-5.68571
0
LINE
8
BLACK
6
CONTINUOUS
10
10.1952
20
-5.68571
11
10.2905
21
-6.06667
0
LINE
8
BLACK
6
CONTINUOUS
10
10.2905
20
-6.06667
11
10.2905
21
-6.54286
0
LINE
8
BLACK
6
CONTINUOUS
10
10.2905
20
-6.54286
11
10.1952
21
-6.92381
0
LINE
8
BLACK
6
CONTINUOUS
10
10.1952
20
-6.92381
11
10.1
21
-7.11428
0
LINE
8
BLACK
6
CONTINUOUS
10
10.1
20
-7.11428
11
10.0048
21
-7.20952
0
LINE
8
BLACK
6
CONTINUOUS
10
10.0048
20
-7.20952
11
9.81428
21
-7.30476
0
LINE
8
BLACK
6
CONTINUOUS
10
9.81428
20
-7.30476
11
9.62381
21
-7.30476
0
LINE
8
BLACK
6
CONTINUOUS
10
9.62381
20
-7.30476
11
9.43333
21
-7.20952
0
LINE
8
BLACK
6
CONTINUOUS
10
9.43333
20
-7.20952
11
9.33809
21
-7.11428
0
LINE
8
BLACK
6
CONTINUOUS
10
9.33809
20
-7.11428
11
9.24286
21
-6.92381
0
LINE
8
BLACK
6
CONTINUOUS
10
9.24286
20
-6.92381
11
9.14762
21
-6.54286
0
LINE
8
BLACK
6
CONTINUOUS
10
9.14762
20
-6.54286
11
9.14762
21
-6.06667
0
LINE
8
BLACK
6
CONTINUOUS
10
9.14762
20
-6.06667
11
9.24286
21
-5.68571
0
LINE
8
BLACK
6
CONTINUOUS
10
9.24286
20
-5.68571
11
9.33809
21
-5.49524
0
LINE
8
BLACK
6
CONTINUOUS
10
9.33809
20
-5.49524
11
9.43333
21
-5.4
0
LINE
8
BLACK
6
CONTINUOUS
10
9.43333
20
-5.4
11
9.62381
21
-5.30476
0
LINE
8
BLACK
6
CONTINUOUS
10
11.1476
20
-7.30476
11
11.1476
21
-5.97143
0
LINE
8
BLACK
6
CONTINUOUS
10
11.1476
20
-6.1619
11
11.2429
21
-6.06667
0
LINE
8
BLACK
6
CONTINUOUS
10
11.2429
20
-6.06667
11
11.4333
21
-5.97143
0
LINE
8
BLACK
6
CONTINUOUS
10
11.4333
20
-5.97143
11
11.719
21
-5.97143
0
LINE
8
BLACK
6
CONTINUOUS
10
11.719
20
-5.97143
11
11.9095
21
-6.06667
0
LINE
8
BLACK
6
CONTINUOUS
10
11.9095
20
-6.06667
11
12.0048
21
-6.25714
0
LINE
8
BLACK
6
CONTINUOUS
10
12.0048
20
-6.25714
11
12.0048
21
-7.30476
0
LINE
8
BLACK
6
CONTINUOUS
10
12.0048
20
-6.25714
11
12.1
21
-6.06667
0
LINE
8
BLACK
6
CONTINUOUS
10
12.1
20
-6.06667
11
12.2905
21
-5.97143
0
LINE
8
BLACK
6
CONTINUOUS
10
12.2905
20
-5.97143
11
12.5762
21
-5.97143
0
LINE
8
BLACK
6
CONTINUOUS
10
12.5762
20
-5.97143
11
12.7667
21
-6.06667
0
LINE
8
BLACK
6
CONTINUOUS
10
12.7667
20
-6.06667
11
12.8619
21
-6.25714
0
LINE
8
BLACK
6
CONTINUOUS
10
12.8619
20
-6.25714
11
12.8619
21
-7.30476
0
LINE
8
BLACK
6
CONTINUOUS
10
13.8143
20
-7.30476
11
13.8143
21
-5.97143
0
LINE
8
BLACK
6
CONTINUOUS
10
13.8143
20
-6.1619
11
13.9095
21
-6.06667
0
LINE
8
BLACK
6
CONTINUOUS
10
13.9095
20
-6.06667
11
14.1
21
-5.97143
0
LINE
8
BLACK
6
CONTINUOUS
10
14.1
20
-5.97143
11
14.3857
21
-5.97143
0
LINE
8
BLACK
6
CONTINUOUS
10
14.3857
20
-5.97143
11
14.5762
21
-6.06667
0
LINE
8
BLACK
6
CONTINUOUS
10
14.5762
20
-6.06667
11
14.6714
21
-6.25714
0
LINE
8
BLACK
6
CONTINUOUS
10
14.6714
20
-6.25714
11
14.6714
21
-7.30476
0
LINE
8
BLACK
6
CONTINUOUS
10
14.6714
20
-6.25714
11
14.7667
21
-6.06667
0
LINE
8
BLACK
6
CONTINUOUS
10
14.7667
20
-6.06667
11
14.9571
21
-5.97143
0
LINE
8
BLACK
6
CONTINUOUS
10
14.9571
20
-5.97143
11
15.2429
21
-5.97143
0
LINE
8
BLACK
6
CONTINUOUS
10
15.2429
20
-5.97143
11
15.4333
21
-6.06667
0
LINE
8
BLACK
6
CONTINUOUS
10
15.4333
20
-6.06667
11
15.5286
21
-6.25714
0
LINE
8
BLACK
6
CONTINUOUS
10
15.5286
20
-6.25714
11
15.5286
21
-7.30476
0
LINE
8
BLACK
6
CONTINUOUS
10
19.4333
20
-5.20952
11
17.719
21
-7.78095
0
LINE
8
BLACK
6
CONTINUOUS
10
22.0048
20
-5.30476
11
22.1952
21
-5.30476
0
LINE
8
BLACK
6
CONTINUOUS
10
22.1952
20
-5.30476
11
22.3857
21
-5.4
0
LINE
8
BLACK
6
CONTINUOUS
10
22.3857
20
-5.4
11
22.481
21
-5.49524
0
LINE
8
BLACK
6
CONTINUOUS
10
22.481
20
-5.49524
11
22.5762
21
-5.68571
0
LINE
8
BLACK
6
CONTINUOUS
10
22.5762
20
-5.68571
11
22.6714
21
-6.06667
0
LINE
8
BLACK
6
CONTINUOUS
10
22.6714
20
-6.06667
11
22.6714
21
-6.54286
0
LINE
8
BLACK
6
CONTINUOUS
10
22.6714
20
-6.54286
11
22.5762
21
-6.92381
0
LINE
8
BLACK
6
CONTINUOUS
10
22.5762
20
-6.92381
11
22.481
21
-7.11428
0
LINE
8
BLACK
6
CONTINUOUS
10
22.481
20
-7.11428
11
22.3857
21
-7.20952
0
LINE
8
BLACK
6
CONTINUOUS
10
22.3857
20
-7.20952
11
22.1952
21
-7.30476
0
LINE
8
BLACK
6
CONTINUOUS
10
22.1952
20
-7.30476
11
22.0048
21
-7.30476
0
LINE
8
BLACK
6
CONTINUOUS
10
22.0048
20
-7.30476
11
21.8143
21
-7.20952
0
LINE
8
BLACK
6
CONTINUOUS
10
21.8143
20
-7.20952
11
21.719
21
-7.11428
0
LINE
8
BLACK
6
CONTINUOUS
10
21.719
20
-7.11428
11
21.6238
21
-6.92381
0
LINE
8
BLACK
6
CONTINUOUS
10
21.6238
20
-6.92381
11
21.5286
21
-6.54286
0
LINE
8
BLACK
6
CONTINUOUS
10
21.5286
20
-6.54286
11
21.5286
21
-6.06667
0
LINE
8
BLACK
6
CONTINUOUS
10
21.5286
20
-6.06667
11
21.6238
21
-5.68571
0
LINE
8
BLACK
6
CONTINUOUS
10
21.6238
20
-5.68571
11
21.719
21
-5.49524
0
LINE
8
BLACK
6
CONTINUOUS
10
21.719
20
-5.49524
11
21.8143
21
-5.4
0
LINE
8
BLACK
6
CONTINUOUS
10
21.8143
20
-5.4
11
22.0048
21
-5.30476
0
LINE
8
BLACK
6
CONTINUOUS
10
23.5286
20
-7.11428
11
23.6238
21
-7.20952
0
LINE
8
BLACK
6
CONTINUOUS
10
23.6238
20
-7.20952
11
23.5286
21
-7.30476
0
LINE
8
BLACK
6
CONTINUOUS
10
23.5286
20
-7.30476
11
23.4333
21
-7.20952
0
LINE
8
BLACK
6
CONTINUOUS
10
23.4333
20
-7.20952
11
23.5286
21
-7.11428
0
LINE
8
BLACK
6
CONTINUOUS
10
23.5286
20
-7.11428
11
23.5286
21
-7.30476
0
LINE
8
BLACK
6
CONTINUOUS
10
24.8619
20
-5.30476
11
25.0524
21
-5.30476
0
LINE
8
BLACK
6
CONTINUOUS
10
25.0524
20
-5.30476
11
25.2429
21
-5.4
0
LINE
8
BLACK
6
CONTINUOUS
10
25.2429
20
-5.4
11
25.3381
21
-5.49524
0
LINE
8
BLACK
6
CONTINUOUS
10
25.3381
20
-5.49524
11
25.4333
21
-5.68571
0
LINE
8
BLACK
6
CONTINUOUS
10
25.4333
20
-5.68571
11
25.5286
21
-6.06667
0
LINE
8
BLACK
6
CONTINUOUS
10
25.5286
20
-6.06667
11
25.5286
21
-6.54286
0
LINE
8
BLACK
6
CONTINUOUS
10
25.5286
20
-6.54286
11
25.4333
21
-6.92381
0
LINE
8
BLACK
6
CONTINUOUS
10
25.4333
20
-6.92381
11
25.3381
21
-7.11428
0
LINE
8
BLACK
6
CONTINUOUS
10
25.3381
20
-7.11428
11
25.2429
21
-7.20952
0
LINE
8
BLACK
6
CONTINUOUS
10
25.2429
20
-7.20952
11
25.0524
21
-7.30476
0
LINE
8
BLACK
6
CONTINUOUS
10
25.0524
20
-7.30476
11
24.8619
21
-7.30476
0
LINE
8
BLACK
6
CONTINUOUS
10
24.8619
20
-7.30476
11
24.6714
21
-7.20952
0
LINE
8
BLACK
6
CONTINUOUS
10
24.6714
20
-7.20952
11
24.5762
21
-7.11428
0
LINE
8
BLACK
6
CONTINUOUS
10
24.5762
20
-7.11428
11
24.481
21
-6.92381
0
LINE
8
BLACK
6
CONTINUOUS
10
24.481
20
-6.92381
11
24.3857
21
-6.54286
0
LINE
8
BLACK
6
CONTINUOUS
10
24.3857
20
-6.54286
11
24.3857
21
-6.06667
0
LINE
8
BLACK
6
CONTINUOUS
10
24.3857
20
-6.06667
11
24.481
21
-5.68571
0
LINE
8
BLACK
6
CONTINUOUS
10
24.481
20
-5.68571
11
24.5762
21
-5.49524
0
LINE
8
BLACK
6
CONTINUOUS
10
24.5762
20
-5.49524
11
24.6714
21
-5.4
0
LINE
8
BLACK
6
CONTINUOUS
10
24.6714
20
-5.4
11
24.8619
21
-5.30476
0
LINE
8
BLACK
6
CONTINUOUS
10
26.2905
20
-5.49524
11
26.3857
21
-5.4
0
LINE
8
BLACK
6
CONTINUOUS
10
26.3857
20
-5.4
11
26.5762
21
-5.30476
0
LINE
8
BLACK
6
CONTINUOUS
10
26.5762
20
-5.30476
11
27.0524
21
-5.30476
0
LINE
8
BLACK
6
CONTINUOUS
10
27.0524
20
-5.30476
11
27.2429
21
-5.4
0
LINE
8
BLACK
6
CONTINUOUS
10
27.2429
20
-5.4
11
27.3381
21
-5.49524
0
LINE
8
BLACK
6
CONTINUOUS
10
27.3381
20
-5.49524
11
27.4333
21
-5.68571
0
LINE
8
BLACK
6
CONTINUOUS
10
27.4333
20
-5.68571
11
27.4333
21
-5.87619
0
LINE
8
BLACK
6
CONTINUOUS
10
27.4333
20
-5.87619
11
27.3381
21
-6.1619
0
LINE
8
BLACK
6
CONTINUOUS
10
27.3381
20
-6.1619
11
26.1952
21
-7.30476
0
LINE
8
BLACK
6
CONTINUOUS
10
26.1952
20
-7.30476
11
27.4333
21
-7.30476
0
LINE
8
BLACK
6
CONTINUOUS
10
28.3857
20
-7.30476
11
28.7667
21
-7.30476
0
LINE
8
BLACK
6
CONTINUOUS
10
28.7667
20
-7.30476
11
28.9571
21
-7.20952
0
LINE
8
BLACK
6
CONTINUOUS
10
28.9571
20
-7.20952
11
29.0524
21
-7.11428
0
LINE
8
BLACK
6
CONTINUOUS
10
29.0524
20
-7.11428
11
29.2429
21
-6.82857
0
LINE
8
BLACK
6
CONTINUOUS
10
29.2429
20
-6.82857
11
29.3381
21
-6.44762
0
LINE
8
BLACK
6
CONTINUOUS
10
29.3381
20
-6.44762
11
29.3381
21
-5.68571
0
LINE
8
BLACK
6
CONTINUOUS
10
29.3381
20
-5.68571
11
29.2429
21
-5.49524
0
LINE
8
BLACK
6
CONTINUOUS
10
29.2429
20
-5.49524
11
29.1476
21
-5.4
0
LINE
8
BLACK
6
CONTINUOUS
10
29.1476
20
-5.4
11
28.9571
21
-5.30476
0
LINE
8
BLACK
6
CONTINUOUS
10
28.9571
20
-5.30476
11
28.5762
21
-5.30476
0
LINE
8
BLACK
6
CONTINUOUS
10
28.5762
20
-5.30476
11
28.3857
21
-5.4
0
LINE
8
BLACK
6
CONTINUOUS
10
28.3857
20
-5.4
11
28.2905
21
-5.49524
0
LINE
8
BLACK
6
CONTINUOUS
10
28.2905
20
-5.49524
11
28.1952
21
-5.68571
0
LINE
8
BLACK
6
CONTINUOUS
10
28.1952
20
-5.68571
11
28.1952
21
-6.1619
0
LINE
8
BLACK
6
CONTINUOUS
10
28.1952
20
-6.1619
11
28.2905
21
-6.35238
0
LINE
8
BLACK
6
CONTINUOUS
10
28.2905
20
-6.35238
11
28.3857
21
-6.44762
0
LINE
8
BLACK
6
CONTINUOUS
10
28.3857
20
-6.44762
11
28.5762
21
-6.54286
0
LINE
8
BLACK
6
CONTINUOUS
10
28.5762
20
-6.54286
11
28.9571
21
-6.54286
0
LINE
8
BLACK
6
CONTINUOUS
10
28.9571
20
-6.54286
11
29.1476
21
-6.44762
0
LINE
8
BLACK
6
CONTINUOUS
10
29.1476
20
-6.44762
11
29.2429
21
-6.35238
0
LINE
8
BLACK
6
CONTINUOUS
10
29.2429
20
-6.35238
11
29.3381
21
-6.1619
0
LINE
8
BLACK
6
CONTINUOUS
10
31.1476
20
-5.30476
11
30.1952
21
-5.30476
0
LINE
8
BLACK
6
CONTINUOUS
10
30.1952
20
-5.30476
11
30.1
21
-6.25714
0
LINE
8
BLACK
6
CONTINUOUS
10
30.1
20
-6.25714
11
30.1952
21
-6.1619
0
LINE
8
BLACK
6
CONTINUOUS
10
30.1952
20
-6.1619
11
30.3857
21
-6.06667
0
LINE
8
BLACK
6
CONTINUOUS
10
30.3857
20
-6.06667
11
30.8619
21
-6.06667
0
LINE
8
BLACK
6
CONTINUOUS
10
30.8619
20
-6.06667
11
31.0524
21
-6.1619
0
LINE
8
BLACK
6
CONTINUOUS
10
31.0524
20
-6.1619
11
31.1476
21
-6.25714
0
LINE
8
BLACK
6
CONTINUOUS
10
31.1476
20
-6.25714
11
31.2429
21
-6.44762
0
LINE
8
BLACK
6
CONTINUOUS
10
31.2429
20
-6.44762
11
31.2429
21
-6.92381
0
LINE
8
BLACK
6
CONTINUOUS
10
31.2429
20
-6.92381
11
31.1476
21
-7.11428
0
LINE
8
BLACK
6
CONTINUOUS
10
31.1476
20
-7.11428
11
31.0524
21
-7.20952
0
LINE
8
BLACK
6
CONTINUOUS
10
31.0524
20
-7.20952
11
30.8619
21
-7.30476
0
LINE
8
BLACK
6
CONTINUOUS
10
30.8619
20
-7.30476
11
30.3857
21
-7.30476
0
LINE
8
BLACK
6
CONTINUOUS
10
30.3857
20
-7.30476
11
30.1952
21
-7.20952
0
LINE
8
BLACK
6
CONTINUOUS
10
30.1952
20
-7.20952
11
30.1
21
-7.11428
0
LINE
8
BLACK
6
CONTINUOUS
10
32.0048
20
-5.30476
11
32.0048
21
-5.68571
0
LINE
8
BLACK
6
CONTINUOUS
10
32.7667
20
-5.30476
11
32.7667
21
-5.68571
0
LINE
8
BLACK
6
CONTINUOUS
10
35.719
20
-8.06667
11
35.6238
21
-7.97143
0
LINE
8
BLACK
6
CONTINUOUS
10
35.6238
20
-7.97143
11
35.4333
21
-7.68571
0
LINE
8
BLACK
6
CONTINUOUS
10
35.4333
20
-7.68571
11
35.3381
21
-7.49524
0
LINE
8
BLACK
6
CONTINUOUS
10
35.3381
20
-7.49524
11
35.2429
21
-7.20952
0
LINE
8
BLACK
6
CONTINUOUS
10
35.2429
20
-7.20952
11
35.1476
21
-6.73333
0
LINE
8
BLACK
6
CONTINUOUS
10
35.1476
20
-6.73333
11
35.1476
21
-6.35238
0
LINE
8
BLACK
6
CONTINUOUS
10
35.1476
20
-6.35238
11
35.2429
21
-5.87619
0
LINE
8
BLACK
6
CONTINUOUS
10
35.2429
20
-5.87619
11
35.3381
21
-5.59048
0
LINE
8
BLACK
6
CONTINUOUS
10
35.3381
20
-5.59048
11
35.4333
21
-5.4
0
LINE
8
BLACK
6
CONTINUOUS
10
35.4333
20
-5.4
11
35.6238
21
-5.11428
0
LINE
8
BLACK
6
CONTINUOUS
10
35.6238
20
-5.11428
11
35.719
21
-5.01905
0
LINE
8
BLACK
6
CONTINUOUS
10
36.2905
20
-5.30476
11
37.5286
21
-5.30476
0
LINE
8
BLACK
6
CONTINUOUS
10
37.5286
20
-5.30476
11
36.8619
21
-6.06667
0
LINE
8
BLACK
6
CONTINUOUS
10
36.8619
20
-6.06667
11
37.1476
21
-6.06667
0
LINE
8
BLACK
6
CONTINUOUS
10
37.1476
20
-6.06667
11
37.3381
21
-6.1619
0
LINE
8
BLACK
6
CONTINUOUS
10
37.3381
20
-6.1619
11
37.4333
21
-6.25714
0
LINE
8
BLACK
6
CONTINUOUS
10
37.4333
20
-6.25714
11
37.5286
21
-6.44762
0
LINE
8
BLACK
6
CONTINUOUS
10
37.5286
20
-6.44762
11
37.5286
21
-6.92381
0
LINE
8
BLACK
6
CONTINUOUS
10
37.5286
20
-6.92381
11
37.4333
21
-7.11428
0
LINE
8
BLACK
6
CONTINUOUS
10
37.4333
20
-7.11428
11
37.3381
21
-7.20952
0
LINE
8
BLACK
6
CONTINUOUS
10
37.3381
20
-7.20952
11
37.1476
21
-7.30476
0
LINE
8
BLACK
6
CONTINUOUS
10
37.1476
20
-7.30476
11
36.5762
21
-7.30476
0
LINE
8
BLACK
6
CONTINUOUS
10
36.5762
20
-7.30476
11
36.3857
21
-7.20952
0
LINE
8
BLACK
6
CONTINUOUS
10
36.3857
20
-7.20952
11
36.2905
21
-7.11428
0
LINE
8
BLACK
6
CONTINUOUS
10
39.9095
20
-7.30476
11
39.9095
21
-5.30476
0
LINE
8
BLACK
6
CONTINUOUS
10
40.7667
20
-7.30476
11
40.7667
21
-6.25714
0
LINE
8
BLACK
6
CONTINUOUS
10
40.7667
20
-6.25714
11
40.6714
21
-6.06667
0
LINE
8
BLACK
6
CONTINUOUS
10
40.6714
20
-6.06667
11
40.481
21
-5.97143
0
LINE
8
BLACK
6
CONTINUOUS
10
40.481
20
-5.97143
11
40.1952
21
-5.97143
0
LINE
8
BLACK
6
CONTINUOUS
10
40.1952
20
-5.97143
11
40.0048
21
-6.06667
0
LINE
8
BLACK
6
CONTINUOUS
10
40.0048
20
-6.06667
11
39.9095
21
-6.1619
0
LINE
8
BLACK
6
CONTINUOUS
10
42.0048
20
-7.30476
11
41.8143
21
-7.20952
0
LINE
8
BLACK
6
CONTINUOUS
10
41.8143
20
-7.20952
11
41.719
21
-7.11428
0
LINE
8
BLACK
6
CONTINUOUS
10
41.719
20
-7.11428
11
41.6238
21
-6.92381
0
LINE
8
BLACK
6
CONTINUOUS
10
41.6238
20
-6.92381
11
41.6238
21
-6.35238
0
LINE
8
BLACK
6
CONTINUOUS
10
41.6238
20
-6.35238
11
41.719
21
-6.1619
0
LINE
8
BLACK
6
CONTINUOUS
10
41.719
20
-6.1619
11
41.8143
21
-6.06667
0
LINE
8
BLACK
6
CONTINUOUS
10
41.8143
20
-6.06667
11
42.0048
21
-5.97143
0
LINE
8
BLACK
6
CONTINUOUS
10
42.0048
20
-5.97143
11
42.2905
21
-5.97143
0
LINE
8
BLACK
6
CONTINUOUS
10
42.2905
20
-5.97143
11
42.481
21
-6.06667
0
LINE
8
BLACK
6
CONTINUOUS
10
42.481
20
-6.06667
11
42.5762
21
-6.1619
0
LINE
8
BLACK
6
CONTINUOUS
10
42.5762
20
-6.1619
11
42.6714
21
-6.35238
0
LINE
8
BLACK
6
CONTINUOUS
10
42.6714
20
-6.35238
11
42.6714
21
-6.92381
0
LINE
8
BLACK
6
CONTINUOUS
10
42.6714
20
-6.92381
11
42.5762
21
-7.11428
0
LINE
8
BLACK
6
CONTINUOUS
10
42.5762
20
-7.11428
11
42.481
21
-7.20952
0
LINE
8
BLACK
6
CONTINUOUS
10
42.481
20
-7.20952
11
42.2905
21
-7.30476
0
LINE
8
BLACK
6
CONTINUOUS
10
42.2905
20
-7.30476
11
42.0048
21
-7.30476
0
LINE
8
BLACK
6
CONTINUOUS
10
43.8143
20
-7.30476
11
43.6238
21
-7.20952
0
LINE
8
BLACK
6
CONTINUOUS
10
43.6238
20
-7.20952
11
43.5286
21
-7.01905
0
LINE
8
BLACK
6
CONTINUOUS
10
43.5286
20
-7.01905
11
43.5286
21
-5.30476
0
LINE
8
BLACK
6
CONTINUOUS
10
45.3381
20
-7.20952
11
45.1476
21
-7.30476
0
LINE
8
BLACK
6
CONTINUOUS
10
45.1476
20
-7.30476
11
44.7667
21
-7.30476
0
LINE
8
BLACK
6
CONTINUOUS
10
44.7667
20
-7.30476
11
44.5762
21
-7.20952
0
LINE
8
BLACK
6
CONTINUOUS
10
44.5762
20
-7.20952
11
44.481
21
-7.01905
0
LINE
8
BLACK
6
CONTINUOUS
10
44.481
20
-7.01905
11
44.481
21
-6.25714
0
LINE
8
BLACK
6
CONTINUOUS
10
44.481
20
-6.25714
11
44.5762
21
-6.06667
0
LINE
8
BLACK
6
CONTINUOUS
10
44.5762
20
-6.06667
11
44.7667
21
-5.97143
0
LINE
8
BLACK
6
CONTINUOUS
10
44.7667
20
-5.97143
11
45.1476
21
-5.97143
0
LINE
8
BLACK
6
CONTINUOUS
10
45.1476
20
-5.97143
11
45.3381
21
-6.06667
0
LINE
8
BLACK
6
CONTINUOUS
10
45.3381
20
-6.06667
11
45.4333
21
-6.25714
0
LINE
8
BLACK
6
CONTINUOUS
10
45.4333
20
-6.25714
11
45.4333
21
-6.44762
0
LINE
8
BLACK
6
CONTINUOUS
10
45.4333
20
-6.44762
11
44.481
21
-6.63809
0
LINE
8
BLACK
6
CONTINUOUS
10
46.1952
20
-7.20952
11
46.3857
21
-7.30476
0
LINE
8
BLACK
6
CONTINUOUS
10
46.3857
20
-7.30476
11
46.7667
21
-7.30476
0
LINE
8
BLACK
6
CONTINUOUS
10
46.7667
20
-7.30476
11
46.9571
21
-7.20952
0
LINE
8
BLACK
6
CONTINUOUS
10
46.9571
20
-7.20952
11
47.0524
21
-7.01905
0
LINE
8
BLACK
6
CONTINUOUS
10
47.0524
20
-7.01905
11
47.0524
21
-6.92381
0
LINE
8
BLACK
6
CONTINUOUS
10
47.0524
20
-6.92381
11
46.9571
21
-6.73333
0
LINE
8
BLACK
6
CONTINUOUS
10
46.9571
20
-6.73333
11
46.7667
21
-6.63809
0
LINE
8
BLACK
6
CONTINUOUS
10
46.7667
20
-6.63809
11
46.481
21
-6.63809
0
LINE
8
BLACK
6
CONTINUOUS
10
46.481
20
-6.63809
11
46.2905
21
-6.54286
0
LINE
8
BLACK
6
CONTINUOUS
10
46.2905
20
-6.54286
11
46.1952
21
-6.35238
0
LINE
8
BLACK
6
CONTINUOUS
10
46.1952
20
-6.35238
11
46.1952
21
-6.25714
0
LINE
8
BLACK
6
CONTINUOUS
10
46.1952
20
-6.25714
11
46.2905
21
-6.06667
0
LINE
8
BLACK
6
CONTINUOUS
10
46.2905
20
-6.06667
11
46.481
21
-5.97143
0
LINE
8
BLACK
6
CONTINUOUS
10
46.481
20
-5.97143
11
46.7667
21
-5.97143
0
LINE
8
BLACK
6
CONTINUOUS
10
46.7667
20
-5.97143
11
46.9571
21
-6.06667
0
LINE
8
BLACK
6
CONTINUOUS
10
47.719
20
-8.06667
11
47.8143
21
-7.97143
0
LINE
8
BLACK
6
CONTINUOUS
10
47.8143
20
-7.97143
11
48.0048
21
-7.68571
0
LINE
8
BLACK
6
CONTINUOUS
10
48.0048
20
-7.68571
11
48.1
21
-7.49524
0
LINE
8
BLACK
6
CONTINUOUS
10
48.1
20
-7.49524
11
48.1952
21
-7.20952
0
LINE
8
BLACK
6
CONTINUOUS
10
48.1952
20
-7.20952
11
48.2905
21
-6.73333
0
LINE
8
BLACK
6
CONTINUOUS
10
48.2905
20
-6.73333
11
48.2905
21
-6.35238
0
LINE
8
BLACK
6
CONTINUOUS
10
48.2905
20
-6.35238
11
48.1952
21
-5.87619
0
LINE
8
BLACK
6
CONTINUOUS
10
48.1952
20
-5.87619
11
48.1
21
-5.59048
0
LINE
8
BLACK
6
CONTINUOUS
10
48.1
20
-5.59048
11
48.0048
21
-5.4
0
LINE
8
BLACK
6
CONTINUOUS
10
48.0048
20
-5.4
11
47.8143
21
-5.11428
0
LINE
8
BLACK
6
CONTINUOUS
10
47.8143
20
-5.11428
11
47.719
21
-5.01905
0
CIRCLE
8
BLACK
10
-0.38
20
-9.04
40
0.38
0
LINE
8
BLACK
6
CONTINUOUS
10
2.95714
20
-7.94476
11
3.14762
21
-7.94476
0
LINE
8
BLACK
6
CONTINUOUS
10
3.14762
20
-7.94476
11
3.3381
21
-8.04
0
LINE
8
BLACK
6
CONTINUOUS
10
3.3381
20
-8.04
11
3.43333
21
-8.13524
0
LINE
8
BLACK
6
CONTINUOUS
10
3.43333
20
-8.13524
11
3.52857
21
-8.32571
0
LINE
8
BLACK
6
CONTINUOUS
10
3.52857
20
-8.32571
11
3.62381
21
-8.70667
0
LINE
8
BLACK
6
CONTINUOUS
10
3.62381
20
-8.70667
11
3.62381
21
-9.18286
0
LINE
8
BLACK
6
CONTINUOUS
10
3.62381
20
-9.18286
11
3.52857
21
-9.56381
0
LINE
8
BLACK
6
CONTINUOUS
10
3.52857
20
-9.56381
11
3.43333
21
-9.75428
0
LINE
8
BLACK
6
CONTINUOUS
10
3.43333
20
-9.75428
11
3.3381
21
-9.84952
0
LINE
8
BLACK
6
CONTINUOUS
10
3.3381
20
-9.84952
11
3.14762
21
-9.94476
0
LINE
8
BLACK
6
CONTINUOUS
10
3.14762
20
-9.94476
11
2.95714
21
-9.94476
0
LINE
8
BLACK
6
CONTINUOUS
10
2.95714
20
-9.94476
11
2.76667
21
-9.84952
0
LINE
8
BLACK
6
CONTINUOUS
10
2.76667
20
-9.84952
11
2.67143
21
-9.75428
0
LINE
8
BLACK
6
CONTINUOUS
10
2.67143
20
-9.75428
11
2.57619
21
-9.56381
0
LINE
8
BLACK
6
CONTINUOUS
10
2.57619
20
-9.56381
11
2.48095
21
-9.18286
0
LINE
8
BLACK
6
CONTINUOUS
10
2.48095
20
-9.18286
11
2.48095
21
-8.70667
0
LINE
8
BLACK
6
CONTINUOUS
10
2.48095
20
-8.70667
11
2.57619
21
-8.32571
0
LINE
8
BLACK
6
CONTINUOUS
10
2.57619
20
-8.32571
11
2.67143
21
-8.13524
0
LINE
8
BLACK
6
CONTINUOUS
10
2.67143
20
-8.13524
11
2.76667
21
-8.04
0
LINE
8
BLACK
6
CONTINUOUS
10
2.76667
20
-8.04
11
2.95714
21
-7.94476
0
LINE
8
BLACK
6
CONTINUOUS
10
4.48095
20
-9.75428
11
4.57619
21
-9.84952
0
LINE
8
BLACK
6
CONTINUOUS
10
4.57619
20
-9.84952
11
4.48095
21
-9.94476
0
LINE
8
BLACK
6
CONTINUOUS
10
4.48095
20
-9.94476
11
4.38571
21
-9.84952
0
LINE
8
BLACK
6
CONTINUOUS
10
4.38571
20
-9.84952
11
4.48095
21
-9.75428
0
LINE
8
BLACK
6
CONTINUOUS
10
4.48095
20
-9.75428
11
4.48095
21
-9.94476
0
LINE
8
BLACK
6
CONTINUOUS
10
5.24286
20
-7.94476
11
6.57619
21
-7.94476
0
LINE
8
BLACK
6
CONTINUOUS
10
6.57619
20
-7.94476
11
5.71905
21
-9.94476
0
LINE
8
BLACK
6
CONTINUOUS
10
8.19524
20
-7.94476
11
7.81428
21
-7.94476
0
LINE
8
BLACK
6
CONTINUOUS
10
7.81428
20
-7.94476
11
7.62381
21
-8.04
0
LINE
8
BLACK
6
CONTINUOUS
10
7.62381
20
-8.04
11
7.52857
21
-8.13524
0
LINE
8
BLACK
6
CONTINUOUS
10
7.52857
20
-8.13524
11
7.3381
21
-8.42095
0
LINE
8
BLACK
6
CONTINUOUS
10
7.3381
20
-8.42095
11
7.24286
21
-8.8019
0
LINE
8
BLACK
6
CONTINUOUS
10
7.24286
20
-8.8019
11
7.24286
21
-9.56381
0
LINE
8
BLACK
6
CONTINUOUS
10
7.24286
20
-9.56381
11
7.3381
21
-9.75428
0
LINE
8
BLACK
6
CONTINUOUS
10
7.3381
20
-9.75428
11
7.43333
21
-9.84952
0
LINE
8
BLACK
6
CONTINUOUS
10
7.43333
20
-9.84952
11
7.62381
21
-9.94476
0
LINE
8
BLACK
6
CONTINUOUS
10
7.62381
20
-9.94476
11
8.00476
21
-9.94476
0
LINE
8
BLACK
6
CONTINUOUS
10
8.00476
20
-9.94476
11
8.19524
21
-9.84952
0
LINE
8
BLACK
6
CONTINUOUS
10
8.19524
20
-9.84952
11
8.29048
21
-9.75428
0
LINE
8
BLACK
6
CONTINUOUS
10
8.29048
20
-9.75428
11
8.38571
21
-9.56381
0
LINE
8
BLACK
6
CONTINUOUS
10
8.38571
20
-9.56381
11
8.38571
21
-9.08762
0
LINE
8
BLACK
6
CONTINUOUS
10
8.38571
20
-9.08762
11
8.29048
21
-8.89714
0
LINE
8
BLACK
6
CONTINUOUS
10
8.29048
20
-8.89714
11
8.19524
21
-8.8019
0
LINE
8
BLACK
6
CONTINUOUS
10
8.19524
20
-8.8019
11
8.00476
21
-8.70667
0
LINE
8
BLACK
6
CONTINUOUS
10
8.00476
20
-8.70667
11
7.62381
21
-8.70667
0
LINE
8
BLACK
6
CONTINUOUS
10
7.62381
20
-8.70667
11
7.43333
21
-8.8019
0
LINE
8
BLACK
6
CONTINUOUS
10
7.43333
20
-8.8019
11
7.3381
21
-8.89714
0
LINE
8
BLACK
6
CONTINUOUS
10
7.3381
20
-8.89714
11
7.24286
21
-9.08762
0
LINE
8
BLACK
6
CONTINUOUS
10
9.62381
20
-7.94476
11
9.81428
21
-7.94476
0
LINE
8
BLACK
6
CONTINUOUS
10
9.81428
20
-7.94476
11
10.0048
21
-8.04
0
LINE
8
BLACK
6
CONTINUOUS
10
10.0048
20
-8.04
11
10.1
21
-8.13524
0
LINE
8
BLACK
6
CONTINUOUS
10
10.1
20
-8.13524
11
10.1952
21
-8.32571
0
LINE
8
BLACK
6
CONTINUOUS
10
10.1952
20
-8.32571
11
10.2905
21
-8.70667
0
LINE
8
BLACK
6
CONTINUOUS
10
10.2905
20
-8.70667
11
10.2905
21
-9.18286
0
LINE
8
BLACK
6
CONTINUOUS
10
10.2905
20
-9.18286
11
10.1952
21
-9.56381
0
LINE
8
BLACK
6
CONTINUOUS
10
10.1952
20
-9.56381
11
10.1
21
-9.75428
0
LINE
8
BLACK
6
CONTINUOUS
10
10.1
20
-9.75428
11
10.0048
21
-9.84952
0
LINE
8
BLACK
6
CONTINUOUS
10
10.0048
20
-9.84952
11
9.81428
21
-9.94476
0
LINE
8
BLACK
6
CONTINUOUS
10
9.81428
20
-9.94476
11
9.62381
21
-9.94476
0
LINE
8
BLACK
6
CONTINUOUS
10
9.62381
20
-9.94476
11
9.43333
21
-9.84952
0
LINE
8
BLACK
6
CONTINUOUS
10
9.43333
20
-9.84952
11
9.33809
21
-9.75428
0
LINE
8
BLACK
6
CONTINUOUS
10
9.33809
20
-9.75428
11
9.24286
21
-9.56381
0
LINE
8
BLACK
6
CONTINUOUS
10
9.24286
20
-9.56381
11
9.14762
21
-9.18286
0
LINE
8
BLACK
6
CONTINUOUS
10
9.14762
20
-9.18286
11
9.14762
21
-8.70667
0
LINE
8
BLACK
6
CONTINUOUS
10
9.14762
20
-8.70667
11
9.24286
21
-8.32571
0
LINE
8
BLACK
6
CONTINUOUS
10
9.24286
20
-8.32571
11
9.33809
21
-8.13524
0
LINE
8
BLACK
6
CONTINUOUS
10
9.33809
20
-8.13524
11
9.43333
21
-8.04
0
LINE
8
BLACK
6
CONTINUOUS
10
9.43333
20
-8.04
11
9.62381
21
-7.94476
0
LINE
8
BLACK
6
CONTINUOUS
10
11.1476
20
-9.94476
11
11.1476
21
-8.61143
0
LINE
8
BLACK
6
CONTINUOUS
10
11.1476
20
-8.8019
11
11.2429
21
-8.70667
0
LINE
8
BLACK
6
CONTINUOUS
10
11.2429
20
-8.70667
11
11.4333
21
-8.61143
0
LINE
8
BLACK
6
CONTINUOUS
10
11.4333
20
-8.61143
11
11.719
21
-8.61143
0
LINE
8
BLACK
6
CONTINUOUS
10
11.719
20
-8.61143
11
11.9095
21
-8.70667
0
LINE
8
BLACK
6
CONTINUOUS
10
11.9095
20
-8.70667
11
12.0048
21
-8.89714
0
LINE
8
BLACK
6
CONTINUOUS
10
12.0048
20
-8.89714
11
12.0048
21
-9.94476
0
LINE
8
BLACK
6
CONTINUOUS
10
12.0048
20
-8.89714
11
12.1
21
-8.70667
0
LINE
8
BLACK
6
CONTINUOUS
10
12.1
20
-8.70667
11
12.2905
21
-8.61143
0
LINE
8
BLACK
6
CONTINUOUS
10
12.2905
20
-8.61143
11
12.5762
21
-8.61143
0
LINE
8
BLACK
6
CONTINUOUS
10
12.5762
20
-8.61143
11
12.7667
21
-8.70667
0
LINE
8
BLACK
6
CONTINUOUS
10
12.7667
20
-8.70667
11
12.8619
21
-8.89714
0
LINE
8
BLACK
6
CONTINUOUS
10
12.8619
20
-8.89714
11
12.8619
21
-9.94476
0
LINE
8
BLACK
6
CONTINUOUS
10
13.8143
20
-9.94476
11
13.8143
21
-8.61143
0
LINE
8
BLACK
6
CONTINUOUS
10
13.8143
20
-8.8019
11
13.9095
21
-8.70667
0
LINE
8
BLACK
6
CONTINUOUS
10
13.9095
20
-8.70667
11
14.1
21
-8.61143
0
LINE
8
BLACK
6
CONTINUOUS
10
14.1
20
-8.61143
11
14.3857
21
-8.61143
0
LINE
8
BLACK
6
CONTINUOUS
10
14.3857
20
-8.61143
11
14.5762
21
-8.70667
0
LINE
8
BLACK
6
CONTINUOUS
10
14.5762
20
-8.70667
11
14.6714
21
-8.89714
0
LINE
8
BLACK
6
CONTINUOUS
10
14.6714
20
-8.89714
11
14.6714
21
-9.94476
0
LINE
8
BLACK
6
CONTINUOUS
10
14.6714
20
-8.89714
11
14.7667
21
-8.70667
0
LINE
8
BLACK
6
CONTINUOUS
10
14.7667
20
-8.70667
11
14.9571
21
-8.61143
0
LINE
8
BLACK
6
CONTINUOUS
10
14.9571
20
-8.61143
11
15.2429
21
-8.61143
0
LINE
8
BLACK
6
CONTINUOUS
10
15.2429
20
-8.61143
11
15.4333
21
-8.70667
0
LINE
8
BLACK
6
CONTINUOUS
10
15.4333
20
-8.70667
11
15.5286
21
-8.89714
0
LINE
8
BLACK
6
CONTINUOUS
10
15.5286
20
-8.89714
11
15.5286
21
-9.94476
0
LINE
8
BLACK
6
CONTINUOUS
10
19.4333
20
-7.84952
11
17.719
21
-10.421
0
LINE
8
BLACK
6
CONTINUOUS
10
22.0048
20
-7.94476
11
22.1952
21
-7.94476
0
LINE
8
BLACK
6
CONTINUOUS
10
22.1952
20
-7.94476
11
22.3857
21
-8.04
0
LINE
8
BLACK
6
CONTINUOUS
10
22.3857
20
-8.04
11
22.481
21
-8.13524
0
LINE
8
BLACK
6
CONTINUOUS
10
22.481
20
-8.13524
11
22.5762
21
-8.32571
0
LINE
8
BLACK
6
CONTINUOUS
10
22.5762
20
-8.32571
11
22.6714
21
-8.70667
0
LINE
8
BLACK
6
CONTINUOUS
10
22.6714
20
-8.70667
11
22.6714
21
-9.18286
0
LINE
8
BLACK
6
CONTINUOUS
10
22.6714
20
-9.18286
11
22.5762
21
-9.56381
0
LINE
8
BLACK
6
CONTINUOUS
10
22.5762
20
-9.56381
11
22.481
21
-9.75428
0
LINE
8
BLACK
6
CONTINUOUS
10
22.481
20
-9.75428
11
22.3857
21
-9.84952
0
LINE
8
BLACK
6
CONTINUOUS
10
22.3857
20
-9.84952
11
22.1952
21
-9.94476
0
LINE
8
BLACK
6
CONTINUOUS
10
22.1952
20
-9.94476
11
22.0048
21
-9.94476
0
LINE
8
BLACK
6
CONTINUOUS
10
22.0048
20
-9.94476
11
21.8143
21
-9.84952
0
LINE
8
BLACK
6
CONTINUOUS
10
21.8143
20
-9.84952
11
21.719
21
-9.75428
0
LINE
8
BLACK
6
CONTINUOUS
10
21.719
20
-9.75428
11
21.6238
21
-9.56381
0
LINE
8
BLACK
6
CONTINUOUS
10
21.6238
20
-9.56381
11
21.5286
21
-9.18286
0
LINE
8
BLACK
6
CONTINUOUS
10
21.5286
20
-9.18286
11
21.5286
21
-8.70667
0
LINE
8
BLACK
6
CONTINUOUS
10
21.5286
20
-8.70667
11
21.6238
21
-8.32571
0
LINE
8
BLACK
6
CONTINUOUS
10
21.6238
20
-8.32571
11
21.719
21
-8.13524
0
LINE
8
BLACK
6
CONTINUOUS
10
21.719
20
-8.13524
11
21.8143
21
-8.04
0
LINE
8
BLACK
6
CONTINUOUS
10
21.8143
20
-8.04
11
22.0048
21
-7.94476
0
LINE
8
BLACK
6
CONTINUOUS
10
23.5286
20
-9.75428
11
23.6238
21
-9.84952
0
LINE
8
BLACK
6
CONTINUOUS
10
23.6238
20
-9.84952
11
23.5286
21
-9.94476
0
LINE
8
BLACK
6
CONTINUOUS
10
23.5286
20
-9.94476
11
23.4333
21
-9.84952
0
LINE
8
BLACK
6
CONTINUOUS
10
23.4333
20
-9.84952
11
23.5286
21
-9.75428
0
LINE
8
BLACK
6
CONTINUOUS
10
23.5286
20
-9.75428
11
23.5286
21
-9.94476
0
LINE
8
BLACK
6
CONTINUOUS
10
24.8619
20
-7.94476
11
25.0524
21
-7.94476
0
LINE
8
BLACK
6
CONTINUOUS
10
25.0524
20
-7.94476
11
25.2429
21
-8.04
0
LINE
8
BLACK
6
CONTINUOUS
10
25.2429
20
-8.04
11
25.3381
21
-8.13524
0
LINE
8
BLACK
6
CONTINUOUS
10
25.3381
20
-8.13524
11
25.4333
21
-8.32571
0
LINE
8
BLACK
6
CONTINUOUS
10
25.4333
20
-8.32571
11
25.5286
21
-8.70667
0
LINE
8
BLACK
6
CONTINUOUS
10
25.5286
20
-8.70667
11
25.5286
21
-9.18286
0
LINE
8
BLACK
6
CONTINUOUS
10
25.5286
20
-9.18286
11
25.4333
21
-9.56381
0
LINE
8
BLACK
6
CONTINUOUS
10
25.4333
20
-9.56381
11
25.3381
21
-9.75428
0
LINE
8
BLACK
6
CONTINUOUS
10
25.3381
20
-9.75428
11
25.2429
21
-9.84952
0
LINE
8
BLACK
6
CONTINUOUS
10
25.2429
20
-9.84952
11
25.0524
21
-9.94476
0
LINE
8
BLACK
6
CONTINUOUS
10
25.0524
20
-9.94476
11
24.8619
21
-9.94476
0
LINE
8
BLACK
6
CONTINUOUS
10
24.8619
20
-9.94476
11
24.6714
21
-9.84952
0
LINE
8
BLACK
6
CONTINUOUS
10
24.6714
20
-9.84952
11
24.5762
21
-9.75428
0
LINE
8
BLACK
6
CONTINUOUS
10
24.5762
20
-9.75428
11
24.481
21
-9.56381
0
LINE
8
BLACK
6
CONTINUOUS
10
24.481
20
-9.56381
11
24.3857
21
-9.18286
0
LINE
8
BLACK
6
CONTINUOUS
10
24.3857
20
-9.18286
11
24.3857
21
-8.70667
0
LINE
8
BLACK
6
CONTINUOUS
10
24.3857
20
-8.70667
11
24.481
21
-8.32571
0
LINE
8
BLACK
6
CONTINUOUS
10
24.481
20
-8.32571
11
24.5762
21
-8.13524
0
LINE
8
BLACK
6
CONTINUOUS
10
24.5762
20
-8.13524
11
24.6714
21
-8.04
0
LINE
8
BLACK
6
CONTINUOUS
10
24.6714
20
-8.04
11
24.8619
21
-7.94476
0
LINE
8
BLACK
6
CONTINUOUS
10
26.2905
20
-8.13524
11
26.3857
21
-8.04
0
LINE
8
BLACK
6
CONTINUOUS
10
26.3857
20
-8.04
11
26.5762
21
-7.94476
0
LINE
8
BLACK
6
CONTINUOUS
10
26.5762
20
-7.94476
11
27.0524
21
-7.94476
0
LINE
8
BLACK
6
CONTINUOUS
10
27.0524
20
-7.94476
11
27.2429
21
-8.04
0
LINE
8
BLACK
6
CONTINUOUS
10
27.2429
20
-8.04
11
27.3381
21
-8.13524
0
LINE
8
BLACK
6
CONTINUOUS
10
27.3381
20
-8.13524
11
27.4333
21
-8.32571
0
LINE
8
BLACK
6
CONTINUOUS
10
27.4333
20
-8.32571
11
27.4333
21
-8.51619
0
LINE
8
BLACK
6
CONTINUOUS
10
27.4333
20
-8.51619
11
27.3381
21
-8.8019
0
LINE
8
BLACK
6
CONTINUOUS
10
27.3381
20
-8.8019
11
26.1952
21
-9.94476
0
LINE
8
BLACK
6
CONTINUOUS
10
26.1952
20
-9.94476
11
27.4333
21
-9.94476
0
LINE
8
BLACK
6
CONTINUOUS
10
28.3857
20
-9.94476
11
28.7667
21
-9.94476
0
LINE
8
BLACK
6
CONTINUOUS
10
28.7667
20
-9.94476
11
28.9571
21
-9.84952
0
LINE
8
BLACK
6
CONTINUOUS
10
28.9571
20
-9.84952
11
29.0524
21
-9.75428
0
LINE
8
BLACK
6
CONTINUOUS
10
29.0524
20
-9.75428
11
29.2429
21
-9.46857
0
LINE
8
BLACK
6
CONTINUOUS
10
29.2429
20
-9.46857
11
29.3381
21
-9.08762
0
LINE
8
BLACK
6
CONTINUOUS
10
29.3381
20
-9.08762
11
29.3381
21
-8.32571
0
LINE
8
BLACK
6
CONTINUOUS
10
29.3381
20
-8.32571
11
29.2429
21
-8.13524
0
LINE
8
BLACK
6
CONTINUOUS
10
29.2429
20
-8.13524
11
29.1476
21
-8.04
0
LINE
8
BLACK
6
CONTINUOUS
10
29.1476
20
-8.04
11
28.9571
21
-7.94476
0
LINE
8
BLACK
6
CONTINUOUS
10
28.9571
20
-7.94476
11
28.5762
21
-7.94476
0
LINE
8
BLACK
6
CONTINUOUS
10
28.5762
20
-7.94476
11
28.3857
21
-8.04
0
LINE
8
BLACK
6
CONTINUOUS
10
28.3857
20
-8.04
11
28.2905
21
-8.13524
0
LINE
8
BLACK
6
CONTINUOUS
10
28.2905
20
-8.13524
11
28.1952
21
-8.32571
0
LINE
8
BLACK
6
CONTINUOUS
10
28.1952
20
-8.32571
11
28.1952
21
-8.8019
0
LINE
8
BLACK
6
CONTINUOUS
10
28.1952
20
-8.8019
11
28.2905
21
-8.99238
0
LINE
8
BLACK
6
CONTINUOUS
10
28.2905
20
-8.99238
11
28.3857
21
-9.08762
0
LINE
8
BLACK
6
CONTINUOUS
10
28.3857
20
-9.08762
11
28.5762
21
-9.18286
0
LINE
8
BLACK
6
CONTINUOUS
10
28.5762
20
-9.18286
11
28.9571
21
-9.18286
0
LINE
8
BLACK
6
CONTINUOUS
10
28.9571
20
-9.18286
11
29.1476
21
-9.08762
0
LINE
8
BLACK
6
CONTINUOUS
10
29.1476
20
-9.08762
11
29.2429
21
-8.99238
0
LINE
8
BLACK
6
CONTINUOUS
10
29.2429
20
-8.99238
11
29.3381
21
-8.8019
0
LINE
8
BLACK
6
CONTINUOUS
10
30.2905
20
-9.94476
11
30.6714
21
-9.94476
0
LINE
8
BLACK
6
CONTINUOUS
10
30.6714
20
-9.94476
11
30.8619
21
-9.84952
0
LINE
8
BLACK
6
CONTINUOUS
10
30.8619
20
-9.84952
11
30.9571
21
-9.75428
0
LINE
8
BLACK
6
CONTINUOUS
10
30.9571
20
-9.75428
11
31.1476
21
-9.46857
0
LINE
8
BLACK
6
CONTINUOUS
10
31.1476
20
-9.46857
11
31.2429
21
-9.08762
0
LINE
8
BLACK
6
CONTINUOUS
10
31.2429
20
-9.08762
11
31.2429
21
-8.32571
0
LINE
8
BLACK
6
CONTINUOUS
10
31.2429
20
-8.32571
11
31.1476
21
-8.13524
0
LINE
8
BLACK
6
CONTINUOUS
10
31.1476
20
-8.13524
11
31.0524
21
-8.04
0
LINE
8
BLACK
6
CONTINUOUS
10
31.0524
20
-8.04
11
30.8619
21
-7.94476
0
LINE
8
BLACK
6
CONTINUOUS
10
30.8619
20
-7.94476
11
30.481
21
-7.94476
0
LINE
8
BLACK
6
CONTINUOUS
10
30.481
20
-7.94476
11
30.2905
21
-8.04
0
LINE
8
BLACK
6
CONTINUOUS
10
30.2905
20
-8.04
11
30.1952
21
-8.13524
0
LINE
8
BLACK
6
CONTINUOUS
10
30.1952
20
-8.13524
11
30.1
21
-8.32571
0
LINE
8
BLACK
6
CONTINUOUS
10
30.1
20
-8.32571
11
30.1
21
-8.8019
0
LINE
8
BLACK
6
CONTINUOUS
10
30.1
20
-8.8019
11
30.1952
21
-8.99238
0
LINE
8
BLACK
6
CONTINUOUS
10
30.1952
20
-8.99238
11
30.2905
21
-9.08762
0
LINE
8
BLACK
6
CONTINUOUS
10
30.2905
20
-9.08762
11
30.481
21
-9.18286
0
LINE
8
BLACK
6
CONTINUOUS
10
30.481
20
-9.18286
11
30.8619
21
-9.18286
0
LINE
8
BLACK
6
CONTINUOUS
10
30.8619
20
-9.18286
11
31.0524
21
-9.08762
0
LINE
8
BLACK
6
CONTINUOUS
10
31.0524
20
-9.08762
11
31.1476
21
-8.99238
0
LINE
8
BLACK
6
CONTINUOUS
10
31.1476
20
-8.99238
11
31.2429
21
-8.8019
0
LINE
8
BLACK
6
CONTINUOUS
10
32.0048
20
-7.94476
11
32.0048
21
-8.32571
0
LINE
8
BLACK
6
CONTINUOUS
10
32.7667
20
-7.94476
11
32.7667
21
-8.32571
0
LINE
8
BLACK
6
CONTINUOUS
10
35.719
20
-10.7067
11
35.6238
21
-10.6114
0
LINE
8
BLACK
6
CONTINUOUS
10
35.6238
20
-10.6114
11
35.4333
21
-10.3257
0
LINE
8
BLACK
6
CONTINUOUS
10
35.4333
20
-10.3257
11
35.3381
21
-10.1352
0
LINE
8
BLACK
6
CONTINUOUS
10
35.3381
20
-10.1352
11
35.2429
21
-9.84952
0
LINE
8
BLACK
6
CONTINUOUS
10
35.2429
20
-9.84952
11
35.1476
21
-9.37333
0
LINE
8
BLACK
6
CONTINUOUS
10
35.1476
20
-9.37333
11
35.1476
21
-8.99238
0
LINE
8
BLACK
6
CONTINUOUS
10
35.1476
20
-8.99238
11
35.2429
21
-8.51619
0
LINE
8
BLACK
6
CONTINUOUS
10
35.2429
20
-8.51619
11
35.3381
21
-8.23048
0
LINE
8
BLACK
6
CONTINUOUS
10
35.3381
20
-8.23048
11
35.4333
21
-8.04
0
LINE
8
BLACK
6
CONTINUOUS
10
35.4333
20
-8.04
11
35.6238
21
-7.75428
0
LINE
8
BLACK
6
CONTINUOUS
10
35.6238
20
-7.75428
11
35.719
21
-7.65905
0
LINE
8
BLACK
6
CONTINUOUS
10
37.3381
20
-7.94476
11
36.9571
21
-7.94476
0
LINE
8
BLACK
6
CONTINUOUS
10
36.9571
20
-7.94476
11
36.7667
21
-8.04
0
LINE
8
BLACK
6
CONTINUOUS
10
36.7667
20
-8.04
11
36.6714
21
-8.13524
0
LINE
8
BLACK
6
CONTINUOUS
10
36.6714
20
-8.13524
11
36.481
21
-8.42095
0
LINE
8
BLACK
6
CONTINUOUS
10
36.481
20
-8.42095
11
36.3857
21
-8.8019
0
LINE
8
BLACK
6
CONTINUOUS
10
36.3857
20
-8.8019
11
36.3857
21
-9.56381
0
LINE
8
BLACK
6
CONTINUOUS
10
36.3857
20
-9.56381
11
36.481
21
-9.75428
0
LINE
8
BLACK
6
CONTINUOUS
10
36.481
20
-9.75428
11
36.5762
21
-9.84952
0
LINE
8
BLACK
6
CONTINUOUS
10
36.5762
20
-9.84952
11
36.7667
21
-9.94476
0
LINE
8
BLACK
6
CONTINUOUS
10
36.7667
20
-9.94476
11
37.1476
21
-9.94476
0
LINE
8
BLACK
6
CONTINUOUS
10
37.1476
20
-9.94476
11
37.3381
21
-9.84952
0
LINE
8
BLACK
6
CONTINUOUS
10
37.3381
20
-9.84952
11
37.4333
21
-9.75428
0
LINE
8
BLACK
6
CONTINUOUS
10
37.4333
20
-9.75428
11
37.5286
21
-9.56381
0
LINE
8
BLACK
6
CONTINUOUS
10
37.5286
20
-9.56381
11
37.5286
21
-9.08762
0
LINE
8
BLACK
6
CONTINUOUS
10
37.5286
20
-9.08762
11
37.4333
21
-8.89714
0
LINE
8
BLACK
6
CONTINUOUS
10
37.4333
20
-8.89714
11
37.3381
21
-8.8019
0
LINE
8
BLACK
6
CONTINUOUS
10
37.3381
20
-8.8019
11
37.1476
21
-8.70667
0
LINE
8
BLACK
6
CONTINUOUS
10
37.1476
20
-8.70667
11
36.7667
21
-8.70667
0
LINE
8
BLACK
6
CONTINUOUS
10
36.7667
20
-8.70667
11
36.5762
21
-8.8019
0
LINE
8
BLACK
6
CONTINUOUS
10
36.5762
20
-8.8019
11
36.481
21
-8.89714
0
LINE
8
BLACK
6
CONTINUOUS
10
36.481
20
-8.89714
11
36.3857
21
-9.08762
0
LINE
8
BLACK
6
CONTINUOUS
10
39.9095
20
-9.94476
11
39.9095
21
-7.94476
0
LINE
8
BLACK
6
CONTINUOUS
10
40.7667
20
-9.94476
11
40.7667
21
-8.89714
0
LINE
8
BLACK
6
CONTINUOUS
10
40.7667
20
-8.89714
11
40.6714
21
-8.70667
0
LINE
8
BLACK
6
CONTINUOUS
10
40.6714
20
-8.70667
11
40.481
21
-8.61143
0
LINE
8
BLACK
6
CONTINUOUS
10
40.481
20
-8.61143
11
40.1952
21
-8.61143
0
LINE
8
BLACK
6
CONTINUOUS
10
40.1952
20
-8.61143
11
40.0048
21
-8.70667
0
LINE
8
BLACK
6
CONTINUOUS
10
40.0048
20
-8.70667
11
39.9095
21
-8.8019
0
LINE
8
BLACK
6
CONTINUOUS
10
42.0048
20
-9.94476
11
41.8143
21
-9.84952
0
LINE
8
BLACK
6
CONTINUOUS
10
41.8143
20
-9.84952
11
41.719
21
-9.75428
0
LINE
8
BLACK
6
CONTINUOUS
10
41.719
20
-9.75428
11
41.6238
21
-9.56381
0
LINE
8
BLACK
6
CONTINUOUS
10
41.6238
20
-9.56381
11
41.6238
21
-8.99238
0
LINE
8
BLACK
6
CONTINUOUS
10
41.6238
20
-8.99238
11
41.719
21
-8.8019
0
LINE
8
BLACK
6
CONTINUOUS
10
41.719
20
-8.8019
11
41.8143
21
-8.70667
0
LINE
8
BLACK
6
CONTINUOUS
10
41.8143
20
-8.70667
11
42.0048
21
-8.61143
0
LINE
8
BLACK
6
CONTINUOUS
10
42.0048
20
-8.61143
11
42.2905
21
-8.61143
0
LINE
8
BLACK
6
CONTINUOUS
10
42.2905
20
-8.61143
11
42.481
21
-8.70667
0
LINE
8
BLACK
6
CONTINUOUS
10
42.481
20
-8.70667
11
42.5762
21
-8.8019
0
LINE
8
BLACK
6
CONTINUOUS
10
42.5762
20
-8.8019
11
42.6714
21
-8.99238
0
LINE
8
BLACK
6
CONTINUOUS
10
42.6714
20
-8.99238
11
42.6714
21
-9.56381
0
LINE
8
BLACK
6
CONTINUOUS
10
42.6714
20
-9.56381
11
42.5762
21
-9.75428
0
LINE
8
BLACK
6
CONTINUOUS
10
42.5762
20
-9.75428
11
42.481
21
-9.84952
0
LINE
8
BLACK
6
CONTINUOUS
10
42.481
20
-9.84952
11
42.2905
21
-9.94476
0
LINE
8
BLACK
6
CONTINUOUS
10
42.2905
20
-9.94476
11
42.0048
21
-9.94476
0
LINE
8
BLACK
6
CONTINUOUS
10
43.8143
20
-9.94476
11
43.6238
21
-9.84952
0
LINE
8
BLACK
6
CONTINUOUS
10
43.6238
20
-9.84952
11
43.5286
21
-9.65905
0
LINE
8
BLACK
6
CONTINUOUS
10
43.5286
20
-9.65905
11
43.5286
21
-7.94476
0
LINE
8
BLACK
6
CONTINUOUS
10
45.3381
20
-9.84952
11
45.1476
21
-9.94476
0
LINE
8
BLACK
6
CONTINUOUS
10
45.1476
20
-9.94476
11
44.7667
21
-9.94476
0
LINE
8
BLACK
6
CONTINUOUS
10
44.7667
20
-9.94476
11
44.5762
21
-9.84952
0
LINE
8
BLACK
6
CONTINUOUS
10
44.5762
20
-9.84952
11
44.481
21
-9.65905
0
LINE
8
BLACK
6
CONTINUOUS
10
44.481
20
-9.65905
11
44.481
21
-8.89714
0
LINE
8
BLACK
6
CONTINUOUS
10
44.481
20
-8.89714
11
44.5762
21
-8.70667
0
LINE
8
BLACK
6
CONTINUOUS
10
44.5762
20
-8.70667
11
44.7667
21
-8.61143
0
LINE
8
BLACK
6
CONTINUOUS
10
44.7667
20
-8.61143
11
45.1476
21
-8.61143
0
LINE
8
BLACK
6
CONTINUOUS
10
45.1476
20
-8.61143
11
45.3381
21
-8.70667
0
LINE
8
BLACK
6
CONTINUOUS
10
45.3381
20
-8.70667
11
45.4333
21
-8.89714
0
LINE
8
BLACK
6
CONTINUOUS
10
45.4333
20
-8.89714
11
45.4333
21
-9.08762
0
LINE
8
BLACK
6
CONTINUOUS
10
45.4333
20
-9.08762
11
44.481
21
-9.2781
0
LINE
8
BLACK
6
CONTINUOUS
10
46.1952
20
-9.84952
11
46.3857
21
-9.94476
0
LINE
8
BLACK
6
CONTINUOUS
10
46.3857
20
-9.94476
11
46.7667
21
-9.94476
0
LINE
8
BLACK
6
CONTINUOUS
10
46.7667
20
-9.94476
11
46.9571
21
-9.84952
0
LINE
8
BLACK
6
CONTINUOUS
10
46.9571
20
-9.84952
11
47.0524
21
-9.65905
0
LINE
8
BLACK
6
CONTINUOUS
10
47.0524
20
-9.65905
11
47.0524
21
-9.56381
0
LINE
8
BLACK
6
CONTINUOUS
10
47.0524
20
-9.56381
11
46.9571
21
-9.37333
0
LINE
8
BLACK
6
CONTINUOUS
10
46.9571
20
-9.37333
11
46.7667
21
-9.2781
0
LINE
8
BLACK
6
CONTINUOUS
10
46.7667
20
-9.2781
11
46.481
21
-9.2781
0
LINE
8
BLACK
6
CONTINUOUS
10
46.481
20
-9.2781
11
46.2905
21
-9.18286
0
LINE
8
BLACK
6
CONTINUOUS
10
46.2905
20
-9.18286
11
46.1952
21
-8.99238
0
LINE
8
BLACK
6
CONTINUOUS
10
46.1952
20
-8.99238
11
46.1952
21
-8.89714
0
LINE
8
BLACK
6
CONTINUOUS
10
46.1952
20
-8.89714
11
46.2905
21
-8.70667
0
LINE
8
BLACK
6
CONTINUOUS
10
46.2905
20
-8.70667
11
46.481
21
-8.61143
0
LINE
8
BLACK
6
CONTINUOUS
10
46.481
20
-8.61143
11
46.7667
21
-8.61143
0
LINE
8
BLACK
6
CONTINUOUS
10
46.7667
20
-8.61143
11
46.9571
21
-8.70667
0
LINE
8
BLACK
6
CONTINUOUS
10
47.719
20
-10.7067
11
47.8143
21
-10.6114
0
LINE
8
BLACK
6
CONTINUOUS
10
47.8143
20
-10.6114
11
48.0048
21
-10.3257
0
LINE
8
BLACK
6
CONTINUOUS
10
48.0048
20
-10.3257
11
48.1
21
-10.1352
0
LINE
8
BLACK
6
CONTINUOUS
10
48.1
20
-10.1352
11
48.1952
21
-9.84952
0
LINE
8
BLACK
6
CONTINUOUS
10
48.1952
20
-9.84952
11
48.2905
21
-9.37333
0
LINE
8
BLACK
6
CONTINUOUS
10
48.2905
20
-9.37333
11
48.2905
21
-8.99238
0
LINE
8
BLACK
6
CONTINUOUS
10
48.2905
20
-8.99238
11
48.1952
21
-8.51619
0
LINE
8
BLACK
6
CONTINUOUS
10
48.1952
20
-8.51619
11
48.1
21
-8.23048
0
LINE
8
BLACK
6
CONTINUOUS
10
48.1
20
-8.23048
11
48.0048
21
-8.04
0
LINE
8
BLACK
6
CONTINUOUS
10
48.0048
20
-8.04
11
47.8143
21
-7.75428
0
LINE
8
BLACK
6
CONTINUOUS
10
47.8143
20
-7.75428
11
47.719
21
-7.65905
0
LINE
8
BLACK
6
CONTINUOUS
10
-0.381
20
-11.299
11
-0.381
21
-12.061
0
LINE
8
BLACK
6
CONTINUOUS
10
-0.762
20
-11.68
11
0
21
-11.68
0
LINE
8
BLACK
6
CONTINUOUS
10
2.95714
20
-10.5848
11
3.14762
21
-10.5848
0
LINE
8
BLACK
6
CONTINUOUS
10
3.14762
20
-10.5848
11
3.3381
21
-10.68
0
LINE
8
BLACK
6
CONTINUOUS
10
3.3381
20
-10.68
11
3.43333
21
-10.7752
0
LINE
8
BLACK
6
CONTINUOUS
10
3.43333
20
-10.7752
11
3.52857
21
-10.9657
0
LINE
8
BLACK
6
CONTINUOUS
10
3.52857
20
-10.9657
11
3.62381
21
-11.3467
0
LINE
8
BLACK
6
CONTINUOUS
10
3.62381
20
-11.3467
11
3.62381
21
-11.8229
0
LINE
8
BLACK
6
CONTINUOUS
10
3.62381
20
-11.8229
11
3.52857
21
-12.2038
0
LINE
8
BLACK
6
CONTINUOUS
10
3.52857
20
-12.2038
11
3.43333
21
-12.3943
0
LINE
8
BLACK
6
CONTINUOUS
10
3.43333
20
-12.3943
11
3.3381
21
-12.4895
0
LINE
8
BLACK
6
CONTINUOUS
10
3.3381
20
-12.4895
11
3.14762
21
-12.5848
0
LINE
8
BLACK
6
CONTINUOUS
10
3.14762
20
-12.5848
11
2.95714
21
-12.5848
0
LINE
8
BLACK
6
CONTINUOUS
10
2.95714
20
-12.5848
11
2.76667
21
-12.4895
0
LINE
8
BLACK
6
CONTINUOUS
10
2.76667
20
-12.4895
11
2.67143
21
-12.3943
0
LINE
8
BLACK
6
CONTINUOUS
10
2.67143
20
-12.3943
11
2.57619
21
-12.2038
0
LINE
8
BLACK
6
CONTINUOUS
10
2.57619
20
-12.2038
11
2.48095
21
-11.8229
0
LINE
8
BLACK
6
CONTINUOUS
10
2.48095
20
-11.8229
11
2.48095
21
-11.3467
0
LINE
8
BLACK
6
CONTINUOUS
10
2.48095
20
-11.3467
11
2.57619
21
-10.9657
0
LINE
8
BLACK
6
CONTINUOUS
10
2.57619
20
-10.9657
11
2.67143
21
-10.7752
0
LINE
8
BLACK
6
CONTINUOUS
10
2.67143
20
-10.7752
11
2.76667
21
-10.68
0
LINE
8
BLACK
6
CONTINUOUS
10
2.76667
20
-10.68
11
2.95714
21
-10.5848
0
LINE
8
BLACK
6
CONTINUOUS
10
4.48095
20
-12.3943
11
4.57619
21
-12.4895
0
LINE
8
BLACK
6
CONTINUOUS
10
4.57619
20
-12.4895
11
4.48095
21
-12.5848
0
LINE
8
BLACK
6
CONTINUOUS
10
4.48095
20
-12.5848
11
4.38571
21
-12.4895
0
LINE
8
BLACK
6
CONTINUOUS
10
4.38571
20
-12.4895
11
4.48095
21
-12.3943
0
LINE
8
BLACK
6
CONTINUOUS
10
4.48095
20
-12.3943
11
4.48095
21
-12.5848
0
LINE
8
BLACK
6
CONTINUOUS
10
5.24286
20
-10.5848
11
6.57619
21
-10.5848
0
LINE
8
BLACK
6
CONTINUOUS
10
6.57619
20
-10.5848
11
5.71905
21
-12.5848
0
LINE
8
BLACK
6
CONTINUOUS
10
8.19524
20
-10.5848
11
7.81428
21
-10.5848
0
LINE
8
BLACK
6
CONTINUOUS
10
7.81428
20
-10.5848
11
7.62381
21
-10.68
0
LINE
8
BLACK
6
CONTINUOUS
10
7.62381
20
-10.68
11
7.52857
21
-10.7752
0
LINE
8
BLACK
6
CONTINUOUS
10
7.52857
20
-10.7752
11
7.3381
21
-11.061
0
LINE
8
BLACK
6
CONTINUOUS
10
7.3381
20
-11.061
11
7.24286
21
-11.4419
0
LINE
8
BLACK
6
CONTINUOUS
10
7.24286
20
-11.4419
11
7.24286
21
-12.2038
0
LINE
8
BLACK
6
CONTINUOUS
10
7.24286
20
-12.2038
11
7.3381
21
-12.3943
0
LINE
8
BLACK
6
CONTINUOUS
10
7.3381
20
-12.3943
11
7.43333
21
-12.4895
0
LINE
8
BLACK
6
CONTINUOUS
10
7.43333
20
-12.4895
11
7.62381
21
-12.5848
0
LINE
8
BLACK
6
CONTINUOUS
10
7.62381
20
-12.5848
11
8.00476
21
-12.5848
0
LINE
8
BLACK
6
CONTINUOUS
10
8.00476
20
-12.5848
11
8.19524
21
-12.4895
0
LINE
8
BLACK
6
CONTINUOUS
10
8.19524
20
-12.4895
11
8.29048
21
-12.3943
0
LINE
8
BLACK
6
CONTINUOUS
10
8.29048
20
-12.3943
11
8.38571
21
-12.2038
0
LINE
8
BLACK
6
CONTINUOUS
10
8.38571
20
-12.2038
11
8.38571
21
-11.7276
0
LINE
8
BLACK
6
CONTINUOUS
10
8.38571
20
-11.7276
11
8.29048
21
-11.5371
0
LINE
8
BLACK
6
CONTINUOUS
10
8.29048
20
-11.5371
11
8.19524
21
-11.4419
0
LINE
8
BLACK
6
CONTINUOUS
10
8.19524
20
-11.4419
11
8.00476
21
-11.3467
0
LINE
8
BLACK
6
CONTINUOUS
10
8.00476
20
-11.3467
11
7.62381
21
-11.3467
0
LINE
8
BLACK
6
CONTINUOUS
10
7.62381
20
-11.3467
11
7.43333
21
-11.4419
0
LINE
8
BLACK
6
CONTINUOUS
10
7.43333
20
-11.4419
11
7.3381
21
-11.5371
0
LINE
8
BLACK
6
CONTINUOUS
10
7.3381
20
-11.5371
11
7.24286
21
-11.7276
0
LINE
8
BLACK
6
CONTINUOUS
10
9.14762
20
-10.7752
11
9.24286
21
-10.68
0
LINE
8
BLACK
6
CONTINUOUS
10
9.24286
20
-10.68
11
9.43333
21
-10.5848
0
LINE
8
BLACK
6
CONTINUOUS
10
9.43333
20
-10.5848
11
9.90952
21
-10.5848
0
LINE
8
BLACK
6
CONTINUOUS
10
9.90952
20
-10.5848
11
10.1
21
-10.68
0
LINE
8
BLACK
6
CONTINUOUS
10
10.1
20
-10.68
11
10.1952
21
-10.7752
0
LINE
8
BLACK
6
CONTINUOUS
10
10.1952
20
-10.7752
11
10.2905
21
-10.9657
0
LINE
8
BLACK
6
CONTINUOUS
10
10.2905
20
-10.9657
11
10.2905
21
-11.1562
0
LINE
8
BLACK
6
CONTINUOUS
10
10.2905
20
-11.1562
11
10.1952
21
-11.4419
0
LINE
8
BLACK
6
CONTINUOUS
10
10.1952
20
-11.4419
11
9.05238
21
-12.5848
0
LINE
8
BLACK
6
CONTINUOUS
10
9.05238
20
-12.5848
11
10.2905
21
-12.5848
0
LINE
8
BLACK
6
CONTINUOUS
10
11.1476
20
-12.5848
11
11.1476
21
-11.2514
0
LINE
8
BLACK
6
CONTINUOUS
10
11.1476
20
-11.4419
11
11.2429
21
-11.3467
0
LINE
8
BLACK
6
CONTINUOUS
10
11.2429
20
-11.3467
11
11.4333
21
-11.2514
0
LINE
8
BLACK
6
CONTINUOUS
10
11.4333
20
-11.2514
11
11.719
21
-11.2514
0
LINE
8
BLACK
6
CONTINUOUS
10
11.719
20
-11.2514
11
11.9095
21
-11.3467
0
LINE
8
BLACK
6
CONTINUOUS
10
11.9095
20
-11.3467
11
12.0048
21
-11.5371
0
LINE
8
BLACK
6
CONTINUOUS
10
12.0048
20
-11.5371
11
12.0048
21
-12.5848
0
LINE
8
BLACK
6
CONTINUOUS
10
12.0048
20
-11.5371
11
12.1
21
-11.3467
0
LINE
8
BLACK
6
CONTINUOUS
10
12.1
20
-11.3467
11
12.2905
21
-11.2514
0
LINE
8
BLACK
6
CONTINUOUS
10
12.2905
20
-11.2514
11
12.5762
21
-11.2514
0
LINE
8
BLACK
6
CONTINUOUS
10
12.5762
20
-11.2514
11
12.7667
21
-11.3467
0
LINE
8
BLACK
6
CONTINUOUS
10
12.7667
20
-11.3467
11
12.8619
21
-11.5371
0
LINE
8
BLACK
6
CONTINUOUS
10
12.8619
20
-11.5371
11
12.8619
21
-12.5848
0
LINE
8
BLACK
6
CONTINUOUS
10
13.8143
20
-12.5848
11
13.8143
21
-11.2514
0
LINE
8
BLACK
6
CONTINUOUS
10
13.8143
20
-11.4419
11
13.9095
21
-11.3467
0
LINE
8
BLACK
6
CONTINUOUS
10
13.9095
20
-11.3467
11
14.1
21
-11.2514
0
LINE
8
BLACK
6
CONTINUOUS
10
14.1
20
-11.2514
11
14.3857
21
-11.2514
0
LINE
8
BLACK
6
CONTINUOUS
10
14.3857
20
-11.2514
11
14.5762
21
-11.3467
0
LINE
8
BLACK
6
CONTINUOUS
10
14.5762
20
-11.3467
11
14.6714
21
-11.5371
0
LINE
8
BLACK
6
CONTINUOUS
10
14.6714
20
-11.5371
11
14.6714
21
-12.5848
0
LINE
8
BLACK
6
CONTINUOUS
10
14.6714
20
-11.5371
11
14.7667
21
-11.3467
0
LINE
8
BLACK
6
CONTINUOUS
10
14.7667
20
-11.3467
11
14.9571
21
-11.2514
0
LINE
8
BLACK
6
CONTINUOUS
10
14.9571
20
-11.2514
11
15.2429
21
-11.2514
0
LINE
8
BLACK
6
CONTINUOUS
10
15.2429
20
-11.2514
11
15.4333
21
-11.3467
0
LINE
8
BLACK
6
CONTINUOUS
10
15.4333
20
-11.3467
11
15.5286
21
-11.5371
0
LINE
8
BLACK
6
CONTINUOUS
10
15.5286
20
-11.5371
11
15.5286
21
-12.5848
0
LINE
8
BLACK
6
CONTINUOUS
10
19.4333
20
-10.4895
11
17.719
21
-13.061
0
LINE
8
BLACK
6
CONTINUOUS
10
22.0048
20
-10.5848
11
22.1952
21
-10.5848
0
LINE
8
BLACK
6
CONTINUOUS
10
22.1952
20
-10.5848
11
22.3857
21
-10.68
0
LINE
8
BLACK
6
CONTINUOUS
10
22.3857
20
-10.68
11
22.481
21
-10.7752
0
LINE
8
BLACK
6
CONTINUOUS
10
22.481
20
-10.7752
11
22.5762
21
-10.9657
0
LINE
8
BLACK
6
CONTINUOUS
10
22.5762
20
-10.9657
11
22.6714
21
-11.3467
0
LINE
8
BLACK
6
CONTINUOUS
10
22.6714
20
-11.3467
11
22.6714
21
-11.8229
0
LINE
8
BLACK
6
CONTINUOUS
10
22.6714
20
-11.8229
11
22.5762
21
-12.2038
0
LINE
8
BLACK
6
CONTINUOUS
10
22.5762
20
-12.2038
11
22.481
21
-12.3943
0
LINE
8
BLACK
6
CONTINUOUS
10
22.481
20
-12.3943
11
22.3857
21
-12.4895
0
LINE
8
BLACK
6
CONTINUOUS
10
22.3857
20
-12.4895
11
22.1952
21
-12.5848
0
LINE
8
BLACK
6
CONTINUOUS
10
22.1952
20
-12.5848
11
22.0048
21
-12.5848
0
LINE
8
BLACK
6
CONTINUOUS
10
22.0048
20
-12.5848
11
21.8143
21
-12.4895
0
LINE
8
BLACK
6
CONTINUOUS
10
21.8143
20
-12.4895
11
21.719
21
-12.3943
0
LINE
8
BLACK
6
CONTINUOUS
10
21.719
20
-12.3943
11
21.6238
21
-12.2038
0
LINE
8
BLACK
6
CONTINUOUS
10
21.6238
20
-12.2038
11
21.5286
21
-11.8229
0
LINE
8
BLACK
6
CONTINUOUS
10
21.5286
20
-11.8229
11
21.5286
21
-11.3467
0
LINE
8
BLACK
6
CONTINUOUS
10
21.5286
20
-11.3467
11
21.6238
21
-10.9657
0
LINE
8
BLACK
6
CONTINUOUS
10
21.6238
20
-10.9657
11
21.719
21
-10.7752
0
LINE
8
BLACK
6
CONTINUOUS
10
21.719
20
-10.7752
11
21.8143
21
-10.68
0
LINE
8
BLACK
6
CONTINUOUS
10
21.8143
20
-10.68
11
22.0048
21
-10.5848
0
LINE
8
BLACK
6
CONTINUOUS
10
23.5286
20
-12.3943
11
23.6238
21
-12.4895
0
LINE
8
BLACK
6
CONTINUOUS
10
23.6238
20
-12.4895
11
23.5286
21
-12.5848
0
LINE
8
BLACK
6
CONTINUOUS
10
23.5286
20
-12.5848
11
23.4333
21
-12.4895
0
LINE
8
BLACK
6
CONTINUOUS
10
23.4333
20
-12.4895
11
23.5286
21
-12.3943
0
LINE
8
BLACK
6
CONTINUOUS
10
23.5286
20
-12.3943
11
23.5286
21
-12.5848
0
LINE
8
BLACK
6
CONTINUOUS
10
24.8619
20
-10.5848
11
25.0524
21
-10.5848
0
LINE
8
BLACK
6
CONTINUOUS
10
25.0524
20
-10.5848
11
25.2429
21
-10.68
0
LINE
8
BLACK
6
CONTINUOUS
10
25.2429
20
-10.68
11
25.3381
21
-10.7752
0
LINE
8
BLACK
6
CONTINUOUS
10
25.3381
20
-10.7752
11
25.4333
21
-10.9657
0
LINE
8
BLACK
6
CONTINUOUS
10
25.4333
20
-10.9657
11
25.5286
21
-11.3467
0
LINE
8
BLACK
6
CONTINUOUS
10
25.5286
20
-11.3467
11
25.5286
21
-11.8229
0
LINE
8
BLACK
6
CONTINUOUS
10
25.5286
20
-11.8229
11
25.4333
21
-12.2038
0
LINE
8
BLACK
6
CONTINUOUS
10
25.4333
20
-12.2038
11
25.3381
21
-12.3943
0
LINE
8
BLACK
6
CONTINUOUS
10
25.3381
20
-12.3943
11
25.2429
21
-12.4895
0
LINE
8
BLACK
6
CONTINUOUS
10
25.2429
20
-12.4895
11
25.0524
21
-12.5848
0
LINE
8
BLACK
6
CONTINUOUS
10
25.0524
20
-12.5848
11
24.8619
21
-12.5848
0
LINE
8
BLACK
6
CONTINUOUS
10
24.8619
20
-12.5848
11
24.6714
21
-12.4895
0
LINE
8
BLACK
6
CONTINUOUS
10
24.6714
20
-12.4895
11
24.5762
21
-12.3943
0
LINE
8
BLACK
6
CONTINUOUS
10
24.5762
20
-12.3943
11
24.481
21
-12.2038
0
LINE
8
BLACK
6
CONTINUOUS
10
24.481
20
-12.2038
11
24.3857
21
-11.8229
0
LINE
8
BLACK
6
CONTINUOUS
10
24.3857
20
-11.8229
11
24.3857
21
-11.3467
0
LINE
8
BLACK
6
CONTINUOUS
10
24.3857
20
-11.3467
11
24.481
21
-10.9657
0
LINE
8
BLACK
6
CONTINUOUS
10
24.481
20
-10.9657
11
24.5762
21
-10.7752
0
LINE
8
BLACK
6
CONTINUOUS
10
24.5762
20
-10.7752
11
24.6714
21
-10.68
0
LINE
8
BLACK
6
CONTINUOUS
10
24.6714
20
-10.68
11
24.8619
21
-10.5848
0
LINE
8
BLACK
6
CONTINUOUS
10
26.1952
20
-10.5848
11
27.4333
21
-10.5848
0
LINE
8
BLACK
6
CONTINUOUS
10
27.4333
20
-10.5848
11
26.7667
21
-11.3467
0
LINE
8
BLACK
6
CONTINUOUS
10
26.7667
20
-11.3467
11
27.0524
21
-11.3467
0
LINE
8
BLACK
6
CONTINUOUS
10
27.0524
20
-11.3467
11
27.2429
21
-11.4419
0
LINE
8
BLACK
6
CONTINUOUS
10
27.2429
20
-11.4419
11
27.3381
21
-11.5371
0
LINE
8
BLACK
6
CONTINUOUS
10
27.3381
20
-11.5371
11
27.4333
21
-11.7276
0
LINE
8
BLACK
6
CONTINUOUS
10
27.4333
20
-11.7276
11
27.4333
21
-12.2038
0
LINE
8
BLACK
6
CONTINUOUS
10
27.4333
20
-12.2038
11
27.3381
21
-12.3943
0
LINE
8
BLACK
6
CONTINUOUS
10
27.3381
20
-12.3943
11
27.2429
21
-12.4895
0
LINE
8
BLACK
6
CONTINUOUS
10
27.2429
20
-12.4895
11
27.0524
21
-12.5848
0
LINE
8
BLACK
6
CONTINUOUS
10
27.0524
20
-12.5848
11
26.481
21
-12.5848
0
LINE
8
BLACK
6
CONTINUOUS
10
26.481
20
-12.5848
11
26.2905
21
-12.4895
0
LINE
8
BLACK
6
CONTINUOUS
10
26.2905
20
-12.4895
11
26.1952
21
-12.3943
0
LINE
8
BLACK
6
CONTINUOUS
10
28.6714
20
-10.5848
11
28.8619
21
-10.5848
0
LINE
8
BLACK
6
CONTINUOUS
10
28.8619
20
-10.5848
11
29.0524
21
-10.68
0
LINE
8
BLACK
6
CONTINUOUS
10
29.0524
20
-10.68
11
29.1476
21
-10.7752
0
LINE
8
BLACK
6
CONTINUOUS
10
29.1476
20
-10.7752
11
29.2429
21
-10.9657
0
LINE
8
BLACK
6
CONTINUOUS
10
29.2429
20
-10.9657
11
29.3381
21
-11.3467
0
LINE
8
BLACK
6
CONTINUOUS
10
29.3381
20
-11.3467
11
29.3381
21
-11.8229
0
LINE
8
BLACK
6
CONTINUOUS
10
29.3381
20
-11.8229
11
29.2429
21
-12.2038
0
LINE
8
BLACK
6
CONTINUOUS
10
29.2429
20
-12.2038
11
29.1476
21
-12.3943
0
LINE
8
BLACK
6
CONTINUOUS
10
29.1476
20
-12.3943
11
29.0524
21
-12.4895
0
LINE
8
BLACK
6
CONTINUOUS
10
29.0524
20
-12.4895
11
28.8619
21
-12.5848
0
LINE
8
BLACK
6
CONTINUOUS
10
28.8619
20
-12.5848
11
28.6714
21
-12.5848
0
LINE
8
BLACK
6
CONTINUOUS
10
28.6714
20
-12.5848
11
28.481
21
-12.4895
0
LINE
8
BLACK
6
CONTINUOUS
10
28.481
20
-12.4895
11
28.3857
21
-12.3943
0
LINE
8
BLACK
6
CONTINUOUS
10
28.3857
20
-12.3943
11
28.2905
21
-12.2038
0
LINE
8
BLACK
6
CONTINUOUS
10
28.2905
20
-12.2038
11
28.1952
21
-11.8229
0
LINE
8
BLACK
6
CONTINUOUS
10
28.1952
20
-11.8229
11
28.1952
21
-11.3467
0
LINE
8
BLACK
6
CONTINUOUS
10
28.1952
20
-11.3467
11
28.2905
21
-10.9657
0
LINE
8
BLACK
6
CONTINUOUS
10
28.2905
20
-10.9657
11
28.3857
21
-10.7752
0
LINE
8
BLACK
6
CONTINUOUS
10
28.3857
20
-10.7752
11
28.481
21
-10.68
0
LINE
8
BLACK
6
CONTINUOUS
10
28.481
20
-10.68
11
28.6714
21
-10.5848
0
LINE
8
BLACK
6
CONTINUOUS
10
30.5762
20
-10.5848
11
30.7667
21
-10.5848
0
LINE
8
BLACK
6
CONTINUOUS
10
30.7667
20
-10.5848
11
30.9571
21
-10.68
0
LINE
8
BLACK
6
CONTINUOUS
10
30.9571
20
-10.68
11
31.0524
21
-10.7752
0
LINE
8
BLACK
6
CONTINUOUS
10
31.0524
20
-10.7752
11
31.1476
21
-10.9657
0
LINE
8
BLACK
6
CONTINUOUS
10
31.1476
20
-10.9657
11
31.2429
21
-11.3467
0
LINE
8
BLACK
6
CONTINUOUS
10
31.2429
20
-11.3467
11
31.2429
21
-11.8229
0
LINE
8
BLACK
6
CONTINUOUS
10
31.2429
20
-11.8229
11
31.1476
21
-12.2038
0
LINE
8
BLACK
6
CONTINUOUS
10
31.1476
20
-12.2038
11
31.0524
21
-12.3943
0
LINE
8
BLACK
6
CONTINUOUS
10
31.0524
20
-12.3943
11
30.9571
21
-12.4895
0
LINE
8
BLACK
6
CONTINUOUS
10
30.9571
20
-12.4895
11
30.7667
21
-12.5848
0
LINE
8
BLACK
6
CONTINUOUS
10
30.7667
20
-12.5848
11
30.5762
21
-12.5848
0
LINE
8
BLACK
6
CONTINUOUS
10
30.5762
20
-12.5848
11
30.3857
21
-12.4895
0
LINE
8
BLACK
6
CONTINUOUS
10
30.3857
20
-12.4895
11
30.2905
21
-12.3943
0
LINE
8
BLACK
6
CONTINUOUS
10
30.2905
20
-12.3943
11
30.1952
21
-12.2038
0
LINE
8
BLACK
6
CONTINUOUS
10
30.1952
20
-12.2038
11
30.1
21
-11.8229
0
LINE
8
BLACK
6
CONTINUOUS
10
30.1
20
-11.8229
11
30.1
21
-11.3467
0
LINE
8
BLACK
6
CONTINUOUS
10
30.1
20
-11.3467
11
30.1952
21
-10.9657
0
LINE
8
BLACK
6
CONTINUOUS
10
30.1952
20
-10.9657
11
30.2905
21
-10.7752
0
LINE
8
BLACK
6
CONTINUOUS
10
30.2905
20
-10.7752
11
30.3857
21
-10.68
0
LINE
8
BLACK
6
CONTINUOUS
10
30.3857
20
-10.68
11
30.5762
21
-10.5848
0
LINE
8
BLACK
6
CONTINUOUS
10
32.0048
20
-10.5848
11
32.0048
21
-10.9657
0
LINE
8
BLACK
6
CONTINUOUS
10
32.7667
20
-10.5848
11
32.7667
21
-10.9657
0
LINE
8
BLACK
6
CONTINUOUS
10
35.719
20
-13.3467
11
35.6238
21
-13.2514
0
LINE
8
BLACK
6
CONTINUOUS
10
35.6238
20
-13.2514
11
35.4333
21
-12.9657
0
LINE
8
BLACK
6
CONTINUOUS
10
35.4333
20
-12.9657
11
35.3381
21
-12.7752
0
LINE
8
BLACK
6
CONTINUOUS
10
35.3381
20
-12.7752
11
35.2429
21
-12.4895
0
LINE
8
BLACK
6
CONTINUOUS
10
35.2429
20
-12.4895
11
35.1476
21
-12.0133
0
LINE
8
BLACK
6
CONTINUOUS
10
35.1476
20
-12.0133
11
35.1476
21
-11.6324
0
LINE
8
BLACK
6
CONTINUOUS
10
35.1476
20
-11.6324
11
35.2429
21
-11.1562
0
LINE
8
BLACK
6
CONTINUOUS
10
35.2429
20
-11.1562
11
35.3381
21
-10.8705
0
LINE
8
BLACK
6
CONTINUOUS
10
35.3381
20
-10.8705
11
35.4333
21
-10.68
0
LINE
8
BLACK
6
CONTINUOUS
10
35.4333
20
-10.68
11
35.6238
21
-10.3943
0
LINE
8
BLACK
6
CONTINUOUS
10
35.6238
20
-10.3943
11
35.719
21
-10.299
0
LINE
8
BLACK
6
CONTINUOUS
10
36.2905
20
-10.5848
11
37.6238
21
-10.5848
0
LINE
8
BLACK
6
CONTINUOUS
10
37.6238
20
-10.5848
11
36.7667
21
-12.5848
0
LINE
8
BLACK
6
CONTINUOUS
10
38.2905
20
-10.7752
11
38.3857
21
-10.68
0
LINE
8
BLACK
6
CONTINUOUS
10
38.3857
20
-10.68
11
38.5762
21
-10.5848
0
LINE
8
BLACK
6
CONTINUOUS
10
38.5762
20
-10.5848
11
39.0524
21
-10.5848
0
LINE
8
BLACK
6
CONTINUOUS
10
39.0524
20
-10.5848
11
39.2429
21
-10.68
0
LINE
8
BLACK
6
CONTINUOUS
10
39.2429
20
-10.68
11
39.3381
21
-10.7752
0
LINE
8
BLACK
6
CONTINUOUS
10
39.3381
20
-10.7752
11
39.4333
21
-10.9657
0
LINE
8
BLACK
6
CONTINUOUS
10
39.4333
20
-10.9657
11
39.4333
21
-11.1562
0
LINE
8
BLACK
6
CONTINUOUS
10
39.4333
20
-11.1562
11
39.3381
21
-11.4419
0
LINE
8
BLACK
6
CONTINUOUS
10
39.3381
20
-11.4419
11
38.1952
21
-12.5848
0
LINE
8
BLACK
6
CONTINUOUS
10
38.1952
20
-12.5848
11
39.4333
21
-12.5848
0
LINE
8
BLACK
6
CONTINUOUS
10
41.8143
20
-12.5848
11
41.8143
21
-10.5848
0
LINE
8
BLACK
6
CONTINUOUS
10
42.6714
20
-12.5848
11
42.6714
21
-11.5371
0
LINE
8
BLACK
6
CONTINUOUS
10
42.6714
20
-11.5371
11
42.5762
21
-11.3467
0
LINE
8
BLACK
6
CONTINUOUS
10
42.5762
20
-11.3467
11
42.3857
21
-11.2514
0
LINE
8
BLACK
6
CONTINUOUS
10
42.3857
20
-11.2514
11
42.1
21
-11.2514
0
LINE
8
BLACK
6
CONTINUOUS
10
42.1
20
-11.2514
11
41.9095
21
-11.3467
0
LINE
8
BLACK
6
CONTINUOUS
10
41.9095
20
-11.3467
11
41.8143
21
-11.4419
0
LINE
8
BLACK
6
CONTINUOUS
10
43.9095
20
-12.5848
11
43.719
21
-12.4895
0
LINE
8
BLACK
6
CONTINUOUS
10
43.719
20
-12.4895
11
43.6238
21
-12.3943
0
LINE
8
BLACK
6
CONTINUOUS
10
43.6238
20
-12.3943
11
43.5286
21
-12.2038
0
LINE
8
BLACK
6
CONTINUOUS
10
43.5286
20
-12.2038
11
43.5286
21
-11.6324
0
LINE
8
BLACK
6
CONTINUOUS
10
43.5286
20
-11.6324
11
43.6238
21
-11.4419
0
LINE
8
BLACK
6
CONTINUOUS
10
43.6238
20
-11.4419
11
43.719
21
-11.3467
0
LINE
8
BLACK
6
CONTINUOUS
10
43.719
20
-11.3467
11
43.9095
21
-11.2514
0
LINE
8
BLACK
6
CONTINUOUS
10
43.9095
20
-11.2514
11
44.1952
21
-11.2514
0
LINE
8
BLACK
6
CONTINUOUS
10
44.1952
20
-11.2514
11
44.3857
21
-11.3467
0
LINE
8
BLACK
6
CONTINUOUS
10
44.3857
20
-11.3467
11
44.481
21
-11.4419
0
LINE
8
BLACK
6
CONTINUOUS
10
44.481
20
-11.4419
11
44.5762
21
-11.6324
0
LINE
8
BLACK
6
CONTINUOUS
10
44.5762
20
-11.6324
11
44.5762
21
-12.2038
0
LINE
8
BLACK
6
CONTINUOUS
10
44.5762
20
-12.2038
11
44.481
21
-12.3943
0
LINE
8
BLACK
6
CONTINUOUS
10
44.481
20
-12.3943
11
44.3857
21
-12.4895
0
LINE
8
BLACK
6
CONTINUOUS
10
44.3857
20
-12.4895
11
44.1952
21
-12.5848
0
LINE
8
BLACK
6
CONTINUOUS
10
44.1952
20
-12.5848
11
43.9095
21
-12.5848
0
LINE
8
BLACK
6
CONTINUOUS
10
45.719
20
-12.5848
11
45.5286
21
-12.4895
0
LINE
8
BLACK
6
CONTINUOUS
10
45.5286
20
-12.4895
11
45.4333
21
-12.299
0
LINE
8
BLACK
6
CONTINUOUS
10
45.4333
20
-12.299
11
45.4333
21
-10.5848
0
LINE
8
BLACK
6
CONTINUOUS
10
47.2429
20
-12.4895
11
47.0524
21
-12.5848
0
LINE
8
BLACK
6
CONTINUOUS
10
47.0524
20
-12.5848
11
46.6714
21
-12.5848
0
LINE
8
BLACK
6
CONTINUOUS
10
46.6714
20
-12.5848
11
46.481
21
-12.4895
0
LINE
8
BLACK
6
CONTINUOUS
10
46.481
20
-12.4895
11
46.3857
21
-12.299
0
LINE
8
BLACK
6
CONTINUOUS
10
46.3857
20
-12.299
11
46.3857
21
-11.5371
0
LINE
8
BLACK
6
CONTINUOUS
10
46.3857
20
-11.5371
11
46.481
21
-11.3467
0
LINE
8
BLACK
6
CONTINUOUS
10
46.481
20
-11.3467
11
46.6714
21
-11.2514
0
LINE
8
BLACK
6
CONTINUOUS
10
46.6714
20
-11.2514
11
47.0524
21
-11.2514
0
LINE
8
BLACK
6
CONTINUOUS
10
47.0524
20
-11.2514
11
47.2429
21
-11.3467
0
LINE
8
BLACK
6
CONTINUOUS
10
47.2429
20
-11.3467
11
47.3381
21
-11.5371
0
LINE
8
BLACK
6
CONTINUOUS
10
47.3381
20
-11.5371
11
47.3381
21
-11.7276
0
LINE
8
BLACK
6
CONTINUOUS
10
47.3381
20
-11.7276
11
46.3857
21
-11.9181
0
LINE
8
BLACK
6
CONTINUOUS
10
48.1
20
-12.4895
11
48.2905
21
-12.5848
0
LINE
8
BLACK
6
CONTINUOUS
10
48.2905
20
-12.5848
11
48.6714
21
-12.5848
0
LINE
8
BLACK
6
CONTINUOUS
10
48.6714
20
-12.5848
11
48.8619
21
-12.4895
0
LINE
8
BLACK
6
CONTINUOUS
10
48.8619
20
-12.4895
11
48.9571
21
-12.299
0
LINE
8
BLACK
6
CONTINUOUS
10
48.9571
20
-12.299
11
48.9571
21
-12.2038
0
LINE
8
BLACK
6
CONTINUOUS
10
48.9571
20
-12.2038
11
48.8619
21
-12.0133
0
LINE
8
BLACK
6
CONTINUOUS
10
48.8619
20
-12.0133
11
48.6714
21
-11.9181
0
LINE
8
BLACK
6
CONTINUOUS
10
48.6714
20
-11.9181
11
48.3857
21
-11.9181
0
LINE
8
BLACK
6
CONTINUOUS
10
48.3857
20
-11.9181
11
48.1952
21
-11.8229
0
LINE
8
BLACK
6
CONTINUOUS
10
48.1952
20
-11.8229
11
48.1
21
-11.6324
0
LINE
8
BLACK
6
CONTINUOUS
10
48.1
20
-11.6324
11
48.1
21
-11.5371
0
LINE
8
BLACK
6
CONTINUOUS
10
48.1
20
-11.5371
11
48.1952
21
-11.3467
0
LINE
8
BLACK
6
CONTINUOUS
10
48.1952
20
-11.3467
11
48.3857
21
-11.2514
0
LINE
8
BLACK
6
CONTINUOUS
10
48.3857
20
-11.2514
11
48.6714
21
-11.2514
0
LINE
8
BLACK
6
CONTINUOUS
10
48.6714
20
-11.2514
11
48.8619
21
-11.3467
0
LINE
8
BLACK
6
CONTINUOUS
10
49.6238
20
-13.3467
11
49.719
21
-13.2514
0
LINE
8
BLACK
6
CONTINUOUS
10
49.719
20
-13.2514
11
49.9095
21
-12.9657
0
LINE
8
BLACK
6
CONTINUOUS
10
49.9095
20
-12.9657
11
50.0048
21
-12.7752
0
LINE
8
BLACK
6
CONTINUOUS
10
50.0048
20
-12.7752
11
50.1
21
-12.4895
0
LINE
8
BLACK
6
CONTINUOUS
10
50.1
20
-12.4895
11
50.1952
21
-12.0133
0
LINE
8
BLACK
6
CONTINUOUS
10
50.1952
20
-12.0133
11
50.1952
21
-11.6324
0
LINE
8
BLACK
6
CONTINUOUS
10
50.1952
20
-11.6324
11
50.1
21
-11.1562
0
LINE
8
BLACK
6
CONTINUOUS
10
50.1
20
-11.1562
11
50.0048
21
-10.8705
0
LINE
8
BLACK
6
CONTINUOUS
10
50.0048
20
-10.8705
11
49.9095
21
-10.68
0
LINE
8
BLACK
6
CONTINUOUS
10
49.9095
20
-10.68
11
49.719
21
-10.3943
0
LINE
8
BLACK
6
CONTINUOUS
10
49.719
20
-10.3943
11
49.6238
21
-10.299
0
LINE
8
BLACK
6
CONTINUOUS
10
-0.117155
20
-14.6028
11
-0.117155
21
-14.0372
0
LINE
8
BLACK
6
CONTINUOUS
10
-0.117155
20
-14.0372
11
-0.682845
21
-14.0372
0
LINE
8
BLACK
6
CONTINUOUS
10
-0.682845
20
-14.0372
11
-0.682845
21
-14.6028
0
LINE
8
BLACK
6
CONTINUOUS
10
-0.682845
20
-14.6028
11
-0.117155
21
-14.6028
0
LINE
8
BLACK
6
CONTINUOUS
10
2.95714
20
-13.2248
11
3.14762
21
-13.2248
0
LINE
8
BLACK
6
CONTINUOUS
10
3.14762
20
-13.2248
11
3.3381
21
-13.32
0
LINE
8
BLACK
6
CONTINUOUS
10
3.3381
20
-13.32
11
3.43333
21
-13.4152
0
LINE
8
BLACK
6
CONTINUOUS
10
3.43333
20
-13.4152
11
3.52857
21
-13.6057
0
LINE
8
BLACK
6
CONTINUOUS
10
3.52857
20
-13.6057
11
3.62381
21
-13.9867
0
LINE
8
BLACK
6
CONTINUOUS
10
3.62381
20
-13.9867
11
3.62381
21
-14.4629
0
LINE
8
BLACK
6
CONTINUOUS
10
3.62381
20
-14.4629
11
3.52857
21
-14.8438
0
LINE
8
BLACK
6
CONTINUOUS
10
3.52857
20
-14.8438
11
3.43333
21
-15.0343
0
LINE
8
BLACK
6
CONTINUOUS
10
3.43333
20
-15.0343
11
3.3381
21
-15.1295
0
LINE
8
BLACK
6
CONTINUOUS
10
3.3381
20
-15.1295
11
3.14762
21
-15.2248
0
LINE
8
BLACK
6
CONTINUOUS
10
3.14762
20
-15.2248
11
2.95714
21
-15.2248
0
LINE
8
BLACK
6
CONTINUOUS
10
2.95714
20
-15.2248
11
2.76667
21
-15.1295
0
LINE
8
BLACK
6
CONTINUOUS
10
2.76667
20
-15.1295
11
2.67143
21
-15.0343
0
LINE
8
BLACK
6
CONTINUOUS
10
2.67143
20
-15.0343
11
2.57619
21
-14.8438
0
LINE
8
BLACK
6
CONTINUOUS
10
2.57619
20
-14.8438
11
2.48095
21
-14.4629
0
LINE
8
BLACK
6
CONTINUOUS
10
2.48095
20
-14.4629
11
2.48095
21
-13.9867
0
LINE
8
BLACK
6
CONTINUOUS
10
2.48095
20
-13.9867
11
2.57619
21
-13.6057
0
LINE
8
BLACK
6
CONTINUOUS
10
2.57619
20
-13.6057
11
2.67143
21
-13.4152
0
LINE
8
BLACK
6
CONTINUOUS
10
2.67143
20
-13.4152
11
2.76667
21
-13.32
0
LINE
8
BLACK
6
CONTINUOUS
10
2.76667
20
-13.32
11
2.95714
21
-13.2248
0
LINE
8
BLACK
6
CONTINUOUS
10
4.48095
20
-15.0343
11
4.57619
21
-15.1295
0
LINE
8
BLACK
6
CONTINUOUS
10
4.57619
20
-15.1295
11
4.48095
21
-15.2248
0
LINE
8
BLACK
6
CONTINUOUS
10
4.48095
20
-15.2248
11
4.38571
21
-15.1295
0
LINE
8
BLACK
6
CONTINUOUS
10
4.38571
20
-15.1295
11
4.48095
21
-15.0343
0
LINE
8
BLACK
6
CONTINUOUS
10
4.48095
20
-15.0343
11
4.48095
21
-15.2248
0
LINE
8
BLACK
6
CONTINUOUS
10
5.71905
20
-14.0819
11
5.52857
21
-13.9867
0
LINE
8
BLACK
6
CONTINUOUS
10
5.52857
20
-13.9867
11
5.43333
21
-13.8914
0
LINE
8
BLACK
6
CONTINUOUS
10
5.43333
20
-13.8914
11
5.3381
21
-13.701
0
LINE
8
BLACK
6
CONTINUOUS
10
5.3381
20
-13.701
11
5.3381
21
-13.6057
0
LINE
8
BLACK
6
CONTINUOUS
10
5.3381
20
-13.6057
11
5.43333
21
-13.4152
0
LINE
8
BLACK
6
CONTINUOUS
10
5.43333
20
-13.4152
11
5.52857
21
-13.32
0
LINE
8
BLACK
6
CONTINUOUS
10
5.52857
20
-13.32
11
5.71905
21
-13.2248
0
LINE
8
BLACK
6
CONTINUOUS
10
5.71905
20
-13.2248
11
6.1
21
-13.2248
0
LINE
8
BLACK
6
CONTINUOUS
10
6.1
20
-13.2248
11
6.29048
21
-13.32
0
LINE
8
BLACK
6
CONTINUOUS
10
6.29048
20
-13.32
11
6.38571
21
-13.4152
0
LINE
8
BLACK
6
CONTINUOUS
10
6.38571
20
-13.4152
11
6.48095
21
-13.6057
0
LINE
8
BLACK
6
CONTINUOUS
10
6.48095
20
-13.6057
11
6.48095
21
-13.701
0
LINE
8
BLACK
6
CONTINUOUS
10
6.48095
20
-13.701
11
6.38571
21
-13.8914
0
LINE
8
BLACK
6
CONTINUOUS
10
6.38571
20
-13.8914
11
6.29048
21
-13.9867
0
LINE
8
BLACK
6
CONTINUOUS
10
6.29048
20
-13.9867
11
6.1
21
-14.0819
0
LINE
8
BLACK
6
CONTINUOUS
10
6.1
20
-14.0819
11
5.71905
21
-14.0819
0
LINE
8
BLACK
6
CONTINUOUS
10
5.71905
20
-14.0819
11
5.52857
21
-14.1771
0
LINE
8
BLACK
6
CONTINUOUS
10
5.52857
20
-14.1771
11
5.43333
21
-14.2724
0
LINE
8
BLACK
6
CONTINUOUS
10
5.43333
20
-14.2724
11
5.3381
21
-14.4629
0
LINE
8
BLACK
6
CONTINUOUS
10
5.3381
20
-14.4629
11
5.3381
21
-14.8438
0
LINE
8
BLACK
6
CONTINUOUS
10
5.3381
20
-14.8438
11
5.43333
21
-15.0343
0
LINE
8
BLACK
6
CONTINUOUS
10
5.43333
20
-15.0343
11
5.52857
21
-15.1295
0
LINE
8
BLACK
6
CONTINUOUS
10
5.52857
20
-15.1295
11
5.71905
21
-15.2248
0
LINE
8
BLACK
6
CONTINUOUS
10
5.71905
20
-15.2248
11
6.1
21
-15.2248
0
LINE
8
BLACK
6
CONTINUOUS
10
6.1
20
-15.2248
11
6.29048
21
-15.1295
0
LINE
8
BLACK
6
CONTINUOUS
10
6.29048
20
-15.1295
11
6.38571
21
-15.0343
0
LINE
8
BLACK
6
CONTINUOUS
10
6.38571
20
-15.0343
11
6.48095
21
-14.8438
0
LINE
8
BLACK
6
CONTINUOUS
10
6.48095
20
-14.8438
11
6.48095
21
-14.4629
0
LINE
8
BLACK
6
CONTINUOUS
10
6.48095
20
-14.4629
11
6.38571
21
-14.2724
0
LINE
8
BLACK
6
CONTINUOUS
10
6.38571
20
-14.2724
11
6.29048
21
-14.1771
0
LINE
8
BLACK
6
CONTINUOUS
10
6.29048
20
-14.1771
11
6.1
21
-14.0819
0
LINE
8
BLACK
6
CONTINUOUS
10
7.71905
20
-13.2248
11
7.90952
21
-13.2248
0
LINE
8
BLACK
6
CONTINUOUS
10
7.90952
20
-13.2248
11
8.1
21
-13.32
0
LINE
8
BLACK
6
CONTINUOUS
10
8.1
20
-13.32
11
8.19524
21
-13.4152
0
LINE
8
BLACK
6
CONTINUOUS
10
8.19524
20
-13.4152
11
8.29048
21
-13.6057
0
LINE
8
BLACK
6
CONTINUOUS
10
8.29048
20
-13.6057
11
8.38571
21
-13.9867
0
LINE
8
BLACK
6
CONTINUOUS
10
8.38571
20
-13.9867
11
8.38571
21
-14.4629
0
LINE
8
BLACK
6
CONTINUOUS
10
8.38571
20
-14.4629
11
8.29048
21
-14.8438
0
LINE
8
BLACK
6
CONTINUOUS
10
8.29048
20
-14.8438
11
8.19524
21
-15.0343
0
LINE
8
BLACK
6
CONTINUOUS
10
8.19524
20
-15.0343
11
8.1
21
-15.1295
0
LINE
8
BLACK
6
CONTINUOUS
10
8.1
20
-15.1295
11
7.90952
21
-15.2248
0
LINE
8
BLACK
6
CONTINUOUS
10
7.90952
20
-15.2248
11
7.71905
21
-15.2248
0
LINE
8
BLACK
6
CONTINUOUS
10
7.71905
20
-15.2248
11
7.52857
21
-15.1295
0
LINE
8
BLACK
6
CONTINUOUS
10
7.52857
20
-15.1295
11
7.43333
21
-15.0343
0
LINE
8
BLACK
6
CONTINUOUS
10
7.43333
20
-15.0343
11
7.3381
21
-14.8438
0
LINE
8
BLACK
6
CONTINUOUS
10
7.3381
20
-14.8438
11
7.24286
21
-14.4629
0
LINE
8
BLACK
6
CONTINUOUS
10
7.24286
20
-14.4629
11
7.24286
21
-13.9867
0
LINE
8
BLACK
6
CONTINUOUS
10
7.24286
20
-13.9867
11
7.3381
21
-13.6057
0
LINE
8
BLACK
6
CONTINUOUS
10
7.3381
20
-13.6057
11
7.43333
21
-13.4152
0
LINE
8
BLACK
6
CONTINUOUS
10
7.43333
20
-13.4152
11
7.52857
21
-13.32
0
LINE
8
BLACK
6
CONTINUOUS
10
7.52857
20
-13.32
11
7.71905
21
-13.2248
0
LINE
8
BLACK
6
CONTINUOUS
10
9.62381
20
-13.2248
11
9.81428
21
-13.2248
0
LINE
8
BLACK
6
CONTINUOUS
10
9.81428
20
-13.2248
11
10.0048
21
-13.32
0
LINE
8
BLACK
6
CONTINUOUS
10
10.0048
20
-13.32
11
10.1
21
-13.4152
0
LINE
8
BLACK
6
CONTINUOUS
10
10.1
20
-13.4152
11
10.1952
21
-13.6057
0
LINE
8
BLACK
6
CONTINUOUS
10
10.1952
20
-13.6057
11
10.2905
21
-13.9867
0
LINE
8
BLACK
6
CONTINUOUS
10
10.2905
20
-13.9867
11
10.2905
21
-14.4629
0
LINE
8
BLACK
6
CONTINUOUS
10
10.2905
20
-14.4629
11
10.1952
21
-14.8438
0
LINE
8
BLACK
6
CONTINUOUS
10
10.1952
20
-14.8438
11
10.1
21
-15.0343
0
LINE
8
BLACK
6
CONTINUOUS
10
10.1
20
-15.0343
11
10.0048
21
-15.1295
0
LINE
8
BLACK
6
CONTINUOUS
10
10.0048
20
-15.1295
11
9.81428
21
-15.2248
0
LINE
8
BLACK
6
CONTINUOUS
10
9.81428
20
-15.2248
11
9.62381
21
-15.2248
0
LINE
8
BLACK
6
CONTINUOUS
10
9.62381
20
-15.2248
11
9.43333
21
-15.1295
0
LINE
8
BLACK
6
CONTINUOUS
10
9.43333
20
-15.1295
11
9.33809
21
-15.0343
0
LINE
8
BLACK
6
CONTINUOUS
10
9.33809
20
-15.0343
11
9.24286
21
-14.8438
0
LINE
8
BLACK
6
CONTINUOUS
10
9.24286
20
-14.8438
11
9.14762
21
-14.4629
0
LINE
8
BLACK
6
CONTINUOUS
10
9.14762
20
-14.4629
11
9.14762
21
-13.9867
0
LINE
8
BLACK
6
CONTINUOUS
10
9.14762
20
-13.9867
11
9.24286
21
-13.6057
0
LINE
8
BLACK
6
CONTINUOUS
10
9.24286
20
-13.6057
11
9.33809
21
-13.4152
0
LINE
8
BLACK
6
CONTINUOUS
10
9.33809
20
-13.4152
11
9.43333
21
-13.32
0
LINE
8
BLACK
6
CONTINUOUS
10
9.43333
20
-13.32
11
9.62381
21
-13.2248
0
LINE
8
BLACK
6
CONTINUOUS
10
11.1476
20
-15.2248
11
11.1476
21
-13.8914
0
LINE
8
BLACK
6
CONTINUOUS
10
11.1476
20
-14.0819
11
11.2429
21
-13.9867
0
LINE
8
BLACK
6
CONTINUOUS
10
11.2429
20
-13.9867
11
11.4333
21
-13.8914
0
LINE
8
BLACK
6
CONTINUOUS
10
11.4333
20
-13.8914
11
11.719
21
-13.8914
0
LINE
8
BLACK
6
CONTINUOUS
10
11.719
20
-13.8914
11
11.9095
21
-13.9867
0
LINE
8
BLACK
6
CONTINUOUS
10
11.9095
20
-13.9867
11
12.0048
21
-14.1771
0
LINE
8
BLACK
6
CONTINUOUS
10
12.0048
20
-14.1771
11
12.0048
21
-15.2248
0
LINE
8
BLACK
6
CONTINUOUS
10
12.0048
20
-14.1771
11
12.1
21
-13.9867
0
LINE
8
BLACK
6
CONTINUOUS
10
12.1
20
-13.9867
11
12.2905
21
-13.8914
0
LINE
8
BLACK
6
CONTINUOUS
10
12.2905
20
-13.8914
11
12.5762
21
-13.8914
0
LINE
8
BLACK
6
CONTINUOUS
10
12.5762
20
-13.8914
11
12.7667
21
-13.9867
0
LINE
8
BLACK
6
CONTINUOUS
10
12.7667
20
-13.9867
11
12.8619
21
-14.1771
0
LINE
8
BLACK
6
CONTINUOUS
10
12.8619
20
-14.1771
11
12.8619
21
-15.2248
0
LINE
8
BLACK
6
CONTINUOUS
10
13.8143
20
-15.2248
11
13.8143
21
-13.8914
0
LINE
8
BLACK
6
CONTINUOUS
10
13.8143
20
-14.0819
11
13.9095
21
-13.9867
0
LINE
8
BLACK
6
CONTINUOUS
10
13.9095
20
-13.9867
11
14.1
21
-13.8914
0
LINE
8
BLACK
6
CONTINUOUS
10
14.1
20
-13.8914
11
14.3857
21
-13.8914
0
LINE
8
BLACK
6
CONTINUOUS
10
14.3857
20
-13.8914
11
14.5762
21
-13.9867
0
LINE
8
BLACK
6
CONTINUOUS
10
14.5762
20
-13.9867
11
14.6714
21
-14.1771
0
LINE
8
BLACK
6
CONTINUOUS
10
14.6714
20
-14.1771
11
14.6714
21
-15.2248
0
LINE
8
BLACK
6
CONTINUOUS
10
14.6714
20
-14.1771
11
14.7667
21
-13.9867
0
LINE
8
BLACK
6
CONTINUOUS
10
14.7667
20
-13.9867
11
14.9571
21
-13.8914
0
LINE
8
BLACK
6
CONTINUOUS
10
14.9571
20
-13.8914
11
15.2429
21
-13.8914
0
LINE
8
BLACK
6
CONTINUOUS
10
15.2429
20
-13.8914
11
15.4333
21
-13.9867
0
LINE
8
BLACK
6
CONTINUOUS
10
15.4333
20
-13.9867
11
15.5286
21
-14.1771
0
LINE
8
BLACK
6
CONTINUOUS
10
15.5286
20
-14.1771
11
15.5286
21
-15.2248
0
LINE
8
BLACK
6
CONTINUOUS
10
19.4333
20
-13.1295
11
17.719
21
-15.701
0
LINE
8
BLACK
6
CONTINUOUS
10
22.0048
20
-13.2248
11
22.1952
21
-13.2248
0
LINE
8
BLACK
6
CONTINUOUS
10
22.1952
20
-13.2248
11
22.3857
21
-13.32
0
LINE
8
BLACK
6
CONTINUOUS
10
22.3857
20
-13.32
11
22.481
21
-13.4152
0
LINE
8
BLACK
6
CONTINUOUS
10
22.481
20
-13.4152
11
22.5762
21
-13.6057
0
LINE
8
BLACK
6
CONTINUOUS
10
22.5762
20
-13.6057
11
22.6714
21
-13.9867
0
LINE
8
BLACK
6
CONTINUOUS
10
22.6714
20
-13.9867
11
22.6714
21
-14.4629
0
LINE
8
BLACK
6
CONTINUOUS
10
22.6714
20
-14.4629
11
22.5762
21
-14.8438
0
LINE
8
BLACK
6
CONTINUOUS
10
22.5762
20
-14.8438
11
22.481
21
-15.0343
0
LINE
8
BLACK
6
CONTINUOUS
10
22.481
20
-15.0343
11
22.3857
21
-15.1295
0
LINE
8
BLACK
6
CONTINUOUS
10
22.3857
20
-15.1295
11
22.1952
21
-15.2248
0
LINE
8
BLACK
6
CONTINUOUS
10
22.1952
20
-15.2248
11
22.0048
21
-15.2248
0
LINE
8
BLACK
6
CONTINUOUS
10
22.0048
20
-15.2248
11
21.8143
21
-15.1295
0
LINE
8
BLACK
6
CONTINUOUS
10
21.8143
20
-15.1295
11
21.719
21
-15.0343
0
LINE
8
BLACK
6
CONTINUOUS
10
21.719
20
-15.0343
11
21.6238
21
-14.8438
0
LINE
8
BLACK
6
CONTINUOUS
10
21.6238
20
-14.8438
11
21.5286
21
-14.4629
0
LINE
8
BLACK
6
CONTINUOUS
10
21.5286
20
-14.4629
11
21.5286
21
-13.9867
0
LINE
8
BLACK
6
CONTINUOUS
10
21.5286
20
-13.9867
11
21.6238
21
-13.6057
0
LINE
8
BLACK
6
CONTINUOUS
10
21.6238
20
-13.6057
11
21.719
21
-13.4152
0
LINE
8
BLACK
6
CONTINUOUS
10
21.719
20
-13.4152
11
21.8143
21
-13.32
0
LINE
8
BLACK
6
CONTINUOUS
10
21.8143
20
-13.32
11
22.0048
21
-13.2248
0
LINE
8
BLACK
6
CONTINUOUS
10
23.5286
20
-15.0343
11
23.6238
21
-15.1295
0
LINE
8
BLACK
6
CONTINUOUS
10
23.6238
20
-15.1295
11
23.5286
21
-15.2248
0
LINE
8
BLACK
6
CONTINUOUS
10
23.5286
20
-15.2248
11
23.4333
21
-15.1295
0
LINE
8
BLACK
6
CONTINUOUS
10
23.4333
20
-15.1295
11
23.5286
21
-15.0343
0
LINE
8
BLACK
6
CONTINUOUS
10
23.5286
20
-15.0343
11
23.5286
21
-15.2248
0
LINE
8
BLACK
6
CONTINUOUS
10
24.8619
20
-13.2248
11
25.0524
21
-13.2248
0
LINE
8
BLACK
6
CONTINUOUS
10
25.0524
20
-13.2248
11
25.2429
21
-13.32
0
LINE
8
BLACK
6
CONTINUOUS
10
25.2429
20
-13.32
11
25.3381
21
-13.4152
0
LINE
8
BLACK
6
CONTINUOUS
10
25.3381
20
-13.4152
11
25.4333
21
-13.6057
0
LINE
8
BLACK
6
CONTINUOUS
10
25.4333
20
-13.6057
11
25.5286
21
-13.9867
0
LINE
8
BLACK
6
CONTINUOUS
10
25.5286
20
-13.9867
11
25.5286
21
-14.4629
0
LINE
8
BLACK
6
CONTINUOUS
10
25.5286
20
-14.4629
11
25.4333
21
-14.8438
0
LINE
8
BLACK
6
CONTINUOUS
10
25.4333
20
-14.8438
11
25.3381
21
-15.0343
0
LINE
8
BLACK
6
CONTINUOUS
10
25.3381
20
-15.0343
11
25.2429
21
-15.1295
0
LINE
8
BLACK
6
CONTINUOUS
10
25.2429
20
-15.1295
11
25.0524
21
-15.2248
0
LINE
8
BLACK
6
CONTINUOUS
10
25.0524
20
-15.2248
11
24.8619
21
-15.2248
0
LINE
8
BLACK
6
CONTINUOUS
10
24.8619
20
-15.2248
11
24.6714
21
-15.1295
0
LINE
8
BLACK
6
CONTINUOUS
10
24.6714
20
-15.1295
11
24.5762
21
-15.0343
0
LINE
8
BLACK
6
CONTINUOUS
10
24.5762
20
-15.0343
11
24.481
21
-14.8438
0
LINE
8
BLACK
6
CONTINUOUS
10
24.481
20
-14.8438
11
24.3857
21
-14.4629
0
LINE
8
BLACK
6
CONTINUOUS
10
24.3857
20
-14.4629
11
24.3857
21
-13.9867
0
LINE
8
BLACK
6
CONTINUOUS
10
24.3857
20
-13.9867
11
24.481
21
-13.6057
0
LINE
8
BLACK
6
CONTINUOUS
10
24.481
20
-13.6057
11
24.5762
21
-13.4152
0
LINE
8
BLACK
6
CONTINUOUS
10
24.5762
20
-13.4152
11
24.6714
21
-13.32
0
LINE
8
BLACK
6
CONTINUOUS
10
24.6714
20
-13.32
11
24.8619
21
-13.2248
0
LINE
8
BLACK
6
CONTINUOUS
10
26.1952
20
-13.2248
11
27.4333
21
-13.2248
0
LINE
8
BLACK
6
CONTINUOUS
10
27.4333
20
-13.2248
11
26.7667
21
-13.9867
0
LINE
8
BLACK
6
CONTINUOUS
10
26.7667
20
-13.9867
11
27.0524
21
-13.9867
0
LINE
8
BLACK
6
CONTINUOUS
10
27.0524
20
-13.9867
11
27.2429
21
-14.0819
0
LINE
8
BLACK
6
CONTINUOUS
10
27.2429
20
-14.0819
11
27.3381
21
-14.1771
0
LINE
8
BLACK
6
CONTINUOUS
10
27.3381
20
-14.1771
11
27.4333
21
-14.3676
0
LINE
8
BLACK
6
CONTINUOUS
10
27.4333
20
-14.3676
11
27.4333
21
-14.8438
0
LINE
8
BLACK
6
CONTINUOUS
10
27.4333
20
-14.8438
11
27.3381
21
-15.0343
0
LINE
8
BLACK
6
CONTINUOUS
10
27.3381
20
-15.0343
11
27.2429
21
-15.1295
0
LINE
8
BLACK
6
CONTINUOUS
10
27.2429
20
-15.1295
11
27.0524
21
-15.2248
0
LINE
8
BLACK
6
CONTINUOUS
10
27.0524
20
-15.2248
11
26.481
21
-15.2248
0
LINE
8
BLACK
6
CONTINUOUS
10
26.481
20
-15.2248
11
26.2905
21
-15.1295
0
LINE
8
BLACK
6
CONTINUOUS
10
26.2905
20
-15.1295
11
26.1952
21
-15.0343
0
LINE
8
BLACK
6
CONTINUOUS
10
29.3381
20
-15.2248
11
28.1952
21
-15.2248
0
LINE
8
BLACK
6
CONTINUOUS
10
28.7667
20
-15.2248
11
28.7667
21
-13.2248
0
LINE
8
BLACK
6
CONTINUOUS
10
28.7667
20
-13.2248
11
28.5762
21
-13.5105
0
LINE
8
BLACK
6
CONTINUOUS
10
28.5762
20
-13.5105
11
28.3857
21
-13.701
0
LINE
8
BLACK
6
CONTINUOUS
10
28.3857
20
-13.701
11
28.1952
21
-13.7962
0
LINE
8
BLACK
6
CONTINUOUS
10
31.1476
20
-13.2248
11
30.1952
21
-13.2248
0
LINE
8
BLACK
6
CONTINUOUS
10
30.1952
20
-13.2248
11
30.1
21
-14.1771
0
LINE
8
BLACK
6
CONTINUOUS
10
30.1
20
-14.1771
11
30.1952
21
-14.0819
0
LINE
8
BLACK
6
CONTINUOUS
10
30.1952
20
-14.0819
11
30.3857
21
-13.9867
0
LINE
8
BLACK
6
CONTINUOUS
10
30.3857
20
-13.9867
11
30.8619
21
-13.9867
0
LINE
8
BLACK
6
CONTINUOUS
10
30.8619
20
-13.9867
11
31.0524
21
-14.0819
0
LINE
8
BLACK
6
CONTINUOUS
10
31.0524
20
-14.0819
11
31.1476
21
-14.1771
0
LINE
8
BLACK
6
CONTINUOUS
10
31.1476
20
-14.1771
11
31.2429
21
-14.3676
0
LINE
8
BLACK
6
CONTINUOUS
10
31.2429
20
-14.3676
11
31.2429
21
-14.8438
0
LINE
8
BLACK
6
CONTINUOUS
10
31.2429
20
-14.8438
11
31.1476
21
-15.0343
0
LINE
8
BLACK
6
CONTINUOUS
10
31.1476
20
-15.0343
11
31.0524
21
-15.1295
0
LINE
8
BLACK
6
CONTINUOUS
10
31.0524
20
-15.1295
11
30.8619
21
-15.2248
0
LINE
8
BLACK
6
CONTINUOUS
10
30.8619
20
-15.2248
11
30.3857
21
-15.2248
0
LINE
8
BLACK
6
CONTINUOUS
10
30.3857
20
-15.2248
11
30.1952
21
-15.1295
0
LINE
8
BLACK
6
CONTINUOUS
10
30.1952
20
-15.1295
11
30.1
21
-15.0343
0
LINE
8
BLACK
6
CONTINUOUS
10
32.0048
20
-13.2248
11
32.0048
21
-13.6057
0
LINE
8
BLACK
6
CONTINUOUS
10
32.7667
20
-13.2248
11
32.7667
21
-13.6057
0
LINE
8
BLACK
6
CONTINUOUS
10
35.719
20
-15.9867
11
35.6238
21
-15.8914
0
LINE
8
BLACK
6
CONTINUOUS
10
35.6238
20
-15.8914
11
35.4333
21
-15.6057
0
LINE
8
BLACK
6
CONTINUOUS
10
35.4333
20
-15.6057
11
35.3381
21
-15.4152
0
LINE
8
BLACK
6
CONTINUOUS
10
35.3381
20
-15.4152
11
35.2429
21
-15.1295
0
LINE
8
BLACK
6
CONTINUOUS
10
35.2429
20
-15.1295
11
35.1476
21
-14.6533
0
LINE
8
BLACK
6
CONTINUOUS
10
35.1476
20
-14.6533
11
35.1476
21
-14.2724
0
LINE
8
BLACK
6
CONTINUOUS
10
35.1476
20
-14.2724
11
35.2429
21
-13.7962
0
LINE
8
BLACK
6
CONTINUOUS
10
35.2429
20
-13.7962
11
35.3381
21
-13.5105
0
LINE
8
BLACK
6
CONTINUOUS
10
35.3381
20
-13.5105
11
35.4333
21
-13.32
0
LINE
8
BLACK
6
CONTINUOUS
10
35.4333
20
-13.32
11
35.6238
21
-13.0343
0
LINE
8
BLACK
6
CONTINUOUS
10
35.6238
20
-13.0343
11
35.719
21
-12.939
0
LINE
8
BLACK
6
CONTINUOUS
10
37.5286
20
-15.2248
11
36.3857
21
-15.2248
0
LINE
8
BLACK
6
CONTINUOUS
10
36.9571
20
-15.2248
11
36.9571
21
-13.2248
0
LINE
8
BLACK
6
CONTINUOUS
10
36.9571
20
-13.2248
11
36.7667
21
-13.5105
0
LINE
8
BLACK
6
CONTINUOUS
10
36.7667
20
-13.5105
11
36.5762
21
-13.701
0
LINE
8
BLACK
6
CONTINUOUS
10
36.5762
20
-13.701
11
36.3857
21
-13.7962
0
LINE
8
BLACK
6
CONTINUOUS
10
38.7667
20
-13.2248
11
38.9571
21
-13.2248
0
LINE
8
BLACK
6
CONTINUOUS
10
38.9571
20
-13.2248
11
39.1476
21
-13.32
0
LINE
8
BLACK
6
CONTINUOUS
10
39.1476
20
-13.32
11
39.2429
21
-13.4152
0
LINE
8
BLACK
6
CONTINUOUS
10
39.2429
20
-13.4152
11
39.3381
21
-13.6057
0
LINE
8
BLACK
6
CONTINUOUS
10
39.3381
20
-13.6057
11
39.4333
21
-13.9867
0
LINE
8
BLACK
6
CONTINUOUS
10
39.4333
20
-13.9867
11
39.4333
21
-14.4629
0
LINE
8
BLACK
6
CONTINUOUS
10
39.4333
20
-14.4629
11
39.3381
21
-14.8438
0
LINE
8
BLACK
6
CONTINUOUS
10
39.3381
20
-14.8438
11
39.2429
21
-15.0343
0
LINE
8
BLACK
6
CONTINUOUS
10
39.2429
20
-15.0343
11
39.1476
21
-15.1295
0
LINE
8
BLACK
6
CONTINUOUS
10
39.1476
20
-15.1295
11
38.9571
21
-15.2248
0
LINE
8
BLACK
6
CONTINUOUS
10
38.9571
20
-15.2248
11
38.7667
21
-15.2248
0
LINE
8
BLACK
6
CONTINUOUS
10
38.7667
20
-15.2248
11
38.5762
21
-15.1295
0
LINE
8
BLACK
6
CONTINUOUS
10
38.5762
20
-15.1295
11
38.481
21
-15.0343
0
LINE
8
BLACK
6
CONTINUOUS
10
38.481
20
-15.0343
11
38.3857
21
-14.8438
0
LINE
8
BLACK
6
CONTINUOUS
10
38.3857
20
-14.8438
11
38.2905
21
-14.4629
0
LINE
8
BLACK
6
CONTINUOUS
10
38.2905
20
-14.4629
11
38.2905
21
-13.9867
0
LINE
8
BLACK
6
CONTINUOUS
10
38.2905
20
-13.9867
11
38.3857
21
-13.6057
0
LINE
8
BLACK
6
CONTINUOUS
10
38.3857
20
-13.6057
11
38.481
21
-13.4152
0
LINE
8
BLACK
6
CONTINUOUS
10
38.481
20
-13.4152
11
38.5762
21
-13.32
0
LINE
8
BLACK
6
CONTINUOUS
10
38.5762
20
-13.32
11
38.7667
21
-13.2248
0
LINE
8
BLACK
6
CONTINUOUS
10
41.8143
20
-15.2248
11
41.8143
21
-13.2248
0
LINE
8
BLACK
6
CONTINUOUS
10
42.6714
20
-15.2248
11
42.6714
21
-14.1771
0
LINE
8
BLACK
6
CONTINUOUS
10
42.6714
20
-14.1771
11
42.5762
21
-13.9867
0
LINE
8
BLACK
6
CONTINUOUS
10
42.5762
20
-13.9867
11
42.3857
21
-13.8914
0
LINE
8
BLACK
6
CONTINUOUS
10
42.3857
20
-13.8914
11
42.1
21
-13.8914
0
LINE
8
BLACK
6
CONTINUOUS
10
42.1
20
-13.8914
11
41.9095
21
-13.9867
0
LINE
8
BLACK
6
CONTINUOUS
10
41.9095
20
-13.9867
11
41.8143
21
-14.0819
0
LINE
8
BLACK
6
CONTINUOUS
10
43.9095
20
-15.2248
11
43.719
21
-15.1295
0
LINE
8
BLACK
6
CONTINUOUS
10
43.719
20
-15.1295
11
43.6238
21
-15.0343
0
LINE
8
BLACK
6
CONTINUOUS
10
43.6238
20
-15.0343
11
43.5286
21
-14.8438
0
LINE
8
BLACK
6
CONTINUOUS
10
43.5286
20
-14.8438
11
43.5286
21
-14.2724
0
LINE
8
BLACK
6
CONTINUOUS
10
43.5286
20
-14.2724
11
43.6238
21
-14.0819
0
LINE
8
BLACK
6
CONTINUOUS
10
43.6238
20
-14.0819
11
43.719
21
-13.9867
0
LINE
8
BLACK
6
CONTINUOUS
10
43.719
20
-13.9867
11
43.9095
21
-13.8914
0
LINE
8
BLACK
6
CONTINUOUS
10
43.9095
20
-13.8914
11
44.1952
21
-13.8914
0
LINE
8
BLACK
6
CONTINUOUS
10
44.1952
20
-13.8914
11
44.3857
21
-13.9867
0
LINE
8
BLACK
6
CONTINUOUS
10
44.3857
20
-13.9867
11
44.481
21
-14.0819
0
LINE
8
BLACK
6
CONTINUOUS
10
44.481
20
-14.0819
11
44.5762
21
-14.2724
0
LINE
8
BLACK
6
CONTINUOUS
10
44.5762
20
-14.2724
11
44.5762
21
-14.8438
0
LINE
8
BLACK
6
CONTINUOUS
10
44.5762
20
-14.8438
11
44.481
21
-15.0343
0
LINE
8
BLACK
6
CONTINUOUS
10
44.481
20
-15.0343
11
44.3857
21
-15.1295
0
LINE
8
BLACK
6
CONTINUOUS
10
44.3857
20
-15.1295
11
44.1952
21
-15.2248
0
LINE
8
BLACK
6
CONTINUOUS
10
44.1952
20
-15.2248
11
43.9095
21
-15.2248
0
LINE
8
BLACK
6
CONTINUOUS
10
45.719
20
-15.2248
11
45.5286
21
-15.1295
0
LINE
8
BLACK
6
CONTINUOUS
10
45.5286
20
-15.1295
11
45.4333
21
-14.939
0
LINE
8
BLACK
6
CONTINUOUS
10
45.4333
20
-14.939
11
45.4333
21
-13.2248
0
LINE
8
BLACK
6
CONTINUOUS
10
47.2429
20
-15.1295
11
47.0524
21
-15.2248
0
LINE
8
BLACK
6
CONTINUOUS
10
47.0524
20
-15.2248
11
46.6714
21
-15.2248
0
LINE
8
BLACK
6
CONTINUOUS
10
46.6714
20
-15.2248
11
46.481
21
-15.1295
0
LINE
8
BLACK
6
CONTINUOUS
10
46.481
20
-15.1295
11
46.3857
21
-14.939
0
LINE
8
BLACK
6
CONTINUOUS
10
46.3857
20
-14.939
11
46.3857
21
-14.1771
0
LINE
8
BLACK
6
CONTINUOUS
10
46.3857
20
-14.1771
11
46.481
21
-13.9867
0
LINE
8
BLACK
6
CONTINUOUS
10
46.481
20
-13.9867
11
46.6714
21
-13.8914
0
LINE
8
BLACK
6
CONTINUOUS
10
46.6714
20
-13.8914
11
47.0524
21
-13.8914
0
LINE
8
BLACK
6
CONTINUOUS
10
47.0524
20
-13.8914
11
47.2429
21
-13.9867
0
LINE
8
BLACK
6
CONTINUOUS
10
47.2429
20
-13.9867
11
47.3381
21
-14.1771
0
LINE
8
BLACK
6
CONTINUOUS
10
47.3381
20
-14.1771
11
47.3381
21
-14.3676
0
LINE
8
BLACK
6
CONTINUOUS
10
47.3381
20
-14.3676
11
46.3857
21
-14.5581
0
LINE
8
BLACK
6
CONTINUOUS
10
48.1
20
-15.1295
11
48.2905
21
-15.2248
0
LINE
8
BLACK
6
CONTINUOUS
10
48.2905
20
-15.2248
11
48.6714
21
-15.2248
0
LINE
8
BLACK
6
CONTINUOUS
10
48.6714
20
-15.2248
11
48.8619
21
-15.1295
0
LINE
8
BLACK
6
CONTINUOUS
10
48.8619
20
-15.1295
11
48.9571
21
-14.939
0
LINE
8
BLACK
6
CONTINUOUS
10
48.9571
20
-14.939
11
48.9571
21
-14.8438
0
LINE
8
BLACK
6
CONTINUOUS
10
48.9571
20
-14.8438
11
48.8619
21
-14.6533
0
LINE
8
BLACK
6
CONTINUOUS
10
48.8619
20
-14.6533
11
48.6714
21
-14.5581
0
LINE
8
BLACK
6
CONTINUOUS
10
48.6714
20
-14.5581
11
48.3857
21
-14.5581
0
LINE
8
BLACK
6
CONTINUOUS
10
48.3857
20
-14.5581
11
48.1952
21
-14.4629
0
LINE
8
BLACK
6
CONTINUOUS
10
48.1952
20
-14.4629
11
48.1
21
-14.2724
0
LINE
8
BLACK
6
CONTINUOUS
10
48.1
20
-14.2724
11
48.1
21
-14.1771
0
LINE
8
BLACK
6
CONTINUOUS
10
48.1
20
-14.1771
11
48.1952
21
-13.9867
0
LINE
8
BLACK
6
CONTINUOUS
10
48.1952
20
-13.9867
11
48.3857
21
-13.8914
0
LINE
8
BLACK
6
CONTINUOUS
10
48.3857
20
-13.8914
11
48.6714
21
-13.8914
0
LINE
8
BLACK
6
CONTINUOUS
10
48.6714
20
-13.8914
11
48.8619
21
-13.9867
0
LINE
8
BLACK
6
CONTINUOUS
10
49.6238
20
-15.9867
11
49.719
21
-15.8914
0
LINE
8
BLACK
6
CONTINUOUS
10
49.719
20
-15.8914
11
49.9095
21
-15.6057
0
LINE
8
BLACK
6
CONTINUOUS
10
49.9095
20
-15.6057
11
50.0048
21
-15.4152
0
LINE
8
BLACK
6
CONTINUOUS
10
50.0048
20
-15.4152
11
50.1
21
-15.1295
0
LINE
8
BLACK
6
CONTINUOUS
10
50.1
20
-15.1295
11
50.1952
21
-14.6533
0
LINE
8
BLACK
6
CONTINUOUS
10
50.1952
20
-14.6533
11
50.1952
21
-14.2724
0
LINE
8
BLACK
6
CONTINUOUS
10
50.1952
20
-14.2724
11
50.1
21
-13.7962
0
LINE
8
BLACK
6
CONTINUOUS
10
50.1
20
-13.7962
11
50.0048
21
-13.5105
0
LINE
8
BLACK
6
CONTINUOUS
10
50.0048
20
-13.5105
11
49.9095
21
-13.32
0
LINE
8
BLACK
6
CONTINUOUS
10
49.9095
20
-13.32
11
49.719
21
-13.0343
0
LINE
8
BLACK
6
CONTINUOUS
10
49.719
20
-13.0343
11
49.6238
21
-12.939
  0
ENDSEC
  0
EOF
