M48
; DRILL file {KiCad (6.0.9)} date Tue Nov 22 09:39:40 2022
; FORMAT={-:-/ absolute / metric / decimal}
; #@! TF.CreationDate,2022-11-22T09:39:40+01:00
; #@! TF.GenerationSoftware,Kicad,Pcbnew,(6.0.9)
; #@! TF.FileFunction,Plated,1,2,PTH
FMAT,2
METRIC
; #@! TA.AperFunction,Plated,PTH,ComponentDrill
T1C0.750
; #@! TA.AperFunction,Plated,PTH,ComponentDrill
T2C0.760
; #@! TA.AperFunction,Plated,PTH,ComponentDrill
T3C0.762
; #@! TA.AperFunction,Plated,PTH,ComponentDrill
T4C0.800
%
G90
G05
T1
X48.26Y-30.48
X48.26Y-31.75
X48.26Y-33.02
T2
X30.63Y-27.3
X30.63Y-29.84
X30.63Y-32.38
X33.17Y-28.57
X33.17Y-31.11
X33.17Y-33.65
T3
X68.235Y-21.59
X68.235Y-24.257
X68.235Y-26.797
X68.235Y-39.497
X68.235Y-42.037
X68.235Y-44.45
X70.775Y-21.59
X70.775Y-24.257
X70.775Y-26.797
X70.775Y-39.497
X70.775Y-42.037
X70.775Y-44.45
X73.315Y-21.59
X73.315Y-24.257
X73.315Y-26.797
X73.315Y-39.497
X73.315Y-42.037
X73.315Y-44.45
X75.855Y-21.59
X75.855Y-24.257
X75.855Y-26.797
X75.855Y-39.497
X75.855Y-42.037
X75.855Y-44.45
X78.395Y-21.59
X78.395Y-24.257
X78.395Y-26.797
X78.395Y-39.497
X78.395Y-42.037
X78.395Y-44.45
X80.935Y-21.59
X80.935Y-24.257
X80.935Y-26.797
X80.935Y-39.497
X80.935Y-42.037
X80.935Y-44.45
X83.475Y-21.59
X83.475Y-24.257
X83.475Y-26.797
X83.475Y-39.497
X83.475Y-42.037
X83.475Y-44.45
X86.015Y-21.59
X86.015Y-24.257
X86.015Y-26.797
X86.015Y-39.497
X86.015Y-42.037
X86.015Y-44.45
X88.555Y-21.59
X88.555Y-24.257
X88.555Y-26.797
X88.555Y-39.497
X88.555Y-42.037
X88.555Y-44.45
X91.095Y-21.59
X91.095Y-24.257
X91.095Y-26.797
X91.095Y-39.497
X91.095Y-42.037
X91.095Y-44.45
X93.635Y-21.59
X93.635Y-24.257
X93.635Y-26.797
X93.635Y-39.497
X93.635Y-42.037
X93.635Y-44.45
X96.175Y-21.59
X96.175Y-24.257
X96.175Y-26.797
X96.175Y-39.497
X96.175Y-42.037
X96.175Y-44.45
T4
X39.37Y-25.4
X40.64Y-29.21
X40.64Y-41.91
X48.26Y-38.1
X48.26Y-40.6
X52.07Y-25.4
X55.88Y-21.59
X55.88Y-34.29
X94.02Y-30.48
X96.52Y-30.48
T0
M30
