%TF.GenerationSoftware,KiCad,Pcbnew,(6.0.9)*%
%TF.CreationDate,2022-11-22T09:39:27+01:00*%
%TF.ProjectId,esp32_ttgo_capaci.kicad_af,65737033-325f-4747-9467-6f5f63617061,rev?*%
%TF.SameCoordinates,Original*%
%TF.FileFunction,Legend,Top*%
%TF.FilePolarity,Positive*%
%FSLAX46Y46*%
G04 Gerber Fmt 4.6, Leading zero omitted, Abs format (unit mm)*
G04 Created by KiCad (PCBNEW (6.0.9)) date 2022-11-22 09:39:27*
%MOMM*%
%LPD*%
G01*
G04 APERTURE LIST*
%ADD10C,0.150000*%
%ADD11C,0.120000*%
G04 APERTURE END LIST*
D10*
%TO.C,R2*%
X59052380Y-28106666D02*
X58576190Y-28440000D01*
X59052380Y-28678095D02*
X58052380Y-28678095D01*
X58052380Y-28297142D01*
X58100000Y-28201904D01*
X58147619Y-28154285D01*
X58242857Y-28106666D01*
X58385714Y-28106666D01*
X58480952Y-28154285D01*
X58528571Y-28201904D01*
X58576190Y-28297142D01*
X58576190Y-28678095D01*
X58147619Y-27725714D02*
X58100000Y-27678095D01*
X58052380Y-27582857D01*
X58052380Y-27344761D01*
X58100000Y-27249523D01*
X58147619Y-27201904D01*
X58242857Y-27154285D01*
X58338095Y-27154285D01*
X58480952Y-27201904D01*
X59052380Y-27773333D01*
X59052380Y-27154285D01*
%TO.C,C1*%
X43367142Y-39516666D02*
X43414761Y-39564285D01*
X43462380Y-39707142D01*
X43462380Y-39802380D01*
X43414761Y-39945238D01*
X43319523Y-40040476D01*
X43224285Y-40088095D01*
X43033809Y-40135714D01*
X42890952Y-40135714D01*
X42700476Y-40088095D01*
X42605238Y-40040476D01*
X42510000Y-39945238D01*
X42462380Y-39802380D01*
X42462380Y-39707142D01*
X42510000Y-39564285D01*
X42557619Y-39516666D01*
X43462380Y-38564285D02*
X43462380Y-39135714D01*
X43462380Y-38850000D02*
X42462380Y-38850000D01*
X42605238Y-38945238D01*
X42700476Y-39040476D01*
X42748095Y-39135714D01*
%TO.C,Q1*%
X52367619Y-31845238D02*
X52320000Y-31940476D01*
X52224761Y-32035714D01*
X52081904Y-32178571D01*
X52034285Y-32273809D01*
X52034285Y-32369047D01*
X52272380Y-32321428D02*
X52224761Y-32416666D01*
X52129523Y-32511904D01*
X51939047Y-32559523D01*
X51605714Y-32559523D01*
X51415238Y-32511904D01*
X51320000Y-32416666D01*
X51272380Y-32321428D01*
X51272380Y-32130952D01*
X51320000Y-32035714D01*
X51415238Y-31940476D01*
X51605714Y-31892857D01*
X51939047Y-31892857D01*
X52129523Y-31940476D01*
X52224761Y-32035714D01*
X52272380Y-32130952D01*
X52272380Y-32321428D01*
X52272380Y-30940476D02*
X52272380Y-31511904D01*
X52272380Y-31226190D02*
X51272380Y-31226190D01*
X51415238Y-31321428D01*
X51510476Y-31416666D01*
X51558095Y-31511904D01*
%TO.C,R3*%
X45553333Y-28572380D02*
X45220000Y-28096190D01*
X44981904Y-28572380D02*
X44981904Y-27572380D01*
X45362857Y-27572380D01*
X45458095Y-27620000D01*
X45505714Y-27667619D01*
X45553333Y-27762857D01*
X45553333Y-27905714D01*
X45505714Y-28000952D01*
X45458095Y-28048571D01*
X45362857Y-28096190D01*
X44981904Y-28096190D01*
X45886666Y-27572380D02*
X46505714Y-27572380D01*
X46172380Y-27953333D01*
X46315238Y-27953333D01*
X46410476Y-28000952D01*
X46458095Y-28048571D01*
X46505714Y-28143809D01*
X46505714Y-28381904D01*
X46458095Y-28477142D01*
X46410476Y-28524761D01*
X46315238Y-28572380D01*
X46029523Y-28572380D01*
X45934285Y-28524761D01*
X45886666Y-28477142D01*
%TO.C,C2*%
X95103333Y-32887142D02*
X95055714Y-32934761D01*
X94912857Y-32982380D01*
X94817619Y-32982380D01*
X94674761Y-32934761D01*
X94579523Y-32839523D01*
X94531904Y-32744285D01*
X94484285Y-32553809D01*
X94484285Y-32410952D01*
X94531904Y-32220476D01*
X94579523Y-32125238D01*
X94674761Y-32030000D01*
X94817619Y-31982380D01*
X94912857Y-31982380D01*
X95055714Y-32030000D01*
X95103333Y-32077619D01*
X95484285Y-32077619D02*
X95531904Y-32030000D01*
X95627142Y-31982380D01*
X95865238Y-31982380D01*
X95960476Y-32030000D01*
X96008095Y-32077619D01*
X96055714Y-32172857D01*
X96055714Y-32268095D01*
X96008095Y-32410952D01*
X95436666Y-32982380D01*
X96055714Y-32982380D01*
%TO.C,MCU1*%
X58527380Y-36123333D02*
X57527380Y-36123333D01*
X58241666Y-35789999D01*
X57527380Y-35456666D01*
X58527380Y-35456666D01*
X58432142Y-34409047D02*
X58479761Y-34456666D01*
X58527380Y-34599523D01*
X58527380Y-34694761D01*
X58479761Y-34837619D01*
X58384523Y-34932857D01*
X58289285Y-34980476D01*
X58098809Y-35028095D01*
X57955952Y-35028095D01*
X57765476Y-34980476D01*
X57670238Y-34932857D01*
X57575000Y-34837619D01*
X57527380Y-34694761D01*
X57527380Y-34599523D01*
X57575000Y-34456666D01*
X57622619Y-34409047D01*
X57527380Y-33980476D02*
X58336904Y-33980476D01*
X58432142Y-33932857D01*
X58479761Y-33885238D01*
X58527380Y-33789999D01*
X58527380Y-33599523D01*
X58479761Y-33504285D01*
X58432142Y-33456666D01*
X58336904Y-33409047D01*
X57527380Y-33409047D01*
X58527380Y-32409047D02*
X58527380Y-32980476D01*
X58527380Y-32694761D02*
X57527380Y-32694761D01*
X57670238Y-32789999D01*
X57765476Y-32885238D01*
X57813095Y-32980476D01*
X109724380Y-35678904D02*
X110533904Y-35678904D01*
X110629142Y-35631285D01*
X110676761Y-35583666D01*
X110724380Y-35488428D01*
X110724380Y-35297952D01*
X110676761Y-35202714D01*
X110629142Y-35155095D01*
X110533904Y-35107476D01*
X109724380Y-35107476D01*
X110676761Y-34678904D02*
X110724380Y-34536047D01*
X110724380Y-34297952D01*
X110676761Y-34202714D01*
X110629142Y-34155095D01*
X110533904Y-34107476D01*
X110438666Y-34107476D01*
X110343428Y-34155095D01*
X110295809Y-34202714D01*
X110248190Y-34297952D01*
X110200571Y-34488428D01*
X110152952Y-34583666D01*
X110105333Y-34631285D01*
X110010095Y-34678904D01*
X109914857Y-34678904D01*
X109819619Y-34631285D01*
X109772000Y-34583666D01*
X109724380Y-34488428D01*
X109724380Y-34250333D01*
X109772000Y-34107476D01*
X110200571Y-33345571D02*
X110248190Y-33202714D01*
X110295809Y-33155095D01*
X110391047Y-33107476D01*
X110533904Y-33107476D01*
X110629142Y-33155095D01*
X110676761Y-33202714D01*
X110724380Y-33297952D01*
X110724380Y-33678904D01*
X109724380Y-33678904D01*
X109724380Y-33345571D01*
X109772000Y-33250333D01*
X109819619Y-33202714D01*
X109914857Y-33155095D01*
X110010095Y-33155095D01*
X110105333Y-33202714D01*
X110152952Y-33250333D01*
X110200571Y-33345571D01*
X110200571Y-33678904D01*
%TO.C,R1*%
X38372380Y-35726666D02*
X37896190Y-36060000D01*
X38372380Y-36298095D02*
X37372380Y-36298095D01*
X37372380Y-35917142D01*
X37420000Y-35821904D01*
X37467619Y-35774285D01*
X37562857Y-35726666D01*
X37705714Y-35726666D01*
X37800952Y-35774285D01*
X37848571Y-35821904D01*
X37896190Y-35917142D01*
X37896190Y-36298095D01*
X38372380Y-34774285D02*
X38372380Y-35345714D01*
X38372380Y-35060000D02*
X37372380Y-35060000D01*
X37515238Y-35155238D01*
X37610476Y-35250476D01*
X37658095Y-35345714D01*
D11*
%TO.C,R2*%
X54160000Y-32560000D02*
X57600000Y-32560000D01*
X55880000Y-22630000D02*
X55880000Y-23320000D01*
X57600000Y-23320000D02*
X54160000Y-23320000D01*
X54160000Y-23320000D02*
X54160000Y-32560000D01*
X57600000Y-32560000D02*
X57600000Y-23320000D01*
X55880000Y-33250000D02*
X55880000Y-32560000D01*
%TO.C,C1*%
X49300000Y-37509000D02*
X51907000Y-37509000D01*
X45315000Y-36509000D02*
X51205000Y-36509000D01*
X49300000Y-38509000D02*
X52254000Y-38509000D01*
X46296000Y-35749000D02*
X50224000Y-35749000D01*
X49300000Y-38950000D02*
X52321000Y-38950000D01*
X49300000Y-38469000D02*
X52245000Y-38469000D01*
X44324000Y-38269000D02*
X47220000Y-38269000D01*
X44195000Y-38990000D02*
X47220000Y-38990000D01*
X47727000Y-35269000D02*
X48793000Y-35269000D01*
X45241000Y-36589000D02*
X51279000Y-36589000D01*
X45136000Y-36709000D02*
X51384000Y-36709000D01*
X49300000Y-37589000D02*
X51946000Y-37589000D01*
X45010000Y-36869000D02*
X51510000Y-36869000D01*
X49300000Y-37309000D02*
X51800000Y-37309000D01*
X44791000Y-37189000D02*
X47220000Y-37189000D01*
X47162000Y-35389000D02*
X49358000Y-35389000D01*
X49300000Y-38149000D02*
X52162000Y-38149000D01*
X49300000Y-38429000D02*
X52236000Y-38429000D01*
X44951000Y-36949000D02*
X51569000Y-36949000D01*
X44218000Y-38790000D02*
X47220000Y-38790000D01*
X45170000Y-36669000D02*
X51350000Y-36669000D01*
X44293000Y-38389000D02*
X47220000Y-38389000D01*
X49300000Y-38229000D02*
X52185000Y-38229000D01*
X49300000Y-39070000D02*
X52331000Y-39070000D01*
X44556000Y-37629000D02*
X47220000Y-37629000D01*
X49300000Y-38269000D02*
X52196000Y-38269000D01*
X49300000Y-38629000D02*
X52277000Y-38629000D01*
X46529000Y-35629000D02*
X49991000Y-35629000D01*
X44346000Y-38189000D02*
X47220000Y-38189000D01*
X45393000Y-36429000D02*
X51127000Y-36429000D01*
X44720000Y-37309000D02*
X47220000Y-37309000D01*
X45656000Y-36189000D02*
X50864000Y-36189000D01*
X44868000Y-37069000D02*
X47220000Y-37069000D01*
X49300000Y-38670000D02*
X52284000Y-38670000D01*
X44633000Y-37469000D02*
X47220000Y-37469000D01*
X49300000Y-37229000D02*
X51753000Y-37229000D01*
X49300000Y-38389000D02*
X52227000Y-38389000D01*
X46094000Y-35869000D02*
X50426000Y-35869000D01*
X44383000Y-38069000D02*
X47220000Y-38069000D01*
X44425000Y-37949000D02*
X47220000Y-37949000D01*
X49300000Y-38910000D02*
X52317000Y-38910000D01*
X44284000Y-38429000D02*
X47220000Y-38429000D01*
X49300000Y-38790000D02*
X52302000Y-38790000D01*
X44192000Y-39030000D02*
X47220000Y-39030000D01*
X44223000Y-38750000D02*
X47220000Y-38750000D01*
X47312000Y-35349000D02*
X49208000Y-35349000D01*
X44250000Y-38589000D02*
X47220000Y-38589000D01*
X44180000Y-39270000D02*
X52340000Y-39270000D01*
X46914000Y-35469000D02*
X49606000Y-35469000D01*
X49300000Y-38710000D02*
X52290000Y-38710000D01*
X46615000Y-35589000D02*
X49905000Y-35589000D01*
X49300000Y-38109000D02*
X52149000Y-38109000D01*
X45609000Y-36229000D02*
X50911000Y-36229000D01*
X49300000Y-37749000D02*
X52017000Y-37749000D01*
X49300000Y-37429000D02*
X51866000Y-37429000D01*
X45071000Y-36789000D02*
X51449000Y-36789000D01*
X44594000Y-37549000D02*
X47220000Y-37549000D01*
X46226000Y-35789000D02*
X50294000Y-35789000D01*
X46158000Y-35829000D02*
X50362000Y-35829000D01*
X44313000Y-38309000D02*
X47220000Y-38309000D01*
X44895000Y-37029000D02*
X51625000Y-37029000D01*
X49300000Y-38309000D02*
X52207000Y-38309000D01*
X46807000Y-35509000D02*
X49713000Y-35509000D01*
X49300000Y-37789000D02*
X52034000Y-37789000D01*
X49300000Y-38549000D02*
X52262000Y-38549000D01*
X44397000Y-38029000D02*
X47220000Y-38029000D01*
X49300000Y-37869000D02*
X52065000Y-37869000D01*
X45806000Y-36069000D02*
X50714000Y-36069000D01*
X49300000Y-37189000D02*
X51729000Y-37189000D01*
X49300000Y-37709000D02*
X52000000Y-37709000D01*
X44180000Y-39350000D02*
X52340000Y-39350000D01*
X44698000Y-37349000D02*
X47220000Y-37349000D01*
X44767000Y-37229000D02*
X47220000Y-37229000D01*
X46032000Y-35909000D02*
X50488000Y-35909000D01*
X49300000Y-37669000D02*
X51982000Y-37669000D01*
X49300000Y-37349000D02*
X51822000Y-37349000D01*
X49300000Y-37149000D02*
X51704000Y-37149000D01*
X44486000Y-37789000D02*
X47220000Y-37789000D01*
X44180000Y-39310000D02*
X52340000Y-39310000D01*
X44303000Y-38349000D02*
X47220000Y-38349000D01*
X49300000Y-37989000D02*
X52110000Y-37989000D01*
X46447000Y-35669000D02*
X50073000Y-35669000D01*
X45434000Y-36389000D02*
X51086000Y-36389000D01*
X46708000Y-35549000D02*
X49812000Y-35549000D01*
X44980000Y-36909000D02*
X51540000Y-36909000D01*
X47492000Y-35309000D02*
X49028000Y-35309000D01*
X45755000Y-36109000D02*
X50765000Y-36109000D01*
X44613000Y-37509000D02*
X47220000Y-37509000D01*
X49300000Y-38349000D02*
X52217000Y-38349000D01*
X44203000Y-38910000D02*
X47220000Y-38910000D01*
X49300000Y-39030000D02*
X52328000Y-39030000D01*
X45476000Y-36349000D02*
X51044000Y-36349000D01*
X49300000Y-38830000D02*
X52308000Y-38830000D01*
X44503000Y-37749000D02*
X47220000Y-37749000D01*
X49300000Y-38750000D02*
X52297000Y-38750000D01*
X49300000Y-37909000D02*
X52081000Y-37909000D01*
X44743000Y-37269000D02*
X47220000Y-37269000D01*
X44212000Y-38830000D02*
X47220000Y-38830000D01*
X45277000Y-36549000D02*
X51243000Y-36549000D01*
X44275000Y-38469000D02*
X47220000Y-38469000D01*
X44538000Y-37669000D02*
X47220000Y-37669000D01*
X44816000Y-37149000D02*
X47220000Y-37149000D01*
X49300000Y-39110000D02*
X52334000Y-39110000D01*
X49300000Y-38589000D02*
X52270000Y-38589000D01*
X45205000Y-36629000D02*
X51315000Y-36629000D01*
X45704000Y-36149000D02*
X50816000Y-36149000D01*
X45563000Y-36269000D02*
X50957000Y-36269000D01*
X44181000Y-39230000D02*
X52339000Y-39230000D01*
X49300000Y-38870000D02*
X52312000Y-38870000D01*
X49300000Y-37829000D02*
X52050000Y-37829000D01*
X44455000Y-37869000D02*
X47220000Y-37869000D01*
X45545000Y-43359698D02*
X46345000Y-43359698D01*
X44371000Y-38109000D02*
X47220000Y-38109000D01*
X49300000Y-37549000D02*
X51926000Y-37549000D01*
X49300000Y-37469000D02*
X51887000Y-37469000D01*
X45973000Y-35949000D02*
X50547000Y-35949000D01*
X49300000Y-37389000D02*
X51844000Y-37389000D01*
X44258000Y-38549000D02*
X47220000Y-38549000D01*
X47031000Y-35429000D02*
X49489000Y-35429000D01*
X44199000Y-38950000D02*
X47220000Y-38950000D01*
X44183000Y-39190000D02*
X52337000Y-39190000D01*
X46370000Y-35709000D02*
X50150000Y-35709000D01*
X44189000Y-39070000D02*
X47220000Y-39070000D01*
X44358000Y-38149000D02*
X47220000Y-38149000D01*
X44470000Y-37829000D02*
X47220000Y-37829000D01*
X45353000Y-36469000D02*
X51167000Y-36469000D01*
X44842000Y-37109000D02*
X47220000Y-37109000D01*
X44184000Y-39150000D02*
X52336000Y-39150000D01*
X44208000Y-38870000D02*
X47220000Y-38870000D01*
X49300000Y-37949000D02*
X52095000Y-37949000D01*
X44335000Y-38229000D02*
X47220000Y-38229000D01*
X49300000Y-38029000D02*
X52123000Y-38029000D01*
X44266000Y-38509000D02*
X47220000Y-38509000D01*
X44439000Y-37909000D02*
X47220000Y-37909000D01*
X44410000Y-37989000D02*
X47220000Y-37989000D01*
X45519000Y-36309000D02*
X51001000Y-36309000D01*
X44520000Y-37709000D02*
X47220000Y-37709000D01*
X45915000Y-35989000D02*
X50605000Y-35989000D01*
X49300000Y-38990000D02*
X52325000Y-38990000D01*
X49300000Y-37069000D02*
X51652000Y-37069000D01*
X44676000Y-37389000D02*
X47220000Y-37389000D01*
X45104000Y-36749000D02*
X51416000Y-36749000D01*
X49300000Y-37109000D02*
X51678000Y-37109000D01*
X44186000Y-39110000D02*
X47220000Y-39110000D01*
X49300000Y-37629000D02*
X51964000Y-37629000D01*
X49300000Y-38069000D02*
X52137000Y-38069000D01*
X45945000Y-43759698D02*
X45945000Y-42959698D01*
X49300000Y-38189000D02*
X52174000Y-38189000D01*
X44922000Y-36989000D02*
X51598000Y-36989000D01*
X44236000Y-38670000D02*
X47220000Y-38670000D01*
X45040000Y-36829000D02*
X51480000Y-36829000D01*
X44230000Y-38710000D02*
X47220000Y-38710000D01*
X49300000Y-37269000D02*
X51777000Y-37269000D01*
X44654000Y-37429000D02*
X47220000Y-37429000D01*
X44574000Y-37589000D02*
X47220000Y-37589000D01*
X45860000Y-36029000D02*
X50660000Y-36029000D01*
X44243000Y-38629000D02*
X47220000Y-38629000D01*
X52380000Y-39350000D02*
G75*
G03*
X52380000Y-39350000I-4120000J0D01*
G01*
%TO.C,Q1*%
X46410000Y-29950000D02*
X46410000Y-33550000D01*
X50860001Y-31750000D02*
G75*
G03*
X46421522Y-29911522I-2600001J0D01*
G01*
X46421522Y-33588478D02*
G75*
G03*
X50860000Y-31750000I1838478J1838478D01*
G01*
%TO.C,R3*%
X50340000Y-23680000D02*
X41100000Y-23680000D01*
X40410000Y-25400000D02*
X41100000Y-25400000D01*
X41100000Y-23680000D02*
X41100000Y-27120000D01*
X51030000Y-25400000D02*
X50340000Y-25400000D01*
X50340000Y-27120000D02*
X50340000Y-23680000D01*
X41100000Y-27120000D02*
X50340000Y-27120000D01*
%TO.C,C2*%
X95899000Y-29560000D02*
X94641000Y-29560000D01*
X95899000Y-31400000D02*
X94641000Y-31400000D01*
%TO.C,MCU1*%
X111669000Y-36917000D02*
X108748000Y-36917000D01*
X108748000Y-36917000D02*
X108748000Y-31917000D01*
X108748000Y-31917000D02*
X111669000Y-31917000D01*
X111669000Y-31917000D02*
X111669000Y-36917000D01*
X60615000Y-45565000D02*
X112105000Y-45565000D01*
X112105000Y-45565000D02*
X112105000Y-20475000D01*
X112105000Y-20475000D02*
X60615000Y-20475000D01*
X60615000Y-20475000D02*
X60615000Y-45565000D01*
%TO.C,R1*%
X38920000Y-30940000D02*
X38920000Y-40180000D01*
X42360000Y-40180000D02*
X42360000Y-30940000D01*
X42360000Y-30940000D02*
X38920000Y-30940000D01*
X38920000Y-40180000D02*
X42360000Y-40180000D01*
X40640000Y-30250000D02*
X40640000Y-30940000D01*
X40640000Y-40870000D02*
X40640000Y-40180000D01*
%TD*%
M02*
