%TF.GenerationSoftware,KiCad,Pcbnew,(6.0.9)*%
%TF.CreationDate,2022-11-22T09:39:27+01:00*%
%TF.ProjectId,esp32_ttgo_capaci.kicad_af,65737033-325f-4747-9467-6f5f63617061,rev?*%
%TF.SameCoordinates,Original*%
%TF.FileFunction,Soldermask,Bot*%
%TF.FilePolarity,Negative*%
%FSLAX46Y46*%
G04 Gerber Fmt 4.6, Leading zero omitted, Abs format (unit mm)*
G04 Created by KiCad (PCBNEW (6.0.9)) date 2022-11-22 09:39:27*
%MOMM*%
%LPD*%
G01*
G04 APERTURE LIST*
%ADD10C,1.600000*%
%ADD11O,1.600000X1.600000*%
%ADD12R,1.600000X1.600000*%
%ADD13R,1.500000X1.050000*%
%ADD14O,1.500000X1.050000*%
%ADD15R,1.524000X3.000000*%
%ADD16C,3.250000*%
%ADD17R,1.520000X1.520000*%
%ADD18C,1.520000*%
G04 APERTURE END LIST*
D10*
%TO.C,R2*%
X55880000Y-21590000D03*
D11*
X55880000Y-34290000D03*
%TD*%
D12*
%TO.C,C1*%
X48260000Y-40600000D03*
D10*
X48260000Y-38100000D03*
%TD*%
D13*
%TO.C,Q1*%
X48260000Y-30480000D03*
D14*
X48260000Y-31750000D03*
X48260000Y-33020000D03*
%TD*%
D10*
%TO.C,R3*%
X52070000Y-25400000D03*
D11*
X39370000Y-25400000D03*
%TD*%
D10*
%TO.C,C2*%
X96520000Y-30480000D03*
X94020000Y-30480000D03*
%TD*%
D15*
%TO.C,MCU1*%
X96175000Y-24257000D03*
X96175000Y-21590000D03*
X96175000Y-26797000D03*
X93635000Y-24257000D03*
X93635000Y-21590000D03*
X93635000Y-26797000D03*
X91095000Y-26797000D03*
X91095000Y-24257000D03*
X91095000Y-21590000D03*
X88555000Y-21590000D03*
X88555000Y-26797000D03*
X88555000Y-24257000D03*
X86015000Y-21590000D03*
X86015000Y-24257000D03*
X86015000Y-26797000D03*
X83475000Y-26797000D03*
X83475000Y-24257000D03*
X83475000Y-21590000D03*
X80935000Y-24257000D03*
X80935000Y-21590000D03*
X80935000Y-26797000D03*
X78395000Y-26797000D03*
X78395000Y-21590000D03*
X78395000Y-24257000D03*
X75855000Y-21590000D03*
X75855000Y-24257000D03*
X75855000Y-26797000D03*
X73315000Y-24257000D03*
X73315000Y-26797000D03*
X73315000Y-21590000D03*
X70775000Y-24257000D03*
X70775000Y-21590000D03*
X70775000Y-26797000D03*
X68235000Y-21590000D03*
X68235000Y-26797000D03*
X68235000Y-24257000D03*
X96175000Y-42037000D03*
X96175000Y-39497000D03*
X96175000Y-44450000D03*
X93635000Y-44450000D03*
X93635000Y-42037000D03*
X93635000Y-39497000D03*
X91095000Y-42037000D03*
X91095000Y-39497000D03*
X91095000Y-44450000D03*
X88555000Y-42037000D03*
X88555000Y-44450000D03*
X88555000Y-39497000D03*
X86015000Y-39497000D03*
X86015000Y-42037000D03*
X86015000Y-44450000D03*
X83475000Y-42037000D03*
X83475000Y-39497000D03*
X83475000Y-44450000D03*
X80935000Y-42037000D03*
X80935000Y-44450000D03*
X80935000Y-39497000D03*
X78395000Y-44450000D03*
X78395000Y-39497000D03*
X78395000Y-42037000D03*
X75855000Y-42037000D03*
X75855000Y-39497000D03*
X75855000Y-44450000D03*
X73315000Y-42037000D03*
X73315000Y-44450000D03*
X73315000Y-39497000D03*
X70775000Y-42037000D03*
X70775000Y-39497000D03*
X70775000Y-44450000D03*
X68235000Y-44450000D03*
X68235000Y-42037000D03*
X68235000Y-39497000D03*
%TD*%
D10*
%TO.C,R1*%
X40640000Y-41910000D03*
D11*
X40640000Y-29210000D03*
%TD*%
D16*
%TO.C,J1*%
X24280000Y-25400000D03*
X24280000Y-35560000D03*
D17*
X33170000Y-33650000D03*
D18*
X30630000Y-32380000D03*
X33170000Y-31110000D03*
X30630000Y-29840000D03*
X33170000Y-28570000D03*
X30630000Y-27300000D03*
%TD*%
M02*
