M48
; DRILL file {KiCad (6.0.9)} date Sat Nov 19 17:04:46 2022
; FORMAT={-:-/ absolute / inch / decimal}
; #@! TF.CreationDate,2022-11-19T17:04:46+01:00
; #@! TF.GenerationSoftware,Kicad,Pcbnew,(6.0.9)
; #@! TF.FileFunction,Plated,1,2,PTH
FMAT,2
INCH
; #@! TA.AperFunction,Plated,PTH,ComponentDrill
T1C0.0295
; #@! TA.AperFunction,Plated,PTH,ComponentDrill
T2C0.0299
; #@! TA.AperFunction,Plated,PTH,ComponentDrill
T3C0.0300
; #@! TA.AperFunction,Plated,PTH,ComponentDrill
T4C0.0315
%
G90
G05
T1
X1.9Y-1.1
X1.9Y-1.15
X1.9Y-1.2
T2
X1.2059Y-1.0748
X1.2059Y-1.1748
X1.2059Y-1.2748
X1.3059Y-1.1248
X1.3059Y-1.2248
X1.3059Y-1.3248
T3
X2.6864Y-0.85
X2.6864Y-0.955
X2.6864Y-1.055
X2.6864Y-1.555
X2.6864Y-1.655
X2.6864Y-1.75
X2.7864Y-0.85
X2.7864Y-0.955
X2.7864Y-1.055
X2.7864Y-1.555
X2.7864Y-1.655
X2.7864Y-1.75
X2.8864Y-0.85
X2.8864Y-0.955
X2.8864Y-1.055
X2.8864Y-1.555
X2.8864Y-1.655
X2.8864Y-1.75
X2.9864Y-0.85
X2.9864Y-0.955
X2.9864Y-1.055
X2.9864Y-1.555
X2.9864Y-1.655
X2.9864Y-1.75
X3.0864Y-0.85
X3.0864Y-0.955
X3.0864Y-1.055
X3.0864Y-1.555
X3.0864Y-1.655
X3.0864Y-1.75
X3.1864Y-0.85
X3.1864Y-0.955
X3.1864Y-1.055
X3.1864Y-1.555
X3.1864Y-1.655
X3.1864Y-1.75
X3.2864Y-0.85
X3.2864Y-0.955
X3.2864Y-1.055
X3.2864Y-1.555
X3.2864Y-1.655
X3.2864Y-1.75
X3.3864Y-0.85
X3.3864Y-0.955
X3.3864Y-1.055
X3.3864Y-1.555
X3.3864Y-1.655
X3.3864Y-1.75
X3.4864Y-0.85
X3.4864Y-0.955
X3.4864Y-1.055
X3.4864Y-1.555
X3.4864Y-1.655
X3.4864Y-1.75
X3.5864Y-0.85
X3.5864Y-0.955
X3.5864Y-1.055
X3.5864Y-1.555
X3.5864Y-1.655
X3.5864Y-1.75
X3.6864Y-0.85
X3.6864Y-0.955
X3.6864Y-1.055
X3.6864Y-1.555
X3.6864Y-1.655
X3.6864Y-1.75
X3.7864Y-0.85
X3.7864Y-0.955
X3.7864Y-1.055
X3.7864Y-1.555
X3.7864Y-1.655
X3.7864Y-1.75
T4
X1.55Y-0.9
X1.6Y-1.15
X1.6Y-1.65
X1.9Y-1.5
X1.9Y-1.5984
X2.05Y-0.9
X2.2Y-0.85
X2.2Y-1.35
X3.7016Y-1.2
X3.8Y-1.2
T0
M30
