%TF.GenerationSoftware,KiCad,Pcbnew,(6.0.9)*%
%TF.CreationDate,2022-11-20T18:13:40+01:00*%
%TF.ProjectId,esp32_ttgo_capaci,65737033-325f-4747-9467-6f5f63617061,rev?*%
%TF.SameCoordinates,Original*%
%TF.FileFunction,Copper,L2,Bot*%
%TF.FilePolarity,Positive*%
%FSLAX46Y46*%
G04 Gerber Fmt 4.6, Leading zero omitted, Abs format (unit mm)*
G04 Created by KiCad (PCBNEW (6.0.9)) date 2022-11-20 18:13:40*
%MOMM*%
%LPD*%
G01*
G04 APERTURE LIST*
%TA.AperFunction,ComponentPad*%
%ADD10C,1.600000*%
%TD*%
%TA.AperFunction,ComponentPad*%
%ADD11O,1.600000X1.600000*%
%TD*%
%TA.AperFunction,ComponentPad*%
%ADD12R,1.600000X1.600000*%
%TD*%
%TA.AperFunction,ComponentPad*%
%ADD13R,1.500000X1.050000*%
%TD*%
%TA.AperFunction,ComponentPad*%
%ADD14O,1.500000X1.050000*%
%TD*%
%TA.AperFunction,ComponentPad*%
%ADD15R,1.524000X3.000000*%
%TD*%
%TA.AperFunction,ComponentPad*%
%ADD16R,1.520000X1.520000*%
%TD*%
%TA.AperFunction,ComponentPad*%
%ADD17C,1.520000*%
%TD*%
G04 APERTURE END LIST*
D10*
%TO.P,R2,1*%
%TO.N,Net-(Q1-Pad1)*%
X55880000Y-21590000D03*
D11*
%TO.P,R2,2*%
%TO.N,Net-(R2-Pad2)*%
X55880000Y-34290000D03*
%TD*%
D12*
%TO.P,C1,1*%
%TO.N,Net-(J1-Pad1)*%
X48260000Y-40600000D03*
D10*
%TO.P,C1,2*%
%TO.N,GND*%
X48260000Y-38100000D03*
%TD*%
D13*
%TO.P,Q1,1,C*%
%TO.N,Net-(Q1-Pad1)*%
X48260000Y-27940000D03*
D14*
%TO.P,Q1,2,B*%
%TO.N,Net-(Q1-Pad2)*%
X48260000Y-29210000D03*
%TO.P,Q1,3,E*%
%TO.N,GND*%
X48260000Y-30480000D03*
%TD*%
D10*
%TO.P,R3,1*%
%TO.N,Net-(Q1-Pad2)*%
X52070000Y-22860000D03*
D11*
%TO.P,R3,2*%
%TO.N,Net-(J1-Pad5)*%
X39370000Y-22860000D03*
%TD*%
D10*
%TO.P,C2,1*%
%TO.N,Net-(J1-Pad1)*%
X96520000Y-30480000D03*
%TO.P,C2,2*%
%TO.N,GND*%
X94020000Y-30480000D03*
%TD*%
D15*
%TO.P,MCU1,1,5V*%
%TO.N,Net-(J1-Pad1)*%
X96175000Y-26797000D03*
X96175000Y-21590000D03*
X96175000Y-24257000D03*
%TO.P,MCU1,2,GND*%
%TO.N,GND*%
X93635000Y-26797000D03*
X93635000Y-21590000D03*
X93635000Y-24257000D03*
%TO.P,MCU1,3,GPIO27/ADC17/TOUCH7*%
%TO.N,Net-(Q1-Pad1)*%
X91095000Y-21590000D03*
X91095000Y-26797000D03*
X91095000Y-24257000D03*
%TO.P,MCU1,4,GPIO26/ADC19/DAC2*%
%TO.N,unconnected-(MCU1-Pad4)*%
X88555000Y-26797000D03*
X88555000Y-21590000D03*
X88555000Y-24257000D03*
%TO.P,MCU1,5,GPIO25/ADC18/DAC1*%
%TO.N,unconnected-(MCU1-Pad5)*%
X86015000Y-24257000D03*
X86015000Y-21590000D03*
X86015000Y-26797000D03*
%TO.P,MCU1,6,GPIO33/ADC5/TOUCH8*%
%TO.N,unconnected-(MCU1-Pad6)*%
X83475000Y-26797000D03*
X83475000Y-21590000D03*
X83475000Y-24257000D03*
%TO.P,MCU1,7,GPIO32/ADC4/TOUCH9*%
%TO.N,unconnected-(MCU1-Pad7)*%
X80935000Y-26797000D03*
X80935000Y-21590000D03*
X80935000Y-24257000D03*
%TO.P,MCU1,8,GPIO39/ADC3/SVN*%
%TO.N,unconnected-(MCU1-Pad8)*%
X78395000Y-26797000D03*
X78395000Y-24257000D03*
X78395000Y-21590000D03*
%TO.P,MCU1,9,GPIO38*%
%TO.N,unconnected-(MCU1-Pad9)*%
X75855000Y-21590000D03*
X75855000Y-24257000D03*
X75855000Y-26797000D03*
%TO.P,MCU1,10,GPIO37*%
%TO.N,unconnected-(MCU1-Pad10)*%
X73315000Y-26797000D03*
X73315000Y-24257000D03*
X73315000Y-21590000D03*
%TO.P,MCU1,11,GPIO36/ADC0*%
%TO.N,unconnected-(MCU1-Pad11)*%
X70775000Y-21590000D03*
X70775000Y-26797000D03*
X70775000Y-24257000D03*
%TO.P,MCU1,12,3V3*%
%TO.N,Net-(R2-Pad2)*%
X68235000Y-21590000D03*
X68235000Y-24257000D03*
X68235000Y-26797000D03*
%TO.P,MCU1,13,3V3*%
%TO.N,unconnected-(MCU1-Pad13)*%
X96175000Y-42037000D03*
X96175000Y-39497000D03*
X96175000Y-44450000D03*
%TO.P,MCU1,14,GND*%
%TO.N,unconnected-(MCU1-Pad14)*%
X93635000Y-44450000D03*
X93635000Y-39497000D03*
X93635000Y-42037000D03*
%TO.P,MCU1,15,GND*%
%TO.N,unconnected-(MCU1-Pad15)*%
X91095000Y-44450000D03*
X91095000Y-39497000D03*
X91095000Y-42037000D03*
%TO.P,MCU1,16,GPIO12/ADC15/TOUCH5*%
%TO.N,unconnected-(MCU1-Pad16)*%
X88555000Y-42037000D03*
X88555000Y-39497000D03*
X88555000Y-44450000D03*
%TO.P,MCU1,17,GPIO13/ADC14/TOUCH4*%
%TO.N,unconnected-(MCU1-Pad17)*%
X86015000Y-44450000D03*
X86015000Y-42037000D03*
X86015000Y-39497000D03*
%TO.P,MCU1,18,GPIO15/ADC13/TOUCH3*%
%TO.N,unconnected-(MCU1-Pad18)*%
X83475000Y-44450000D03*
X83475000Y-39497000D03*
X83475000Y-42037000D03*
%TO.P,MCU1,19,GPIO2/ADC12/TOUCH2*%
%TO.N,unconnected-(MCU1-Pad19)*%
X80935000Y-44450000D03*
X80935000Y-39497000D03*
X80935000Y-42037000D03*
%TO.P,MCU1,20,GPIO17*%
%TO.N,unconnected-(MCU1-Pad20)*%
X78395000Y-44450000D03*
X78395000Y-42037000D03*
X78395000Y-39497000D03*
%TO.P,MCU1,21,GPIO22/I2C_SCL*%
%TO.N,unconnected-(MCU1-Pad21)*%
X75855000Y-42037000D03*
X75855000Y-44450000D03*
X75855000Y-39497000D03*
%TO.P,MCU1,22,GPIO21/I2C_SDA*%
%TO.N,unconnected-(MCU1-Pad22)*%
X73315000Y-44450000D03*
X73315000Y-42037000D03*
X73315000Y-39497000D03*
%TO.P,MCU1,23,GND*%
%TO.N,unconnected-(MCU1-Pad23)*%
X70775000Y-42037000D03*
X70775000Y-39497000D03*
X70775000Y-44450000D03*
%TO.P,MCU1,24,GND*%
%TO.N,unconnected-(MCU1-Pad24)*%
X68235000Y-44450000D03*
X68235000Y-39497000D03*
X68235000Y-42037000D03*
%TD*%
D10*
%TO.P,R1,1*%
%TO.N,Net-(J1-Pad1)*%
X40640000Y-41910000D03*
D11*
%TO.P,R1,2*%
%TO.N,Net-(J1-Pad5)*%
X40640000Y-29210000D03*
%TD*%
D16*
%TO.P,J1,1*%
%TO.N,Net-(J1-Pad1)*%
X33170000Y-33650000D03*
D17*
%TO.P,J1,2*%
X30630000Y-32380000D03*
%TO.P,J1,3*%
%TO.N,GND*%
X33170000Y-31110000D03*
%TO.P,J1,4*%
%TO.N,unconnected-(J1-Pad4)*%
X30630000Y-29840000D03*
%TO.P,J1,5*%
%TO.N,Net-(J1-Pad5)*%
X33170000Y-28570000D03*
%TO.P,J1,6*%
%TO.N,GND*%
X30630000Y-27300000D03*
%TD*%
M02*
